<svg width="61" height="11" viewBox="0 0 61 11" fill="none" xmlns="http://www.w3.org/2000/svg">
<path d="M3.87439 0.562988C2.49255 0.562988 1.31335 0.697266 0.336792 0.96582L-0.00012207 1.05371L0.26355 1.27344C0.54187 1.54687 0.707886 1.76416 0.761597 1.92529C0.790894 2.01807 0.805542 2.12549 0.805542 2.24756C0.800659 2.3501 0.795776 2.40137 0.790894 2.40137C0.483276 3.26074 0.329468 4.38623 0.329468 5.77783C0.329468 8.01904 0.661499 9.67676 1.32556 10.751L1.36951 10.8242L1.45007 10.8315C2.31921 10.9438 3.12732 11 3.87439 11C4.86072 11 5.89099 10.9023 6.96521 10.707L7.11169 10.6851V8.05566L6.83337 8.23877C6.58435 8.3999 6.27429 8.54883 5.9032 8.68555C5.48816 8.82715 4.93884 8.91748 4.25525 8.95654C3.53748 8.98584 3.01746 8.97852 2.69519 8.93457C2.42175 8.0459 2.28503 6.99365 2.28503 5.77783C2.28503 4.56689 2.42175 3.51953 2.69519 2.63574C3.04675 2.58691 3.56677 2.57959 4.25525 2.61377C4.89978 2.63818 5.4491 2.73096 5.9032 2.89209C6.24011 3.00439 6.55017 3.15332 6.83337 3.33887L7.11169 3.51465V0.870605L6.81873 0.82666C5.66638 0.650879 4.68494 0.562988 3.87439 0.562988ZM13.3373 8.80273C13.142 8.83691 12.7294 8.854 12.0995 8.854C11.4696 8.854 11.0497 8.83691 10.8397 8.80273L10.8544 2.78955L12.0995 2.74561C12.5585 2.73584 12.9711 2.75049 13.3373 2.78955V8.80273ZM15.974 10.48C15.8715 10.4556 15.7689 10.3896 15.6664 10.2822C15.4662 10.0625 15.3636 9.74268 15.3588 9.32275L15.3514 1.50049V0.936523L15.205 0.899902C14.5507 0.685059 13.5155 0.577637 12.0995 0.577637C11.3329 0.577637 10.515 0.643555 9.64587 0.775391C9.37732 0.819336 9.11853 0.865723 8.86951 0.914551C8.65955 0.958496 8.55945 0.980469 8.56921 0.980469L8.21765 1.06104C8.22742 1.0708 8.23718 1.08057 8.24695 1.09033L8.21765 1.09766C8.62781 1.39062 8.83533 1.77881 8.84021 2.26221V10.6411L8.97205 10.6777C9.82166 10.8926 10.8641 11 12.0995 11C12.8612 11 13.6766 10.9316 14.5458 10.7949C14.8143 10.7559 15.0731 10.7119 15.3221 10.6631C15.5321 10.6191 15.6322 10.5972 15.6224 10.5972L15.974 10.5166C15.9594 10.5117 15.9423 10.5044 15.9227 10.4946L15.974 10.48ZM24.8656 10.6045C24.6263 10.4092 24.4945 10.1797 24.4701 9.91602V0.606934H22.434V6.25391L19.6288 0.606934H17.08L17.578 1.00244L17.8856 1.37598C17.9393 1.5127 17.9613 1.65186 17.9515 1.79346V11H19.9657V5.71191L22.5072 11L25.3417 10.9854L24.8656 10.6045ZM26.4403 0.606934H33.9989V2.65039H31.2596V9.78418C31.2743 10.165 31.4208 10.4653 31.6991 10.6851L32.0873 11H28.4398L28.7621 10.6997C29.0551 10.4214 29.2064 10.1162 29.2162 9.78418V2.65039H26.4403V0.606934ZM40.576 7.48438H38.767L39.6312 3.37549L40.576 7.48438ZM37.3241 0.562988L37.5292 0.848633C37.788 1.2002 37.8783 1.56885 37.8002 1.95459C37.2191 5.19678 36.6063 7.9043 35.9618 10.0771C35.8934 10.3213 35.7518 10.5215 35.537 10.6777L35.0975 11H37.8514L38.2103 9.49121H40.9496L41.1986 11H43.535L41.2352 0.562988H37.3241ZM48.5082 0.562988C47.1263 0.562988 45.9471 0.697266 44.9706 0.96582L44.6337 1.05371L44.8973 1.27344C45.1757 1.54687 45.3417 1.76416 45.3954 1.92529C45.4247 2.01807 45.4393 2.12549 45.4393 2.24756C45.4344 2.3501 45.4296 2.40137 45.4247 2.40137C45.1171 3.26074 44.9633 4.38623 44.9633 5.77783C44.9633 8.01904 45.2953 9.67676 45.9594 10.751L46.0033 10.8242L46.0839 10.8315C46.953 10.9438 47.7611 11 48.5082 11C49.4945 11 50.5248 10.9023 51.599 10.707L51.7455 10.6851V8.05566L51.4672 8.23877C51.2181 8.3999 50.9081 8.54883 50.537 8.68555C50.1219 8.82715 49.5726 8.91748 48.889 8.95654C48.1713 8.98584 47.6512 8.97852 47.329 8.93457C47.0555 8.0459 46.9188 6.99365 46.9188 5.77783C46.9188 4.56689 47.0555 3.51953 47.329 2.63574C47.6805 2.58691 48.2006 2.57959 48.889 2.61377C49.5336 2.63818 50.0829 2.73096 50.537 2.89209C50.8739 3.00439 51.184 3.15332 51.4672 3.33887L51.7455 3.51465V0.870605L51.4525 0.82666C50.3002 0.650879 49.3187 0.562988 48.5082 0.562988ZM52.8514 0.606934H60.41V2.65039H57.6708V9.78418C57.6854 10.165 57.8319 10.4653 58.1102 10.6851L58.4984 11H54.851L55.1732 10.6997C55.4662 10.4214 55.6176 10.1162 55.6273 9.78418V2.65039H52.8514V0.606934Z" fill="black"/>
</svg>
