<?xml version="1.0" encoding="UTF-8"?>
<!DOCTYPE svg PUBLIC "-//W3C//DTD SVG 1.1//EN" "http://www.w3.org/Graphics/SVG/1.1/DTD/svg11.dtd">
<!-- Creator: CorelDRAW -->
<svg xmlns="http://www.w3.org/2000/svg" xml:space="preserve" width="40.3378mm" height="11.0827mm" version="1.1" style="shape-rendering:geometricPrecision; text-rendering:geometricPrecision; image-rendering:optimizeQuality; fill-rule:evenodd; clip-rule:evenodd"
viewBox="0 0 1139.32 313.02"
 xmlns:xlink="http://www.w3.org/1999/xlink"
 xmlns:xodm="http://www.corel.com/coreldraw/odm/2003">
 <defs>
  <style type="text/css">
   <![CDATA[
    .fil0 {fill:#FFAA00;fill-rule:nonzero}
    .fil1 {fill:#FFE55E;fill-rule:nonzero}
   ]]>
  </style>
 </defs>
 <g id="Слой_x0020_1">
  <metadata id="CorelCorpID_0Corel-Layer"/>
  <path class="fil0" d="M379.65 128.83l0 -37.36c7.78,-0.55 13.16,-0.82 16.11,-0.82 8.49,-0.23 16.04,0.04 22.65,0.82 0.23,2.26 0.35,3.85 0.35,4.79 0.7,7.86 1.05,12.65 1.05,14.36 0,6.07 -0.43,12.14 -1.29,18.21l-38.88 0zm66.67 -68.54l-1.64 -0.47c0.16,0 -1.32,-0.23 -4.44,-0.7 -3.81,-0.55 -7.63,-1.05 -11.44,-1.52 -12.53,-1.4 -23.74,-2.03 -33.63,-1.87 -9.89,0.16 -22.03,1.01 -36.43,2.57 -4.44,0.55 -8.87,1.09 -13.31,1.64 -3.66,0.55 -5.45,0.82 -5.37,0.82l-3.04 0.47 -3.15 0.58 5.02 3.85c2.96,2.34 5.1,4.63 6.42,6.89 1.64,2.8 2.45,5.99 2.45,9.57l0 139.3 31.87 0 0 -62.71 66.91 0 0.23 -1.4 0.12 -0.82c0.39,-1.64 0.86,-4.2 1.4,-7.71 2.18,-12.84 3.27,-24.98 3.27,-36.43 0,-20.4 -1.59,-37.17 -4.78,-50.33l-0.47 -1.75zm140.82 154.59c0.16,0 -1.44,0.35 -4.78,1.05 -4.05,0.86 -8.21,1.6 -12.5,2.22 -13.86,2.18 -26.89,3.27 -39.12,3.27 -20.71,0 -37.33,-1.71 -49.86,-5.14l-1.87 -0.7 0 -140.35c0,-7.78 -3.31,-14.2 -9.93,-19.27l41.8 0 -0.23 130.07c3.43,0.55 10.12,0.82 20.08,0.82 10.12,0 16.7,-0.27 19.73,-0.82l0 -130.07 32.35 -0.23 0 139.07c0,6.77 1.6,11.95 4.79,15.53 1.64,1.71 3.27,2.8 4.9,3.27l-5.37 1.28zm68.78 -86.05l0 -37.36c7.78,-0.55 13.15,-0.82 16.11,-0.82 8.48,-0.23 16.03,0.04 22.65,0.82 0.23,2.26 0.35,3.85 0.35,4.79 0.7,7.86 1.05,12.65 1.05,14.36 0,6.07 -0.43,12.14 -1.29,18.21l-38.88 0zm66.67 -68.54l-1.64 -0.47c0.16,0 -1.32,-0.23 -4.44,-0.7 -3.81,-0.55 -7.63,-1.05 -11.44,-1.52 -12.53,-1.4 -23.74,-2.03 -33.63,-1.87 -9.89,0.16 -22.03,1.01 -36.43,2.57 -4.44,0.55 -8.87,1.09 -13.31,1.64 -3.66,0.55 -5.45,0.82 -5.37,0.82l-3.04 0.47 -3.15 0.58 5.02 3.85c2.96,2.34 5.1,4.63 6.42,6.89 1.64,2.8 2.45,5.99 2.45,9.57l0 139.3 31.88 0 0 -62.71 66.91 0 0.23 -1.4 0.12 -0.82c0.39,-1.64 0.85,-4.2 1.4,-7.71 2.18,-12.84 3.27,-24.98 3.27,-36.43 0,-20.4 -1.6,-37.17 -4.79,-50.33l-0.46 -1.75z"/>
  <path class="fil1" d="M852.67 73.37c-0.16,-3.35 0.7,-6.42 2.57,-9.22 0.46,-0.7 1.71,-2.14 3.74,-4.32l4.32 -4.78 -41.92 0 0 69.94 -33.05 0 0 -69.94 -42.97 0 5.73 5.02c4.21,3.66 6.23,8.13 6.08,13.43l0 129.49c0.15,3.35 -0.59,6.34 -2.22,8.99 -0.31,0.39 -1.21,1.4 -2.69,3.04l-5.84 6.42 41.91 0 0 -62.71 33.05 0 0 62.71 42.97 0 -5.36 -5.02c-4.05,-3.66 -6.15,-8.17 -6.31,-13.55l0 -129.49zm147.36 141.52c0.15,0 -1.44,0.35 -4.79,1.05 -4.05,0.86 -8.21,1.6 -12.5,2.22 -13.85,2.18 -26.89,3.27 -39.11,3.27 -20.71,0 -37.33,-1.71 -49.86,-5.14l-1.87 -0.7 0 -140.35c0,-7.78 -3.31,-14.2 -9.92,-19.27l41.8 0 -0.24 130.07c3.43,0.55 10.12,0.82 20.09,0.82 10.12,0 16.7,-0.27 19.73,-0.82l0 -130.07 32.34 -0.23 0 139.07c0,6.77 1.6,11.95 4.79,15.53 1.64,1.71 3.27,2.8 4.9,3.27l-5.37 1.28zm83.02 -25.92c-6.54,0 -12.22,-0.31 -17.05,-0.93l0 -34.09 36.31 0c1.95,4.12 2.92,9.96 2.92,17.51 0,7.63 -1.02,12.96 -3.04,15.99 -5.52,1.01 -11.9,1.52 -19.15,1.52zm19.62 -83.83c0,7.47 -0.93,13.35 -2.8,17.63l-33.86 0 0 -33.98c6.46,-0.78 11.76,-1.21 15.88,-1.29l1.16 0c4.44,0 9.96,0.51 16.58,1.52 2.03,3.11 3.04,8.48 3.04,16.11zm35.26 -2.8c0,-13.16 -2.69,-26.93 -8.06,-41.34l-1.05 -1.64 -1.63 -0.23c-15.02,-2.72 -29.19,-4.08 -42.5,-4.08l-2.1 0c-13.78,0.16 -31.65,1.75 -53.6,4.78l-5.84 0.82 4.32 4.09c4.91,4.59 7.36,9.93 7.36,16l0 114.89c0,6.38 -2.41,11.72 -7.24,16l-4.55 3.97 5.95 0.93c17.9,3.04 35.77,4.67 53.6,4.91l1.98 0c13.86,0 28.73,-1.32 44.6,-3.97l1.75 -0.35 0.47 -1.64c5.29,-17.83 7.94,-33.63 7.94,-47.41 0,-8.56 -2.33,-18.57 -7,-30.01 3.74,-11.83 5.6,-23.74 5.6,-35.73z"/>
  <g id="_2486105443856">
   <g id="_2855296169376">
    <path class="fil1" d="M134.25 155.95c-3.14,33.61 24.62,40.93 46.9,71.82 33.12,44.33 66.48,35.78 76.24,7.39 9.27,-27.25 -15.3,-50.08 -12.56,-80.01 2.69,-29.97 32.65,-54.02 28.79,-81.48 -3.91,-27.41 -35.9,-35.14 -78.01,9.93 -28.56,31.14 -57.14,39 -61.27,72.25l-0.09 0.11z"/>
    <path class="fil0" d="M103.15 237.79c24.39,-18.64 53.06,-21.31 61.57,-4.95 8.51,16.36 -3.56,45.11 -29.34,64.43 -24.39,18.64 -53.06,21.31 -61.57,4.95 -8.51,-16.36 4.5,-44.7 29.34,-64.43z"/>
    <path class="fil0" d="M119.83 75.21c20.8,18.7 48.08,19.34 60.66,2.41 12.63,-16.89 5.93,-45.44 -15.32,-63.05 -20.8,-18.7 -48.03,-19.3 -60.66,-2.41 -12.19,15.8 -5.44,44.29 15.32,63.05z"/>
    <path class="fil0" d="M52.95 165.89c30.06,-6 55.99,5.74 57.01,26.83 1.02,21.1 -22.83,43.82 -52.95,49.78 -30.06,6 -55.99,-5.74 -57.01,-26.84 -0.09,-20.69 22.34,-42.68 52.94,-49.78z"/>
    <path class="fil0" d="M54.77 148.51c28.7,5.1 56.86,-6.86 62.87,-28.96 5.57,-21.02 -12.91,-42.63 -42.55,-48.14 -28.7,-5.1 -56.86,6.86 -62.87,28.96 -5.57,21.02 13.85,43.04 42.55,48.14z"/>
   </g>
  </g>
 </g>
</svg>
