<?xml version="1.0" encoding="UTF-8"?>
<!DOCTYPE svg PUBLIC "-//W3C//DTD SVG 1.1//EN" "http://www.w3.org/Graphics/SVG/1.1/DTD/svg11.dtd">
<!-- Creator: CorelDRAW -->
<svg xmlns="http://www.w3.org/2000/svg" xml:space="preserve" width="9.0136mm" height="8.386mm" version="1.1" style="shape-rendering:geometricPrecision; text-rendering:geometricPrecision; image-rendering:optimizeQuality; fill-rule:evenodd; clip-rule:evenodd"
viewBox="0 0 83.36 77.55"
 xmlns:xlink="http://www.w3.org/1999/xlink"
 xmlns:xodm="http://www.corel.com/coreldraw/odm/2003">
 <defs>
  <style type="text/css">
   <![CDATA[
    .fil0 {fill:#839AA9;fill-rule:nonzero}
   ]]>
  </style>
 </defs>
 <g id="Слой_x0020_1">
  <metadata id="CorelCorpID_0Corel-Layer"/>
  <g id="_1717536337744">
   <path class="fil0" d="M0.37 77.39c-0.11,0 -0.2,-0.03 -0.28,-0.1 -0.06,-0.07 -0.1,-0.17 -0.1,-0.27l0 -10.57c0,-0.11 0.03,-0.19 0.1,-0.26 0.08,-0.07 0.17,-0.11 0.28,-0.11l0.86 0c0.11,0 0.19,0.04 0.26,0.11 0.07,0.06 0.11,0.15 0.11,0.26l0 9.54 5.37 0c0.12,0 0.21,0.04 0.27,0.11 0.08,0.06 0.11,0.16 0.11,0.27l0 0.65c0,0.11 -0.04,0.2 -0.11,0.27 -0.08,0.06 -0.17,0.1 -0.27,0.1l-6.6 0zm11.72 0.16c-1.11,0 -2,-0.34 -2.67,-1.02 -0.66,-0.69 -1.02,-1.63 -1.08,-2.81l-0.02 -0.55 0.02 -0.53c0.08,-1.16 0.44,-2.09 1.1,-2.78 0.67,-0.69 1.55,-1.03 2.64,-1.03 1.2,0 2.12,0.38 2.78,1.15 0.66,0.75 0.99,1.78 0.99,3.07l0 0.27c0,0.11 -0.04,0.2 -0.11,0.27 -0.06,0.06 -0.15,0.1 -0.26,0.1l-5.59 0 0 0.15c0.03,0.7 0.24,1.3 0.63,1.79 0.4,0.49 0.92,0.73 1.57,0.73 0.5,0 0.9,-0.1 1.21,-0.29 0.32,-0.2 0.56,-0.42 0.71,-0.63 0.1,-0.13 0.17,-0.2 0.21,-0.23 0.05,-0.03 0.15,-0.05 0.27,-0.05l0.79 0c0.1,0 0.18,0.03 0.24,0.08 0.06,0.05 0.1,0.13 0.1,0.23 0,0.24 -0.15,0.52 -0.45,0.86 -0.29,0.33 -0.71,0.63 -1.24,0.87 -0.53,0.24 -1.14,0.36 -1.83,0.36zm2.22 -4.98l0 -0.05c0,-0.74 -0.21,-1.35 -0.61,-1.81 -0.4,-0.47 -0.94,-0.71 -1.62,-0.71 -0.68,0 -1.22,0.24 -1.62,0.71 -0.39,0.46 -0.58,1.07 -0.58,1.81l0 0.05 4.43 0zm5.81 4.98c-0.53,0 -1.02,-0.11 -1.47,-0.32 -0.45,-0.22 -0.81,-0.51 -1.08,-0.87 -0.26,-0.38 -0.39,-0.79 -0.39,-1.24 0,-0.71 0.29,-1.29 0.87,-1.75 0.59,-0.46 1.39,-0.76 2.39,-0.91l2.41 -0.34 0 -0.47c0,-1.1 -0.63,-1.65 -1.89,-1.65 -0.47,0 -0.86,0.1 -1.16,0.31 -0.3,0.19 -0.53,0.43 -0.68,0.7 -0.03,0.1 -0.08,0.17 -0.13,0.21 -0.04,0.04 -0.11,0.06 -0.19,0.06l-0.69 0c-0.1,0 -0.18,-0.03 -0.26,-0.1 -0.06,-0.07 -0.1,-0.16 -0.1,-0.26 0.01,-0.26 0.13,-0.55 0.36,-0.87 0.24,-0.33 0.6,-0.62 1.08,-0.86 0.48,-0.25 1.08,-0.37 1.79,-0.37 1.21,0 2.08,0.28 2.6,0.86 0.53,0.56 0.79,1.26 0.79,2.1l0 5.24c0,0.11 -0.04,0.2 -0.11,0.27 -0.06,0.06 -0.15,0.1 -0.26,0.1l-0.74 0c-0.11,0 -0.2,-0.03 -0.27,-0.1 -0.07,-0.07 -0.1,-0.17 -0.1,-0.27l0 -0.7c-0.24,0.34 -0.58,0.64 -1.03,0.87 -0.45,0.24 -1.03,0.36 -1.73,0.36zm0.34 -1.21c0.7,0 1.27,-0.23 1.71,-0.68 0.45,-0.46 0.68,-1.13 0.68,-1.99l0 -0.45 -1.88 0.27c-0.76,0.11 -1.34,0.29 -1.73,0.55 -0.39,0.25 -0.58,0.57 -0.58,0.95 0,0.43 0.18,0.77 0.53,1 0.36,0.23 0.78,0.34 1.26,0.34zm6.61 1.05c-0.11,0 -0.2,-0.03 -0.28,-0.1 -0.06,-0.07 -0.1,-0.17 -0.1,-0.27l0 -7.65c0,-0.11 0.03,-0.2 0.1,-0.27 0.08,-0.07 0.17,-0.11 0.28,-0.11l0.74 0c0.11,0 0.2,0.04 0.27,0.11 0.07,0.08 0.11,0.17 0.11,0.27l0 0.71c0.44,-0.73 1.2,-1.1 2.26,-1.1l0.63 0c0.11,0 0.19,0.04 0.26,0.11 0.07,0.06 0.11,0.15 0.11,0.26l0 0.66c0,0.11 -0.04,0.19 -0.11,0.26 -0.06,0.06 -0.15,0.1 -0.26,0.1l-0.97 0c-0.58,0 -1.04,0.17 -1.37,0.52 -0.33,0.33 -0.5,0.79 -0.5,1.37l0 4.75c0,0.11 -0.04,0.2 -0.11,0.27 -0.08,0.06 -0.17,0.1 -0.28,0.1l-0.79 0zm6.14 0c-0.11,0 -0.2,-0.03 -0.27,-0.1 -0.06,-0.07 -0.1,-0.17 -0.1,-0.27l0 -7.66c0,-0.11 0.03,-0.19 0.1,-0.26 0.07,-0.07 0.17,-0.11 0.27,-0.11l0.76 0c0.11,0 0.19,0.04 0.26,0.11 0.08,0.06 0.11,0.15 0.11,0.26l0 0.71c0.31,-0.4 0.68,-0.71 1.1,-0.92 0.43,-0.22 0.96,-0.32 1.6,-0.32 1.04,0 1.84,0.33 2.41,1 0.58,0.66 0.87,1.54 0.87,2.63l0 4.56c0,0.11 -0.04,0.2 -0.11,0.27 -0.06,0.06 -0.15,0.1 -0.26,0.1l-0.81 0c-0.11,0 -0.2,-0.03 -0.28,-0.1 -0.06,-0.07 -0.1,-0.17 -0.1,-0.27l0 -4.48c0,-0.77 -0.19,-1.36 -0.57,-1.78 -0.37,-0.42 -0.9,-0.63 -1.6,-0.63 -0.68,0 -1.22,0.22 -1.62,0.65 -0.4,0.42 -0.6,1.01 -0.6,1.76l0 4.48c0,0.11 -0.04,0.2 -0.11,0.27 -0.06,0.06 -0.15,0.1 -0.26,0.1l-0.81 0zm13.77 0c-0.11,0 -0.2,-0.03 -0.27,-0.1 -0.06,-0.07 -0.1,-0.17 -0.1,-0.27l0 -7.66c0,-0.11 0.03,-0.19 0.1,-0.26 0.08,-0.07 0.17,-0.11 0.27,-0.11l0.73 0c0.11,0 0.19,0.04 0.26,0.11 0.07,0.06 0.11,0.15 0.11,0.26l0 0.57c0.56,-0.73 1.34,-1.1 2.34,-1.1 1.2,0 2.04,0.5 2.54,1.49 0.26,-0.45 0.63,-0.81 1.1,-1.08 0.47,-0.27 1.01,-0.4 1.6,-0.4 0.88,0 1.61,0.3 2.17,0.91 0.56,0.6 0.84,1.48 0.84,2.62l0 4.67c0,0.11 -0.04,0.2 -0.11,0.27 -0.06,0.06 -0.15,0.1 -0.26,0.1l-0.76 0c-0.11,0 -0.2,-0.03 -0.27,-0.1 -0.06,-0.07 -0.1,-0.17 -0.1,-0.27l0 -4.53c0,-0.84 -0.18,-1.44 -0.53,-1.81 -0.34,-0.37 -0.8,-0.55 -1.37,-0.55 -0.51,0 -0.94,0.19 -1.31,0.57 -0.37,0.37 -0.55,0.96 -0.55,1.79l0 4.53c0,0.11 -0.04,0.2 -0.11,0.27 -0.06,0.06 -0.15,0.1 -0.26,0.1l-0.76 0c-0.11,0 -0.2,-0.03 -0.27,-0.1 -0.06,-0.07 -0.1,-0.17 -0.1,-0.27l0 -4.53c0,-0.84 -0.18,-1.44 -0.55,-1.81 -0.36,-0.37 -0.81,-0.55 -1.36,-0.55 -0.51,0 -0.94,0.19 -1.31,0.57 -0.37,0.37 -0.55,0.96 -0.55,1.78l0 4.54c0,0.11 -0.04,0.2 -0.11,0.27 -0.06,0.06 -0.15,0.1 -0.26,0.1l-0.78 0zm17.44 0.16c-1.19,0 -2.11,-0.33 -2.77,-1 -0.65,-0.67 -0.99,-1.56 -1.03,-2.67l-0.02 -0.7 0.02 -0.7c0.04,-1.1 0.39,-1.98 1.05,-2.65 0.66,-0.68 1.57,-1.02 2.75,-1.02 1.17,0 2.09,0.34 2.75,1.02 0.66,0.67 1.01,1.55 1.05,2.65 0.01,0.12 0.02,0.35 0.02,0.7 0,0.34 -0.01,0.58 -0.02,0.7 -0.04,1.11 -0.39,2 -1.05,2.67 -0.65,0.67 -1.56,1 -2.75,1zm0 -1.24c0.68,0 1.21,-0.22 1.6,-0.65 0.4,-0.43 0.61,-1.05 0.65,-1.86 0.01,-0.11 0.02,-0.31 0.02,-0.61 0,-0.3 -0,-0.51 -0.02,-0.61 -0.03,-0.81 -0.25,-1.43 -0.65,-1.86 -0.39,-0.43 -0.92,-0.65 -1.6,-0.65 -0.68,0 -1.22,0.22 -1.62,0.65 -0.4,0.43 -0.61,1.05 -0.63,1.86l-0.02 0.61 0.02 0.61c0.02,0.81 0.23,1.43 0.63,1.86 0.4,0.43 0.94,0.65 1.62,0.65zm6.21 1.08c-0.11,0 -0.2,-0.03 -0.27,-0.1 -0.06,-0.07 -0.1,-0.17 -0.1,-0.27l0 -7.65c0,-0.11 0.03,-0.2 0.1,-0.27 0.08,-0.07 0.17,-0.11 0.27,-0.11l0.74 0c0.11,0 0.2,0.04 0.28,0.11 0.07,0.08 0.11,0.17 0.11,0.27l0 0.71c0.44,-0.73 1.2,-1.1 2.26,-1.1l0.63 0c0.11,0 0.19,0.04 0.26,0.11 0.08,0.06 0.11,0.15 0.11,0.26l0 0.66c0,0.11 -0.04,0.19 -0.11,0.26 -0.06,0.06 -0.15,0.1 -0.26,0.1l-0.97 0c-0.58,0 -1.04,0.17 -1.37,0.52 -0.33,0.33 -0.5,0.79 -0.5,1.37l0 4.75c0,0.11 -0.04,0.2 -0.11,0.27 -0.08,0.06 -0.17,0.1 -0.27,0.1l-0.79 0zm8.98 0.16c-1.11,0 -2,-0.34 -2.67,-1.02 -0.66,-0.69 -1.02,-1.63 -1.08,-2.81l-0.02 -0.55 0.02 -0.53c0.07,-1.16 0.44,-2.09 1.1,-2.78 0.67,-0.69 1.55,-1.03 2.64,-1.03 1.2,0 2.12,0.38 2.78,1.15 0.66,0.75 0.99,1.78 0.99,3.07l0 0.27c0,0.11 -0.04,0.2 -0.11,0.27 -0.06,0.06 -0.15,0.1 -0.26,0.1l-5.59 0 0 0.15c0.03,0.7 0.24,1.3 0.63,1.79 0.4,0.49 0.92,0.73 1.57,0.73 0.5,0 0.9,-0.1 1.21,-0.29 0.32,-0.2 0.56,-0.42 0.71,-0.63 0.1,-0.13 0.17,-0.2 0.21,-0.23 0.05,-0.03 0.15,-0.05 0.27,-0.05l0.79 0c0.1,0 0.18,0.03 0.24,0.08 0.06,0.05 0.1,0.13 0.1,0.23 0,0.24 -0.15,0.52 -0.45,0.86 -0.29,0.33 -0.71,0.63 -1.24,0.87 -0.53,0.24 -1.14,0.36 -1.83,0.36zm2.21 -4.98l0 -0.05c0,-0.74 -0.21,-1.35 -0.61,-1.81 -0.4,-0.47 -0.94,-0.71 -1.62,-0.71 -0.68,0 -1.22,0.24 -1.62,0.71 -0.39,0.46 -0.58,1.07 -0.58,1.81l0 0.05 4.43 0z"/>
   <path class="fil0" d="M53.5 24.59c-0.03,0.32 -0.24,0.66 -0.72,1.02 -4.7,3.46 -9.39,6.91 -14.08,10.36 -1,0.74 -3.38,0.91 -3.38,-0.83 0,-6.39 0,-12.78 0,-19.17 0,-1.57 2.55,-1.96 3.58,-1.32 4.69,2.94 9.39,5.88 14.08,8.81 0.54,0.34 0.66,0.74 0.53,1.13zm15.96 5.45c-1.49,33.08 -61.61,26.23 -55.08,-8.6 2.74,-14.61 15.82,-22.3 30.2,-21.37 16.18,1.04 24.59,14.69 24.88,29.75 0,0.04 -0.03,0.07 -0.03,0.11 0.01,0.04 0.03,0.07 0.03,0.11zm-3.02 0.43c-0.24,-10.66 -4.32,-22.17 -14.84,-26.75 -13.94,-6.07 -30.36,1.09 -33.9,15.84 -3.17,13.2 3.88,24.9 16.77,29.13 13.74,4.51 31.22,-2.59 31.97,-18.23z"/>
  </g>
 </g>
</svg>
