<svg width="108" height="13" viewBox="0 0 108 13" fill="none" xmlns="http://www.w3.org/2000/svg">
<path d="M7.40039 5.39868C7.33789 5.43514 7.25977 5.45858 7.16602 5.46899H2.90039V3.30493L2.93945 3.29712C3.3457 3.23462 3.93685 3.2216 4.71289 3.25806C5.43685 3.29972 6.02799 3.39608 6.48633 3.54712C6.9082 3.70858 7.23372 3.86743 7.46289 4.02368L7.76758 4.23462V1.40649L7.61133 1.37524C6.51758 1.17212 5.41602 1.07056 4.30664 1.07056C2.84831 1.07056 1.56966 1.21118 0.470703 1.49243L0.103516 1.59399L0.392578 1.82837C0.66862 2.05754 0.806641 2.35441 0.806641 2.71899V10.5706C0.806641 10.9091 0.666016 11.206 0.384766 11.4612L0.111328 11.7112L0.470703 11.7893C1.68424 12.0653 2.96289 12.2034 4.30664 12.2034C5.41081 12.2034 6.50977 12.0992 7.60352 11.8909L7.76758 11.8674V9.03149L7.46289 9.24243C7.23893 9.40389 6.9082 9.56274 6.4707 9.71899C5.98633 9.89087 5.40039 9.98983 4.71289 10.0159C3.93164 10.0523 3.33529 10.0367 2.92383 9.96899L2.90039 7.67212H7.20508C7.26758 7.67212 7.32487 7.68254 7.37695 7.70337C7.42904 7.7242 7.44987 7.73462 7.43945 7.73462L7.76758 8.05493V5.51587L7.7832 5.06274L7.46289 5.35962L7.40039 5.39868ZM14.7988 12.2034L13.4238 8.92993L11.9707 12.2034H9.0332C9.43945 11.87 9.73372 11.443 9.91602 10.9221L11.7207 6.92212L9.91602 2.38306C9.80664 1.96639 9.48893 1.54451 8.96289 1.11743H11.9707L13.4238 4.82056L14.7988 1.11743H17.7441C17.2858 1.54451 16.9915 1.96639 16.8613 2.38306L14.9785 6.94556L16.8613 10.9221C17.0645 11.4742 17.3796 11.9013 17.8066 12.2034H14.7988ZM22.041 6.00806V3.50806C22.5618 3.4716 22.9212 3.45337 23.1191 3.45337C23.6868 3.43774 24.1921 3.45597 24.6348 3.50806C24.6504 3.6591 24.6582 3.76587 24.6582 3.82837C24.7051 4.35441 24.7285 4.67472 24.7285 4.78931C24.7285 5.19556 24.6999 5.60181 24.6426 6.00806H22.041ZM26.502 1.42212L26.3926 1.39087C26.403 1.39087 26.304 1.37524 26.0957 1.34399C25.8405 1.30754 25.5853 1.27368 25.3301 1.24243C24.4915 1.14868 23.7415 1.10701 23.0801 1.11743C22.4186 1.12785 21.6061 1.18514 20.6426 1.28931C20.3457 1.32576 20.0488 1.36222 19.752 1.39868C19.5072 1.43514 19.3874 1.45337 19.3926 1.45337L19.1895 1.48462L18.9785 1.52368L19.3145 1.78149C19.5124 1.93774 19.6556 2.09139 19.7441 2.24243C19.8535 2.42993 19.9082 2.64347 19.9082 2.88306V12.2034H22.041V8.00806H26.5176L26.5332 7.91431L26.541 7.85962C26.5671 7.75024 26.5983 7.57837 26.6348 7.34399C26.7806 6.48462 26.8535 5.67212 26.8535 4.90649C26.8535 3.54191 26.7467 2.41951 26.5332 1.53931L26.502 1.42212ZM34.6582 9.67993C34.1634 9.85701 33.554 9.95858 32.8301 9.98462C32.1842 10.0159 31.5566 10.0028 30.9473 9.94556L30.9395 2.29712C30.9395 1.92733 31.0801 1.63306 31.3613 1.41431L31.7988 1.07056H28.0254L28.4004 1.40649C28.6712 1.64608 28.8066 1.94556 28.8066 2.30493C28.8171 2.52889 28.8171 5.21118 28.8066 10.3518V10.5471C28.8066 10.9013 28.6634 11.2034 28.377 11.4534L28.0879 11.6956L28.4629 11.7815C29.7077 12.0627 31.0228 12.2034 32.4082 12.2034C33.502 12.2034 34.6608 12.0888 35.8848 11.8596L36.0488 11.8284V8.93774L35.7363 9.15649C35.4863 9.34399 35.127 9.51847 34.6582 9.67993ZM42.6895 9.85962C42.4811 9.89608 42.041 9.91431 41.3691 9.91431C40.6973 9.91431 40.2493 9.89608 40.0254 9.85962L40.041 3.44556L41.3691 3.39868C41.8587 3.38826 42.2988 3.40389 42.6895 3.44556V9.85962ZM45.502 11.6487C45.3926 11.6226 45.2832 11.5523 45.1738 11.4377C44.9603 11.2034 44.8509 10.8622 44.8457 10.4143L44.8379 2.07056V1.46899L44.6816 1.42993C43.9837 1.20076 42.8796 1.08618 41.3691 1.08618C40.5514 1.08618 39.679 1.15649 38.752 1.29712C38.4655 1.34399 38.1895 1.39347 37.9238 1.44556C37.6999 1.49243 37.5931 1.51587 37.6035 1.51587L37.2285 1.60181C37.2389 1.61222 37.2493 1.62264 37.2598 1.63306L37.2285 1.64087C37.666 1.95337 37.8874 2.36743 37.8926 2.88306V11.8206L38.0332 11.8596C38.9395 12.0888 40.0514 12.2034 41.3691 12.2034C42.1816 12.2034 43.0514 12.1305 43.9785 11.9846C44.265 11.943 44.541 11.8961 44.8066 11.844C45.0306 11.7971 45.1374 11.7737 45.127 11.7737L45.502 11.6877C45.4863 11.6825 45.4681 11.6747 45.4473 11.6643L45.502 11.6487ZM49.7441 6.00806V3.50806C50.2702 3.4716 50.627 3.45337 50.8145 3.45337C51.3822 3.43774 51.89 3.45597 52.3379 3.50806C52.3379 3.56014 52.3457 3.66691 52.3613 3.82837C52.3978 4.21899 52.416 4.53931 52.416 4.78931C52.416 5.26847 52.3926 5.67472 52.3457 6.00806H49.7441ZM54.916 12.2034L53.2207 8.00806H54.2051L54.2285 7.85181C54.2858 7.60181 54.3379 7.31795 54.3848 7.00024C54.4941 6.27108 54.5488 5.57316 54.5488 4.90649C54.5488 4.28149 54.5202 3.65649 54.4629 3.03149C54.4056 2.45337 54.3275 1.95597 54.2285 1.53931L54.2051 1.42212L54.166 1.41431L54.0957 1.39087C54.1061 1.39087 54.0046 1.37524 53.791 1.34399C53.541 1.30754 53.2858 1.27368 53.0254 1.24243C52.1816 1.14868 51.429 1.10701 50.7676 1.11743C50.179 1.12264 49.4629 1.16951 48.6191 1.25806C48.3743 1.2841 48.1947 1.30493 48.0801 1.32056C47.3561 1.4091 47.0254 1.45337 47.0879 1.45337L46.6816 1.52368L47.0098 1.78149C47.265 1.98983 47.4342 2.21118 47.5176 2.44556C47.5697 2.59139 47.5957 2.73462 47.5957 2.87524V12.2034H49.7285V8.00806H50.8926C50.9238 8.09139 51.0332 8.3492 51.2207 8.78149C51.4238 9.25024 51.5879 9.64347 51.7129 9.96118C51.8014 10.1851 51.8822 10.3935 51.9551 10.5862C52.0384 10.8153 52.1061 11.0028 52.1582 11.1487C52.1842 11.232 52.2025 11.3258 52.2129 11.4299C52.2129 11.4351 52.2129 11.4403 52.2129 11.4456C52.2181 11.456 52.2207 11.4638 52.2207 11.469C52.2259 11.6096 52.1973 11.732 52.1348 11.8362C52.1243 11.857 52.1113 11.8726 52.0957 11.8831L51.8223 12.2034H54.916ZM63.3848 5.39868C63.3223 5.43514 63.2441 5.45858 63.1504 5.46899H58.8848V3.30493L58.9238 3.29712C59.3301 3.23462 59.9212 3.2216 60.6973 3.25806C61.4212 3.29972 62.0124 3.39608 62.4707 3.54712C62.8926 3.70858 63.2181 3.86743 63.4473 4.02368L63.752 4.23462V1.40649L63.5957 1.37524C62.502 1.17212 61.4004 1.07056 60.291 1.07056C58.8327 1.07056 57.554 1.21118 56.4551 1.49243L56.0879 1.59399L56.377 1.82837C56.653 2.05754 56.791 2.35441 56.791 2.71899V10.5706C56.791 10.9091 56.6504 11.206 56.3691 11.4612L56.0957 11.7112L56.4551 11.7893C57.6686 12.0653 58.9473 12.2034 60.291 12.2034C61.3952 12.2034 62.4941 12.0992 63.5879 11.8909L63.752 11.8674V9.03149L63.4473 9.24243C63.2233 9.40389 62.8926 9.56274 62.4551 9.71899C61.9707 9.89087 61.3848 9.98983 60.6973 10.0159C59.916 10.0523 59.3197 10.0367 58.9082 9.96899L58.8848 7.67212H63.1895C63.252 7.67212 63.3092 7.68254 63.3613 7.70337C63.4134 7.7242 63.4342 7.73462 63.4238 7.73462L63.752 8.05493V5.51587L63.7676 5.06274L63.4473 5.35962L63.3848 5.39868ZM79.5332 12.2034L79.166 11.8674C78.9056 11.6331 78.7702 11.3336 78.7598 10.969V1.03149L78.502 1.12524C76.929 1.70858 75.3717 2.44556 73.8301 3.33618C72.2311 2.38826 70.679 1.63566 69.1738 1.07837L68.916 0.984619V12.2034H71.0176L71.0332 4.66431L71.0645 4.67212H71.0879C71.1035 4.67733 71.1191 4.68254 71.1348 4.68774C71.8118 4.88045 72.3249 5.08358 72.6738 5.29712L72.7207 5.32837V12.2034H74.8223L74.8066 5.35181L74.9082 5.28931C75.4759 4.9716 76.0358 4.75285 76.5879 4.63306L76.6582 4.61743V12.2034H79.5332ZM86.1738 9.85962C85.9655 9.89608 85.5254 9.91431 84.8535 9.91431C84.1816 9.91431 83.7337 9.89608 83.5098 9.85962L83.5254 3.44556L84.8535 3.39868C85.3431 3.38826 85.7832 3.40389 86.1738 3.44556V9.85962ZM88.9863 11.6487C88.877 11.6226 88.7676 11.5523 88.6582 11.4377C88.4447 11.2034 88.3353 10.8622 88.3301 10.4143L88.3223 2.07056V1.46899L88.166 1.42993C87.4681 1.20076 86.3639 1.08618 84.8535 1.08618C84.0358 1.08618 83.1634 1.15649 82.2363 1.29712C81.9499 1.34399 81.6738 1.39347 81.4082 1.44556C81.1842 1.49243 81.0775 1.51587 81.0879 1.51587L80.7129 1.60181C80.7233 1.61222 80.7337 1.62264 80.7441 1.63306L80.7129 1.64087C81.1504 1.95337 81.3717 2.36743 81.377 2.88306V11.8206L81.5176 11.8596C82.4238 12.0888 83.5358 12.2034 84.8535 12.2034C85.666 12.2034 86.5358 12.1305 87.4629 11.9846C87.7493 11.943 88.0254 11.8961 88.291 11.844C88.515 11.7971 88.6217 11.7737 88.6113 11.7737L88.9863 11.6877C88.9707 11.6825 88.9525 11.6747 88.9316 11.6643L88.9863 11.6487ZM93.2285 6.00806V3.50806C93.7546 3.4716 94.1113 3.45337 94.2988 3.45337C94.8665 3.43774 95.3743 3.45597 95.8223 3.50806C95.8223 3.56014 95.8301 3.66691 95.8457 3.82837C95.8822 4.21899 95.9004 4.53931 95.9004 4.78931C95.9004 5.26847 95.877 5.67472 95.8301 6.00806H93.2285ZM98.4004 12.2034L96.7051 8.00806H97.6895L97.7129 7.85181C97.7702 7.60181 97.8223 7.31795 97.8691 7.00024C97.9785 6.27108 98.0332 5.57316 98.0332 4.90649C98.0332 4.28149 98.0046 3.65649 97.9473 3.03149C97.89 2.45337 97.8118 1.95597 97.7129 1.53931L97.6895 1.42212L97.6504 1.41431L97.5801 1.39087C97.5905 1.39087 97.4889 1.37524 97.2754 1.34399C97.0254 1.30754 96.7702 1.27368 96.5098 1.24243C95.666 1.14868 94.9134 1.10701 94.252 1.11743C93.6634 1.12264 92.9473 1.16951 92.1035 1.25806C91.8587 1.2841 91.679 1.30493 91.5645 1.32056C90.8405 1.4091 90.5098 1.45337 90.5723 1.45337L90.166 1.52368L90.4941 1.78149C90.7493 1.98983 90.9186 2.21118 91.002 2.44556C91.054 2.59139 91.0801 2.73462 91.0801 2.87524V12.2034H93.2129V8.00806H94.377C94.4082 8.09139 94.5176 8.3492 94.7051 8.78149C94.9082 9.25024 95.0723 9.64347 95.1973 9.96118C95.2858 10.1851 95.3665 10.3935 95.4395 10.5862C95.5228 10.8153 95.5905 11.0028 95.6426 11.1487C95.6686 11.232 95.6868 11.3258 95.6973 11.4299C95.6973 11.4351 95.6973 11.4403 95.6973 11.4456C95.7025 11.456 95.7051 11.4638 95.7051 11.469C95.7103 11.6096 95.6816 11.732 95.6191 11.8362C95.6087 11.857 95.5957 11.8726 95.5801 11.8831L95.3066 12.2034H98.4004ZM106.869 5.39868C106.807 5.43514 106.729 5.45858 106.635 5.46899H102.369V3.30493L102.408 3.29712C102.814 3.23462 103.406 3.2216 104.182 3.25806C104.906 3.29972 105.497 3.39608 105.955 3.54712C106.377 3.70858 106.702 3.86743 106.932 4.02368L107.236 4.23462V1.40649L107.08 1.37524C105.986 1.17212 104.885 1.07056 103.775 1.07056C102.317 1.07056 101.038 1.21118 99.9395 1.49243L99.5723 1.59399L99.8613 1.82837C100.137 2.05754 100.275 2.35441 100.275 2.71899V10.5706C100.275 10.9091 100.135 11.206 99.8535 11.4612L99.5801 11.7112L99.9395 11.7893C101.153 12.0653 102.432 12.2034 103.775 12.2034C104.88 12.2034 105.979 12.0992 107.072 11.8909L107.236 11.8674V9.03149L106.932 9.24243C106.708 9.40389 106.377 9.56274 105.939 9.71899C105.455 9.89087 104.869 9.98983 104.182 10.0159C103.4 10.0523 102.804 10.0367 102.393 9.96899L102.369 7.67212H106.674C106.736 7.67212 106.794 7.68254 106.846 7.70337C106.898 7.7242 106.919 7.73462 106.908 7.73462L107.236 8.05493V5.51587L107.252 5.06274L106.932 5.35962L106.869 5.39868Z" fill="white"/>
</svg>
