<svg width="88" height="10" viewBox="0 0 88 10" fill="none" xmlns="http://www.w3.org/2000/svg">
<path d="M4.77844 7.94922C4.59615 7.98112 4.21106 7.99707 3.62317 7.99707C3.03528 7.99707 2.64335 7.98112 2.44739 7.94922L2.46106 2.33691L3.62317 2.2959C4.05155 2.28678 4.43665 2.30046 4.77844 2.33691V7.94922ZM7.23938 9.51465C7.14368 9.49186 7.04797 9.43034 6.95227 9.33008C6.76542 9.125 6.66972 8.8265 6.66516 8.43457L6.65833 1.13379V0.607422L6.52161 0.573242C5.91093 0.372721 4.94478 0.272461 3.62317 0.272461C2.90767 0.272461 2.14433 0.333984 1.33313 0.457031C1.08248 0.498047 0.840942 0.541341 0.608521 0.586914C0.412557 0.62793 0.319132 0.648438 0.328247 0.648438L0.00012207 0.723633C0.00923665 0.732747 0.0183512 0.741862 0.0274658 0.750977L0.00012207 0.757812C0.382935 1.03125 0.576619 1.39355 0.581177 1.84473V9.66504L0.704224 9.69922C1.49719 9.89974 2.47017 10 3.62317 10C4.33411 10 5.09517 9.9362 5.90637 9.80859C6.15702 9.77214 6.39856 9.73112 6.63098 9.68555C6.82694 9.64453 6.92037 9.62402 6.91125 9.62402L7.23938 9.54883C7.22571 9.54427 7.20976 9.53743 7.19153 9.52832L7.23938 9.51465ZM15.1827 9.61719C15.1919 9.61719 15.0984 9.6377 14.9025 9.67871C14.6655 9.72884 14.4217 9.77214 14.171 9.80859C13.3598 9.9362 12.5965 10 11.881 10C10.6687 10 9.69576 9.89974 8.96204 9.69922L8.85266 9.6582V1.44141C8.85266 0.985677 8.65898 0.609701 8.27161 0.313477H10.7189L10.7052 7.92871C10.9057 7.96061 11.2976 7.97656 11.881 7.97656C12.4734 7.97656 12.8585 7.96061 13.0363 7.92871V0.313477L14.9298 0.299805V8.44141C14.9298 8.83789 15.0232 9.14095 15.2101 9.35059C15.3058 9.45085 15.4015 9.51465 15.4972 9.54199L15.1827 9.61719ZM19.2091 4.5791V2.3916C19.6694 2.3597 19.9816 2.34375 20.1456 2.34375C20.6424 2.33008 21.0867 2.34603 21.4786 2.3916C21.4786 2.43717 21.4855 2.5306 21.4991 2.67188C21.531 3.01367 21.547 3.29395 21.547 3.5127C21.547 3.93197 21.5265 4.28743 21.4855 4.5791H19.2091ZM23.7345 10L22.2511 6.3291H23.1124L23.1329 6.19238C23.1831 5.97363 23.2286 5.72526 23.2697 5.44727C23.3654 4.80924 23.4132 4.19857 23.4132 3.61523C23.4132 3.06836 23.3881 2.52148 23.338 1.97461C23.2879 1.46875 23.2195 1.03353 23.1329 0.668945L23.1124 0.566406L23.0782 0.55957L23.0167 0.539062C23.0258 0.539062 22.937 0.525391 22.7501 0.498047C22.5314 0.466146 22.3081 0.436523 22.0802 0.40918C21.3419 0.327148 20.6834 0.29069 20.1046 0.299805C19.5896 0.304362 18.963 0.345378 18.2247 0.422852C18.0105 0.445638 17.8533 0.463867 17.7531 0.477539C17.1196 0.555013 16.8302 0.59375 16.8849 0.59375L16.5294 0.655273L16.8165 0.880859C17.0398 1.06315 17.1879 1.25684 17.2609 1.46191C17.3064 1.58952 17.3292 1.71484 17.3292 1.83789V10H19.1954V6.3291H20.214C20.2413 6.40202 20.337 6.6276 20.5011 7.00586C20.6788 7.41602 20.8224 7.76009 20.9318 8.03809C21.0092 8.23405 21.0799 8.41634 21.1437 8.58496C21.2166 8.78548 21.2758 8.94954 21.3214 9.07715C21.3442 9.15007 21.3601 9.2321 21.3693 9.32324C21.3693 9.3278 21.3693 9.33236 21.3693 9.33691C21.3738 9.34603 21.3761 9.35286 21.3761 9.35742C21.3807 9.48047 21.3556 9.58757 21.3009 9.67871C21.2918 9.69694 21.2804 9.71061 21.2667 9.71973L21.0275 10H23.7345ZM35.6974 9.52832L35.3146 9.62402C34.2618 9.87467 33.1385 10 31.9445 10C30.9054 10 29.9461 9.89974 29.0665 9.69922L28.9093 9.67188V7.00586C29.2739 7.35221 29.6863 7.59603 30.1466 7.7373C30.616 7.88314 31.0968 7.96517 31.589 7.9834C32.1769 8.0153 32.6873 8.00846 33.1202 7.96289V7.06055L29.3195 4.49707C29.046 4.33301 28.9093 4.05273 28.9093 3.65625C28.9184 2.39388 28.923 1.76725 28.923 1.77637C28.9139 1.46647 28.7885 1.2181 28.547 1.03125L28.2325 0.771484L28.6222 0.668945C29.6886 0.422852 30.7823 0.299805 31.9034 0.299805C32.5187 0.299805 33.1886 0.347656 33.9132 0.443359C34.1274 0.470703 34.3484 0.504883 34.5763 0.545898C34.7586 0.573242 34.8497 0.586914 34.8497 0.586914L35.0001 0.62793V3.29395L34.6925 3.02051C34.5239 2.87012 34.2163 2.71745 33.7697 2.5625C33.4142 2.42578 32.9106 2.33919 32.2589 2.30273C31.5935 2.27539 31.1082 2.28678 30.8029 2.33691V3.2666L34.7062 5.87109C34.9021 5.9668 35.0001 6.16732 35.0001 6.47266L35.007 8.52344C35.0206 8.82878 35.1437 9.07715 35.3761 9.26855L35.6974 9.52832ZM43.1075 4.0459C43.0529 4.0778 42.9845 4.09831 42.9025 4.10742H39.17V2.21387L39.2042 2.20703C39.5597 2.15234 40.0769 2.14095 40.756 2.17285C41.3894 2.20931 41.9067 2.29362 42.3077 2.42578C42.6769 2.56706 42.9617 2.70605 43.1622 2.84277L43.4288 3.02734V0.552734L43.2921 0.525391C42.3351 0.347656 41.3712 0.258789 40.4005 0.258789C39.1245 0.258789 38.0057 0.381836 37.0441 0.62793L36.7228 0.716797L36.9757 0.921875C37.2172 1.1224 37.338 1.38216 37.338 1.70117V8.57129C37.338 8.86751 37.215 9.12728 36.9689 9.35059L36.7296 9.56934L37.0441 9.6377C38.1059 9.87923 39.2247 10 40.4005 10C41.3667 10 42.3282 9.90885 43.2853 9.72656L43.4288 9.70605V7.22461L43.1622 7.40918C42.9663 7.55046 42.6769 7.68945 42.2941 7.82617C41.8702 7.97656 41.3575 8.06315 40.756 8.08594C40.0724 8.11784 39.5506 8.10417 39.1906 8.04492L39.17 6.03516H42.9366C42.9913 6.03516 43.0415 6.04427 43.087 6.0625C43.1326 6.08073 43.1508 6.08984 43.1417 6.08984L43.4288 6.37012V4.14844L43.4425 3.75195L43.1622 4.01172L43.1075 4.0459ZM47.1544 4.5791V2.3916C47.6147 2.3597 47.9269 2.34375 48.0909 2.34375C48.5877 2.33008 49.032 2.34603 49.424 2.3916C49.424 2.43717 49.4308 2.5306 49.4445 2.67188C49.4764 3.01367 49.4923 3.29395 49.4923 3.5127C49.4923 3.93197 49.4718 4.28743 49.4308 4.5791H47.1544ZM51.6798 10L50.1964 6.3291H51.0577L51.0782 6.19238C51.1284 5.97363 51.174 5.72526 51.215 5.44727C51.3107 4.80924 51.3585 4.19857 51.3585 3.61523C51.3585 3.06836 51.3335 2.52148 51.2833 1.97461C51.2332 1.46875 51.1648 1.03353 51.0782 0.668945L51.0577 0.566406L51.0236 0.55957L50.962 0.539062C50.9712 0.539062 50.8823 0.525391 50.6954 0.498047C50.4767 0.466146 50.2534 0.436523 50.0255 0.40918C49.2872 0.327148 48.6287 0.29069 48.0499 0.299805C47.535 0.304362 46.9083 0.345378 46.17 0.422852C45.9559 0.445638 45.7986 0.463867 45.6984 0.477539C45.0649 0.555013 44.7755 0.59375 44.8302 0.59375L44.4747 0.655273L44.7618 0.880859C44.9851 1.06315 45.1333 1.25684 45.2062 1.46191C45.2517 1.58952 45.2745 1.71484 45.2745 1.83789V10H47.1407V6.3291H48.1593C48.1866 6.40202 48.2823 6.6276 48.4464 7.00586C48.6241 7.41602 48.7677 7.76009 48.8771 8.03809C48.9545 8.23405 49.0252 8.41634 49.089 8.58496C49.1619 8.78548 49.2212 8.94954 49.2667 9.07715C49.2895 9.15007 49.3055 9.2321 49.3146 9.32324C49.3146 9.3278 49.3146 9.33236 49.3146 9.33691C49.3191 9.34603 49.3214 9.35286 49.3214 9.35742C49.326 9.48047 49.3009 9.58757 49.2462 9.67871C49.2371 9.69694 49.2257 9.71061 49.212 9.71973L48.9728 10H51.6798ZM59.6505 0.299805L58.2697 9.74707C57.9142 9.91569 57.3491 10 56.5743 10C55.7996 10 55.2459 9.9043 54.9132 9.71289L53.5255 1.4209C53.5164 1.111 53.3956 0.860352 53.1632 0.668945L52.7052 0.299805H55.4327L56.5812 7.16992L57.7228 0.299805H59.6505ZM63.2941 1.33203C63.2804 1.1224 63.326 0.949219 63.4308 0.8125C63.4991 0.721354 63.5789 0.632487 63.67 0.545898L63.9777 0.258789H60.6759L61.0109 0.552734C61.2706 0.776042 61.396 1.03809 61.3868 1.33887V8.92676C61.4005 9.11816 61.3527 9.29362 61.2433 9.45312C61.2251 9.48047 61.1726 9.53743 61.0861 9.62402C61.0359 9.6696 61.004 9.7015 60.9904 9.71973L60.7238 10H64.0187L63.6632 9.70605C63.4262 9.50553 63.3032 9.24121 63.2941 8.91309V1.33203ZM68.6671 0.258789C67.3774 0.258789 66.2768 0.384115 65.3654 0.634766L65.0509 0.716797L65.297 0.921875C65.5568 1.17708 65.7117 1.37988 65.7618 1.53027C65.7892 1.61686 65.8029 1.71712 65.8029 1.83105C65.7983 1.92676 65.7937 1.97461 65.7892 1.97461C65.5021 2.77669 65.3585 3.82715 65.3585 5.12598C65.3585 7.21777 65.6684 8.76497 66.2882 9.76758L66.3292 9.83594L66.4044 9.84277C67.2156 9.94759 67.9698 10 68.6671 10C69.5877 10 70.5493 9.90885 71.5519 9.72656L71.6886 9.70605V7.25195L71.4288 7.42285C71.1964 7.57324 70.907 7.71224 70.5607 7.83984C70.1733 7.97201 69.6606 8.05632 69.0226 8.09277C68.3527 8.12012 67.8673 8.11328 67.5665 8.07227C67.3113 7.24284 67.1837 6.26074 67.1837 5.12598C67.1837 3.99577 67.3113 3.01823 67.5665 2.19336C67.8947 2.14779 68.38 2.14095 69.0226 2.17285C69.6241 2.19564 70.1368 2.28223 70.5607 2.43262C70.8751 2.53743 71.1645 2.67643 71.4288 2.84961L71.6886 3.01367V0.545898L71.4152 0.504883C70.3396 0.34082 69.4236 0.258789 68.6671 0.258789ZM79.1056 4.0459C79.0509 4.0778 78.9825 4.09831 78.9005 4.10742H75.1681V2.21387L75.2023 2.20703C75.5577 2.15234 76.075 2.14095 76.754 2.17285C77.3875 2.20931 77.9047 2.29362 78.3058 2.42578C78.6749 2.56706 78.9598 2.70605 79.1603 2.84277L79.4269 3.02734V0.552734L79.2902 0.525391C78.3331 0.347656 77.3693 0.258789 76.3986 0.258789C75.1225 0.258789 74.0037 0.381836 73.0421 0.62793L72.7208 0.716797L72.9738 0.921875C73.2153 1.1224 73.3361 1.38216 73.3361 1.70117V8.57129C73.3361 8.86751 73.213 9.12728 72.9669 9.35059L72.7277 9.56934L73.0421 9.6377C74.104 9.87923 75.2228 10 76.3986 10C77.3647 10 78.3263 9.90885 79.2833 9.72656L79.4269 9.70605V7.22461L79.1603 7.40918C78.9643 7.55046 78.6749 7.68945 78.2921 7.82617C77.8683 7.97656 77.3556 8.06315 76.754 8.08594C76.0704 8.11784 75.5486 8.10417 75.1886 8.04492L75.1681 6.03516H78.9347C78.9894 6.03516 79.0395 6.04427 79.0851 6.0625C79.1307 6.08073 79.1489 6.08984 79.1398 6.08984L79.4269 6.37012V4.14844L79.4406 3.75195L79.1603 4.01172L79.1056 4.0459ZM87.9376 9.52832L87.5548 9.62402C86.5021 9.87467 85.3787 10 84.1847 10C83.1456 10 82.1863 9.89974 81.3068 9.69922L81.1495 9.67188V7.00586C81.5141 7.35221 81.9266 7.59603 82.3868 7.7373C82.8562 7.88314 83.337 7.96517 83.8292 7.9834C84.4171 8.0153 84.9275 8.00846 85.3605 7.96289V7.06055L81.5597 4.49707C81.2863 4.33301 81.1495 4.05273 81.1495 3.65625C81.1587 2.39388 81.1632 1.76725 81.1632 1.77637C81.1541 1.46647 81.0288 1.2181 80.7872 1.03125L80.4728 0.771484L80.8624 0.668945C81.9288 0.422852 83.0226 0.299805 84.1437 0.299805C84.7589 0.299805 85.4288 0.347656 86.1534 0.443359C86.3676 0.470703 86.5887 0.504883 86.8165 0.545898C86.9988 0.573242 87.09 0.586914 87.09 0.586914L87.2404 0.62793V3.29395L86.9327 3.02051C86.7641 2.87012 86.4565 2.71745 86.0099 2.5625C85.6544 2.42578 85.1508 2.33919 84.4991 2.30273C83.8338 2.27539 83.3484 2.28678 83.0431 2.33691V3.2666L86.9464 5.87109C87.1424 5.9668 87.2404 6.16732 87.2404 6.47266L87.2472 8.52344C87.2609 8.82878 87.3839 9.07715 87.6163 9.26855L87.9376 9.52832Z" fill="black"/>
</svg>
