<svg width="69" height="12" viewBox="0 0 69 12" fill="none" xmlns="http://www.w3.org/2000/svg">
<path d="M3.0625 5.80469V3.30469C3.58854 3.26823 3.94531 3.25 4.13281 3.25C4.70052 3.23438 5.20833 3.2526 5.65625 3.30469C5.65625 3.35677 5.66406 3.46354 5.67969 3.625C5.71615 4.01562 5.73438 4.33594 5.73438 4.58594C5.73438 5.0651 5.71094 5.47135 5.66406 5.80469H3.0625ZM8.23438 12L6.53906 7.80469H7.52344L7.54688 7.64844C7.60417 7.39844 7.65625 7.11458 7.70312 6.79688C7.8125 6.06771 7.86719 5.36979 7.86719 4.70312C7.86719 4.07812 7.83854 3.45312 7.78125 2.82812C7.72396 2.25 7.64583 1.7526 7.54688 1.33594L7.52344 1.21875L7.48438 1.21094L7.41406 1.1875C7.42448 1.1875 7.32292 1.17188 7.10938 1.14062C6.85938 1.10417 6.60417 1.07031 6.34375 1.03906C5.5 0.945312 4.7474 0.903646 4.08594 0.914062C3.4974 0.919271 2.78125 0.966146 1.9375 1.05469C1.69271 1.08073 1.51302 1.10156 1.39844 1.11719C0.674479 1.20573 0.34375 1.25 0.40625 1.25L0 1.32031L0.328125 1.57812C0.583333 1.78646 0.752604 2.00781 0.835938 2.24219C0.888021 2.38802 0.914062 2.53125 0.914062 2.67188V12H3.04688V7.80469H4.21094C4.24219 7.88802 4.35156 8.14583 4.53906 8.57812C4.74219 9.04688 4.90625 9.4401 5.03125 9.75781C5.11979 9.98177 5.20052 10.1901 5.27344 10.3828C5.35677 10.612 5.42448 10.7995 5.47656 10.9453C5.5026 11.0286 5.52083 11.1224 5.53125 11.2266C5.53125 11.2318 5.53125 11.237 5.53125 11.2422C5.53646 11.2526 5.53906 11.2604 5.53906 11.2656C5.54427 11.4062 5.51562 11.5286 5.45312 11.6328C5.44271 11.6536 5.42969 11.6693 5.41406 11.6797L5.14062 12H8.23438ZM16.7031 5.19531C16.6406 5.23177 16.5625 5.25521 16.4688 5.26562H12.2031V3.10156L12.2422 3.09375C12.6484 3.03125 13.2396 3.01823 14.0156 3.05469C14.7396 3.09635 15.3307 3.19271 15.7891 3.34375C16.2109 3.50521 16.5365 3.66406 16.7656 3.82031L17.0703 4.03125V1.20312L16.9141 1.17188C15.8203 0.96875 14.7188 0.867188 13.6094 0.867188C12.151 0.867188 10.8724 1.00781 9.77344 1.28906L9.40625 1.39062L9.69531 1.625C9.97135 1.85417 10.1094 2.15104 10.1094 2.51562V10.3672C10.1094 10.7057 9.96875 11.0026 9.6875 11.2578L9.41406 11.5078L9.77344 11.5859C10.987 11.862 12.2656 12 13.6094 12C14.7135 12 15.8125 11.8958 16.9062 11.6875L17.0703 11.6641V8.82812L16.7656 9.03906C16.5417 9.20052 16.2109 9.35938 15.7734 9.51562C15.2891 9.6875 14.7031 9.78646 14.0156 9.8125C13.2344 9.84896 12.638 9.83333 12.2266 9.76562L12.2031 7.46875H16.5078C16.5703 7.46875 16.6276 7.47917 16.6797 7.5C16.7318 7.52083 16.7526 7.53125 16.7422 7.53125L17.0703 7.85156V5.3125L17.0859 4.85938L16.7656 5.15625L16.7031 5.19531ZM23.4844 6.57031C23.7708 6.79948 23.9089 7.09115 23.8984 7.44531V9.72656C23.6068 9.77865 23.276 9.8099 22.9062 9.82031C22.151 9.85677 21.5885 9.84896 21.2188 9.79688C20.9115 8.85938 20.7578 7.73698 20.7578 6.42969C20.7578 5.14323 20.9115 4.02344 21.2188 3.07031C21.5833 3.01823 22.1458 3.01042 22.9062 3.04688C23.6771 3.08854 24.2812 3.1875 24.7188 3.34375C25.1719 3.51042 25.5052 3.66927 25.7188 3.82031L26.0234 4.03906V1.19531L25.8672 1.16406C24.7057 0.966146 23.5833 0.867188 22.5 0.867188C21.0156 0.867188 19.7266 1.00521 18.6328 1.28125L18.2656 1.38281L18.5625 1.61719C18.8385 1.84115 19.0208 2.07812 19.1094 2.32812C19.1354 2.42188 19.151 2.53385 19.1562 2.66406C19.1562 2.77344 19.1536 2.82812 19.1484 2.82812C18.7995 3.75 18.625 4.95052 18.625 6.42969C18.625 8.73177 18.9844 10.4948 19.7031 11.7188L19.7422 11.7969L19.8359 11.8125C20.6693 11.9375 21.5573 12 22.5 12C23.6146 12 24.737 11.8984 25.8672 11.6953L26.0234 11.6719L26.0078 7.4375C26.0026 7.20833 26.0599 7.00781 26.1797 6.83594C26.2161 6.78385 26.3021 6.6901 26.4375 6.55469L26.7812 6.22656H23.0625L23.4844 6.57031ZM30.9453 2.09375C30.9297 1.85417 30.9818 1.65625 31.1016 1.5C31.1797 1.39583 31.2708 1.29427 31.375 1.19531L31.7266 0.867188H27.9531L28.3359 1.20312C28.6328 1.45833 28.776 1.75781 28.7656 2.10156V10.7734C28.7812 10.9922 28.7266 11.1927 28.6016 11.375C28.5807 11.4062 28.5208 11.4714 28.4219 11.5703C28.3646 11.6224 28.3281 11.6589 28.3125 11.6797L28.0078 12H31.7734L31.3672 11.6641C31.0964 11.4349 30.9557 11.1328 30.9453 10.7578V2.09375ZM41.4844 11.4609L41.0469 11.5703C39.8438 11.8568 38.5599 12 37.1953 12C36.0078 12 34.9115 11.8854 33.9062 11.6562L33.7266 11.625V8.57812C34.1432 8.97396 34.6146 9.2526 35.1406 9.41406C35.6771 9.58073 36.2266 9.67448 36.7891 9.69531C37.4609 9.73177 38.0443 9.72396 38.5391 9.67188V8.64062L34.1953 5.71094C33.8828 5.52344 33.7266 5.20312 33.7266 4.75C33.737 3.30729 33.7422 2.59115 33.7422 2.60156C33.7318 2.2474 33.5885 1.96354 33.3125 1.75L32.9531 1.45312L33.3984 1.33594C34.6172 1.05469 35.8672 0.914062 37.1484 0.914062C37.8516 0.914062 38.6172 0.96875 39.4453 1.07812C39.6901 1.10938 39.9427 1.14844 40.2031 1.19531C40.4115 1.22656 40.5156 1.24219 40.5156 1.24219L40.6875 1.28906V4.33594L40.3359 4.02344C40.1432 3.85156 39.7917 3.67708 39.2812 3.5C38.875 3.34375 38.2995 3.24479 37.5547 3.20312C36.7943 3.17188 36.2396 3.1849 35.8906 3.24219V4.30469L40.3516 7.28125C40.5755 7.39062 40.6875 7.61979 40.6875 7.96875L40.6953 10.3125C40.7109 10.6615 40.8516 10.9453 41.1172 11.1641L41.4844 11.4609ZM42.6562 0.914062H50.7188V3.09375H47.7969V10.7031C47.8125 11.1094 47.9688 11.4297 48.2656 11.6641L48.6797 12H44.7891L45.1328 11.6797C45.4453 11.3828 45.6068 11.0573 45.6172 10.7031V3.09375H42.6562V0.914062ZM59.1875 5.19531C59.125 5.23177 59.0469 5.25521 58.9531 5.26562H54.6875V3.10156L54.7266 3.09375C55.1328 3.03125 55.724 3.01823 56.5 3.05469C57.224 3.09635 57.8151 3.19271 58.2734 3.34375C58.6953 3.50521 59.0208 3.66406 59.25 3.82031L59.5547 4.03125V1.20312L59.3984 1.17188C58.3047 0.96875 57.2031 0.867188 56.0938 0.867188C54.6354 0.867188 53.3568 1.00781 52.2578 1.28906L51.8906 1.39062L52.1797 1.625C52.4557 1.85417 52.5938 2.15104 52.5938 2.51562V10.3672C52.5938 10.7057 52.4531 11.0026 52.1719 11.2578L51.8984 11.5078L52.2578 11.5859C53.4714 11.862 54.75 12 56.0938 12C57.1979 12 58.2969 11.8958 59.3906 11.6875L59.5547 11.6641V8.82812L59.25 9.03906C59.026 9.20052 58.6953 9.35938 58.2578 9.51562C57.7734 9.6875 57.1875 9.78646 56.5 9.8125C55.7188 9.84896 55.1224 9.83333 54.7109 9.76562L54.6875 7.46875H58.9922C59.0547 7.46875 59.112 7.47917 59.1641 7.5C59.2161 7.52083 59.237 7.53125 59.2266 7.53125L59.5547 7.85156V5.3125L59.5703 4.85938L59.25 5.15625L59.1875 5.19531ZM63.8125 5.80469V3.30469C64.3385 3.26823 64.6953 3.25 64.8828 3.25C65.4505 3.23438 65.9583 3.2526 66.4062 3.30469C66.4062 3.35677 66.4141 3.46354 66.4297 3.625C66.4661 4.01562 66.4844 4.33594 66.4844 4.58594C66.4844 5.0651 66.4609 5.47135 66.4141 5.80469H63.8125ZM68.9844 12L67.2891 7.80469H68.2734L68.2969 7.64844C68.3542 7.39844 68.4062 7.11458 68.4531 6.79688C68.5625 6.06771 68.6172 5.36979 68.6172 4.70312C68.6172 4.07812 68.5885 3.45312 68.5312 2.82812C68.474 2.25 68.3958 1.7526 68.2969 1.33594L68.2734 1.21875L68.2344 1.21094L68.1641 1.1875C68.1745 1.1875 68.0729 1.17188 67.8594 1.14062C67.6094 1.10417 67.3542 1.07031 67.0938 1.03906C66.25 0.945312 65.4974 0.903646 64.8359 0.914062C64.2474 0.919271 63.5312 0.966146 62.6875 1.05469C62.4427 1.08073 62.263 1.10156 62.1484 1.11719C61.4245 1.20573 61.0938 1.25 61.1562 1.25L60.75 1.32031L61.0781 1.57812C61.3333 1.78646 61.5026 2.00781 61.5859 2.24219C61.638 2.38802 61.6641 2.53125 61.6641 2.67188V12H63.7969V7.80469H64.9609C64.9922 7.88802 65.1016 8.14583 65.2891 8.57812C65.4922 9.04688 65.6562 9.4401 65.7812 9.75781C65.8698 9.98177 65.9505 10.1901 66.0234 10.3828C66.1068 10.612 66.1745 10.7995 66.2266 10.9453C66.2526 11.0286 66.2708 11.1224 66.2812 11.2266C66.2812 11.2318 66.2812 11.237 66.2812 11.2422C66.2865 11.2526 66.2891 11.2604 66.2891 11.2656C66.2943 11.4062 66.2656 11.5286 66.2031 11.6328C66.1927 11.6536 66.1797 11.6693 66.1641 11.6797L65.8906 12H68.9844Z" fill="#124C5F"/>
</svg>
