<svg width="400" height="31" viewBox="0 0 400 31" fill="none" xmlns="http://www.w3.org/2000/svg">
<path d="M6.25 2.26562H6.01562L5.76172 2.28516L5.50781 2.32422L5.23438 2.36328L4.96094 2.42188L4.6875 2.48047L4.41406 2.53906L4.14062 2.61719L3.86719 2.71484L3.59375 2.8125L3.32031 2.91016L3.04688 3.04688L2.79297 3.16406L2.53906 3.30078L2.28516 3.4375L2.05078 3.59375L1.83594 3.75L1.60156 3.92578L1.38672 4.10156L1.21094 4.27734L1.03516 4.47266L0.859375 4.64844L0.703125 4.86328L0.566406 5.05859L0.449219 5.27344L0.332031 5.48828L0.253906 5.70312L0.175781 5.91797L0.0976562 6.17188L0.0585938 6.40625L0.0390625 6.66016L0.0195312 6.93359V11.543H5.03906V7.83203L5.01953 7.71484V7.61719V7.51953V7.28516V7.1875L5.03906 7.07031V6.93359L5.05859 6.81641L5.07812 6.69922L5.09766 6.5625L5.13672 6.42578L5.17578 6.26953L5.23438 6.13281L5.3125 5.97656L5.41016 5.83984L5.52734 5.68359L5.66406 5.56641L5.80078 5.44922L5.9375 5.35156L6.09375 5.25391L6.25 5.19531L6.40625 5.13672L6.5625 5.07812L6.71875 5.03906L6.875 5.01953L7.03125 5L7.1875 4.98047H7.36328H8.96484H9.14062L9.31641 5L9.51172 5.01953L9.6875 5.05859L9.88281 5.11719L10.0586 5.17578L10.2344 5.27344L10.4102 5.37109L10.5664 5.48828L10.7227 5.64453L10.8594 5.80078L10.9766 5.97656L11.0742 6.17188L11.1523 6.36719L11.1914 6.58203L11.2109 6.77734V8.32031V8.4375V8.57422L11.1914 8.71094V8.84766L11.1719 8.96484L11.1523 9.10156L11.1328 9.21875L11.1133 9.33594L11.0938 9.45312L11.0547 9.57031L11.0352 9.6875L10.9961 9.78516L10.9766 9.90234L10.9375 10L10.918 10.1172L10.8789 10.1953L10.8398 10.293L10.8203 10.3711L10.7812 10.4688L10.7422 10.5469L10.7227 10.625L10.7031 10.6836L10.6641 10.7617L10.625 10.8398L10.6055 10.8789L10.5859 10.9375L10.5664 10.9961L10.5469 11.0352L10.5273 11.0742L10.5078 11.1133V11.1328L10.4883 11.1523L10.332 11.4844L10.1758 11.8164L9.98047 12.1289L9.78516 12.4414L9.58984 12.7344L9.35547 13.0273L9.14062 13.3008L8.90625 13.5547L8.65234 13.8086L8.41797 14.0625L8.16406 14.2969L7.91016 14.5312L7.65625 14.7656L7.38281 14.9805L7.12891 15.1953L6.85547 15.4102L6.58203 15.625L6.32812 15.8203L6.05469 16.0352L5.80078 16.2305L5.54688 16.4453L5.29297 16.6406L5.03906 16.8555L4.78516 17.0508L4.55078 17.2656L4.31641 17.4609L4.08203 17.6758L3.84766 17.8906L3.63281 18.1055L3.41797 18.3203L3.22266 18.5352L3.02734 18.7695L2.87109 18.9648L2.71484 19.1797L2.53906 19.375L2.40234 19.5898L2.24609 19.7852L2.08984 20L1.95312 20.2148L1.79688 20.4102L1.66016 20.625L1.54297 20.8398L1.40625 21.0352L1.28906 21.25L1.17188 21.4648L1.05469 21.6602L0.9375 21.875L0.839844 22.0898L0.742188 22.2852L0.644531 22.5L0.566406 22.7148L0.488281 22.9297L0.410156 23.1445L0.332031 23.3398L0.273438 23.5547L0.214844 23.7695L0.175781 23.9648L0.117188 24.1797L0.078125 24.3945L0.0585938 24.6094L0.0390625 24.8047L0.0195312 25.0195L0 25.2148V25.4297L0.0195312 30H16.4648V22.3242H11.25V27.207H5.27344L5.48828 25.1367L5.625 24.3359L5.83984 23.5938L6.09375 22.8711L6.40625 22.1875L6.77734 21.543L7.16797 20.9375L7.59766 20.3516L8.04688 19.7852L8.51562 19.2578L9.00391 18.75L9.51172 18.2812L10.0195 17.793L10.5469 17.3438L11.0547 16.8945L11.5625 16.4453L12.0703 16.0156L12.5781 15.5859L13.0469 15.1562L13.5156 14.7266L13.9648 14.2969L14.375 13.8672L14.7656 13.4375L15.1172 12.9883L15.4297 12.5391L15.7227 12.0703L15.957 11.6016L16.1719 11.1328L16.3281 10.625L16.4453 10.0977L16.5234 9.55078L16.5625 8.94531V6.66016L16.543 6.42578L16.5234 6.21094L16.4648 5.99609L16.4062 5.78125L16.3477 5.58594L16.25 5.37109L16.1328 5.17578L16.0156 4.98047L15.8789 4.78516L15.7227 4.58984L15.5469 4.41406L15.3516 4.21875L15.1562 4.04297L14.9414 3.86719L14.707 3.71094L14.4531 3.55469L14.2188 3.39844L13.9453 3.24219L13.6719 3.10547L13.3789 2.98828L13.1055 2.87109L12.8125 2.75391L12.5 2.65625L12.1875 2.57812L11.8945 2.5L11.582 2.44141L11.2695 2.38281L10.957 2.32422L10.6641 2.28516L10.3516 2.26562H10.0391H6.25ZM19.9023 2.26562V17.3438H24.6484H28.3984H28.457H28.5742H28.6328H28.8281H28.8867H28.9453L29.0039 17.3633H29.082L29.1602 17.3828H29.2188L29.2969 17.4023L29.375 17.4219L29.4531 17.4414L29.5312 17.4805L29.6094 17.5L29.6875 17.5391L29.7461 17.5781L29.8242 17.5977L29.9023 17.6562L30 17.7148L30.1172 17.8125L30.2344 17.9297L30.3516 18.0469L30.4297 18.1641L30.4883 18.2812L30.5469 18.3984L30.5859 18.5156L30.625 18.6133L30.6445 18.7109L30.6836 18.8086L30.7031 18.9062V19.0039L30.7227 19.082V19.1797L30.7422 19.2773V19.3555L30.7617 19.4531V19.5508V19.7461V19.8242V22.9688V23.1445V23.3398V23.5352L30.7422 23.7305V23.9062V24.082L30.7227 24.2773V24.4531L30.7031 24.6094L30.6836 24.7852L30.6641 24.9609L30.6445 25.1172L30.625 25.2734L30.6055 25.4102L30.5664 25.5664L30.5469 25.7227L30.4883 25.8789L30.4297 26.0547L30.3125 26.2695L30.1562 26.4453L30.0781 26.5234L30.0391 26.5625L30 26.6016L29.9609 26.6406L29.9219 26.6797L29.8633 26.7188L29.8242 26.7578L29.7656 26.7969L29.707 26.8555L29.6289 26.8945L29.5703 26.9336L29.4922 26.9727L29.4141 27.0117L29.3359 27.0508L29.2578 27.0703L29.1797 27.0898L29.1016 27.1094L29.0234 27.1289L28.9453 27.1484L28.8672 27.168H28.8086L28.7305 27.1875H28.6719H28.5938L28.5156 27.207H28.457H28.3008H28.2227H27.9297H27.8906H27.4609H27.4219H27.3047H27.207L27.0898 27.1875L26.9727 27.168L26.8555 27.1484L26.7383 27.1289L26.6211 27.1094L26.4844 27.0703L26.3672 27.0312L26.25 26.9727L26.1133 26.9141L25.9961 26.8359L25.8789 26.7773L25.7617 26.6797L25.6445 26.582L25.5078 26.4453L25.3516 26.2305L25.2539 26.0156L25.1953 25.8398L25.1562 25.7031L25.1172 25.5664L25.0977 25.4102L25.0781 25.2734L25.0586 25.1172L25.0391 24.9609V24.8047L25.0195 24.6484V24.4727L25 24.2969V24.1016L24.9805 23.9258V23.75V23.5547L24.9609 23.3594V23.1641V22.9688V22.7734V22.4023V22.207V22.1094H19.5508V25.9375L19.4922 26.1328V26.3086L19.5312 26.6016L19.5703 26.875L19.6484 27.1289L19.7266 27.3633L19.8242 27.5781L19.9414 27.793L20.0781 27.9688L20.2148 28.1641L20.3906 28.3398L20.5469 28.4961L20.7422 28.6523L20.9375 28.7891L21.1719 28.9258L21.3867 29.0625L21.6211 29.1797L21.875 29.2969L22.1289 29.3945L22.3828 29.4922L22.6367 29.5703L22.9102 29.6484L23.1836 29.707L23.4375 29.7656L23.7109 29.8242L23.9648 29.8633L24.1992 29.9023L24.4531 29.9219L24.668 29.9609L24.8828 29.9805H25.0977L25.2734 30H25.4492H29.8438L30.0977 29.9805H30.3711L30.6445 29.9609L30.918 29.9414L31.2109 29.9023L31.4844 29.8633L31.7773 29.8242L32.0508 29.7656L32.3438 29.707L32.6172 29.6289L32.8906 29.5508L33.1641 29.4727L33.418 29.375L33.6719 29.2578L33.9258 29.1406L34.1602 29.0234L34.375 28.8867L34.5898 28.75L34.7852 28.6133L34.9805 28.457L35.1367 28.2812L35.293 28.1055L35.4492 27.9297L35.5664 27.7344L35.6836 27.5195L35.7812 27.3047L35.8594 27.0703L35.9375 26.8164L35.9961 26.543L36.0352 26.25V25.918L36.0547 20.8984V20.8789L36.0352 17.4414V17.1875L36.0156 16.9531L35.9961 16.7188L35.957 16.5039L35.918 16.3086L35.8789 16.1328L35.8203 15.957L35.7617 15.8203L35.6836 15.6641L35.6055 15.5273L35.5078 15.3906L35.4102 15.2734L35.3125 15.1562L35.1953 15.0391L35.0391 14.9219L34.9023 14.8242L34.7266 14.7266L34.5508 14.6289L34.3555 14.5312L34.1211 14.4336L33.8867 14.3555L33.6133 14.2773L33.3398 14.1992L33.0469 14.1406L32.7148 14.0625L32.3633 14.0234L32.0117 13.9844L31.6211 13.9453L31.2109 13.9258L30.7812 13.8867H30.3516L29.8633 13.8672H25.0586L25.0781 4.98047H35.625V2.26562H19.9023ZM55.18 16.12C53.3667 16.12 51.9133 15.6533 50.82 14.72C49.7267 13.76 49.1267 12.48 49.02 10.88C48.9667 10.08 48.94 9.52 48.94 9.2C48.94 8.88 48.9667 8.18667 49.02 7.12C49.1 5.49333 49.6733 4.2 50.74 3.24C51.8067 2.28 53.2867 1.8 55.18 1.8C57.0467 1.8 58.5133 2.28 59.58 3.24C60.6467 4.2 61.22 5.49333 61.3 7.12C61.3533 8.18667 61.38 8.88 61.38 9.2C61.38 9.52 61.3533 10.08 61.3 10.88C61.1933 12.48 60.5933 13.76 59.5 14.72C58.4067 15.6533 56.9667 16.12 55.18 16.12ZM51.98 30C51.7133 30 51.4867 29.9333 51.3 29.8C51.14 29.64 51.06 29.44 51.06 29.2C51.06 29.04 51.1133 28.8933 51.22 28.76L70.98 2.76C71.1933 2.49333 71.3933 2.30666 71.58 2.2C71.7667 2.06666 72.0333 2 72.38 2H75.22C75.4867 2 75.7 2.08 75.86 2.24C76.0467 2.37333 76.14 2.56 76.14 2.8C76.14 2.96 76.0867 3.10667 75.98 3.24L56.22 29.24C56.0067 29.5067 55.8067 29.7067 55.62 29.84C55.4333 29.9467 55.1667 30 54.82 30H51.98ZM55.18 12.64C56.3 12.64 56.9133 11.9867 57.02 10.68C57.0733 9.82667 57.1 9.26666 57.1 9C57.1 8.65333 57.0733 8.10666 57.02 7.36C56.9933 6.77333 56.82 6.29333 56.5 5.92C56.2067 5.54666 55.7667 5.36 55.18 5.36C54.5667 5.36 54.1133 5.54666 53.82 5.92C53.5267 6.29333 53.3533 6.77333 53.3 7.36C53.2733 7.73333 53.26 8.28 53.26 9C53.26 9.69333 53.2733 10.2533 53.3 10.68C53.4067 11.9867 54.0333 12.64 55.18 12.64ZM72.1 30.2C70.2867 30.2 68.8333 29.7333 67.74 28.8C66.6733 27.84 66.0733 26.5467 65.94 24.92C65.9133 24.4667 65.9 23.8533 65.9 23.08C65.9 22.28 65.9133 21.64 65.94 21.16C66.0467 19.5067 66.62 18.2 67.66 17.24C68.7267 16.28 70.2067 15.8 72.1 15.8C73.9933 15.8 75.46 16.28 76.5 17.24C77.5667 18.2 78.1533 19.5067 78.26 21.16C78.3133 22.2267 78.34 22.92 78.34 23.24C78.34 23.56 78.3133 24.12 78.26 24.92C78.1533 26.52 77.5533 27.8 76.46 28.76C75.3667 29.72 73.9133 30.2 72.1 30.2ZM72.1 26.68C72.7133 26.68 73.1667 26.4933 73.46 26.12C73.7533 25.72 73.9267 25.24 73.98 24.68C74.0333 23.88 74.06 23.32 74.06 23C74.06 22.6533 74.0333 22.1067 73.98 21.36C73.9267 20.8 73.7533 20.3333 73.46 19.96C73.1667 19.56 72.7133 19.36 72.1 19.36C71.4867 19.36 71.0333 19.56 70.74 19.96C70.4467 20.3333 70.2867 20.8 70.26 21.36C70.2333 21.7333 70.22 22.28 70.22 23C70.22 23.72 70.2333 24.28 70.26 24.68C70.3133 25.2667 70.4733 25.7467 70.74 26.12C71.0333 26.4933 71.4867 26.68 72.1 26.68ZM103.34 24.1406C102.819 24.2318 101.719 24.2773 100.039 24.2773C98.3594 24.2773 97.2396 24.2318 96.6797 24.1406L96.7188 8.10547L100.039 7.98828C101.263 7.96224 102.363 8.0013 103.34 8.10547V24.1406ZM110.371 28.6133C110.098 28.5482 109.824 28.3724 109.551 28.0859C109.017 27.5 108.743 26.6471 108.73 25.5273L108.711 4.66797V3.16406L108.32 3.06641C106.576 2.49349 103.815 2.20703 100.039 2.20703C97.9948 2.20703 95.8138 2.38281 93.4961 2.73438C92.7799 2.85156 92.0898 2.97526 91.4258 3.10547C90.8659 3.22266 90.599 3.28125 90.625 3.28125L89.6875 3.49609C89.7135 3.52214 89.7396 3.54818 89.7656 3.57422L89.6875 3.59375C90.7812 4.375 91.3346 5.41016 91.3477 6.69922V29.043L91.6992 29.1406C93.9648 29.7135 96.7448 30 100.039 30C102.07 30 104.245 29.8177 106.562 29.4531C107.279 29.349 107.969 29.2318 108.633 29.1016C109.193 28.9844 109.46 28.9258 109.434 28.9258L110.371 28.7109C110.332 28.6979 110.286 28.6784 110.234 28.6523L110.371 28.6133ZM124.316 2.16797C120.645 2.16797 117.305 2.48047 114.297 3.10547L113.398 3.30078L114.062 3.92578C114.74 4.5638 115.091 5.36458 115.117 6.32812V26.9922C115.117 27.8125 114.798 28.5417 114.16 29.1797L113.32 30H122.148L121.406 29.1992C120.768 28.5091 120.462 27.7734 120.488 26.9922V18.75C128.145 18.763 131.771 18.7695 131.367 18.7695L131.602 18.75C131.784 18.7891 131.986 18.8542 132.207 18.9453L132.891 19.2578V12.5977L132.188 12.9688C131.992 13.0729 131.751 13.138 131.465 13.1641H120.488V7.75391L120.547 7.73438C120.56 7.73438 120.638 7.72786 120.781 7.71484C121.992 7.63672 123.079 7.59766 124.043 7.59766C126.374 7.59766 128.288 7.8776 129.785 8.4375C130.97 8.88021 131.732 9.24479 132.07 9.53125L132.891 10.2734V2.96875L132.48 2.89062C129.824 2.40885 127.103 2.16797 124.316 2.16797ZM146.816 2.16797C143.145 2.16797 139.805 2.48047 136.797 3.10547L135.898 3.30078L136.562 3.92578C137.24 4.5638 137.591 5.36458 137.617 6.32812V26.9922C137.617 27.8125 137.298 28.5417 136.66 29.1797L135.82 30H144.648L143.906 29.1992C143.268 28.5091 142.962 27.7734 142.988 26.9922V18.75C150.645 18.763 154.271 18.7695 153.867 18.7695L154.102 18.75C154.284 18.7891 154.486 18.8542 154.707 18.9453L155.391 19.2578V12.5977L154.688 12.9688C154.492 13.0729 154.251 13.138 153.965 13.1641H142.988V7.75391L143.047 7.73438C143.06 7.73438 143.138 7.72786 143.281 7.71484C144.492 7.63672 145.579 7.59766 146.543 7.59766C148.874 7.59766 150.788 7.8776 152.285 8.4375C153.47 8.88021 154.232 9.24479 154.57 9.53125L155.391 10.2734V2.96875L154.98 2.89062C152.324 2.40885 149.603 2.16797 146.816 2.16797ZM182.852 20.625H178.027L180.332 9.66797L182.852 20.625ZM174.18 2.16797L174.727 2.92969C175.417 3.86719 175.658 4.85026 175.449 5.87891C173.9 14.5247 172.266 21.7448 170.547 27.5391C170.365 28.1901 169.987 28.724 169.414 29.1406L168.242 30H175.586L176.543 25.9766H183.848L184.512 30H190.742L184.609 2.16797H174.18ZM210.254 23.6914C209.017 24.1341 207.493 24.388 205.684 24.4531C204.069 24.5312 202.5 24.4987 200.977 24.3555L200.957 5.23438C200.957 4.3099 201.309 3.57422 202.012 3.02734L203.105 2.16797H193.672L194.609 3.00781C195.286 3.60677 195.625 4.35547 195.625 5.25391C195.651 5.8138 195.651 12.5195 195.625 25.3711V25.8594C195.625 26.7448 195.267 27.5 194.551 28.125L193.828 28.7305L194.766 28.9453C197.878 29.6484 201.165 30 204.629 30C207.363 30 210.26 29.7135 213.32 29.1406L213.73 29.0625V21.8359L212.949 22.3828C212.324 22.8516 211.426 23.2878 210.254 23.6914ZM233.262 23.6914C232.025 24.1341 230.501 24.388 228.691 24.4531C227.077 24.5312 225.508 24.4987 223.984 24.3555L223.965 5.23438C223.965 4.3099 224.316 3.57422 225.02 3.02734L226.113 2.16797H216.68L217.617 3.00781C218.294 3.60677 218.633 4.35547 218.633 5.25391C218.659 5.8138 218.659 12.5195 218.633 25.3711V25.8594C218.633 26.7448 218.275 27.5 217.559 28.125L216.836 28.7305L217.773 28.9453C220.885 29.6484 224.173 30 227.637 30C230.371 30 233.268 29.7135 236.328 29.1406L236.738 29.0625V21.8359L235.957 22.3828C235.332 22.8516 234.434 23.2878 233.262 23.6914ZM268.729 5.04C268.969 5.12 269.143 5.29333 269.249 5.56C269.383 5.82667 269.423 6.08 269.369 6.32C269.716 6.58667 269.876 6.86667 269.849 7.16C269.849 7.64 269.529 8.14667 268.889 8.68C268.969 8.92 269.009 9.16 269.009 9.4C269.009 9.77333 268.916 10.12 268.729 10.44C268.543 10.76 268.316 10.9867 268.049 11.12C267.969 12.08 267.689 12.72 267.209 13.04C267.129 13.3333 266.863 13.6 266.409 13.84C265.956 14.0533 265.543 14.16 265.169 14.16C264.983 14.32 264.649 14.48 264.169 14.64C263.689 14.7733 263.329 14.8 263.089 14.72C262.769 15.1467 262.329 15.36 261.769 15.36C261.556 15.36 261.409 15.3467 261.329 15.32C261.169 15.4 260.956 15.44 260.689 15.44C260.396 15.44 260.076 15.3733 259.729 15.24C259.303 15.5067 258.436 15.64 257.129 15.64C257.236 16.0133 257.289 16.28 257.289 16.44C257.289 16.76 257.183 17.04 256.969 17.28C257.263 17.6533 257.409 18.28 257.409 19.16C257.409 19.8533 257.343 20.3733 257.209 20.72C257.529 21.1467 257.689 21.6933 257.689 22.36C257.689 22.9467 257.556 23.5067 257.289 24.04C257.449 24.2533 257.569 24.56 257.649 24.96C257.729 25.36 257.769 25.7733 257.769 26.2C257.769 26.84 257.689 27.2667 257.529 27.48C257.583 27.8533 257.609 28.1333 257.609 28.32C257.609 29.44 256.996 30 255.769 30C255.209 30 254.783 29.72 254.489 29.16C254.223 28.5733 254.089 27.8933 254.089 27.12C254.089 26.3467 254.196 25.7467 254.409 25.32C254.143 24.84 254.009 24.2533 254.009 23.56C254.009 23.2667 254.036 22.9067 254.089 22.48C253.849 22.16 253.729 21.5067 253.729 20.52C253.729 19.6933 253.809 19.16 253.969 18.92C253.836 18.5733 253.769 18.08 253.769 17.44C253.769 16.8267 253.836 16.3867 253.969 16.12C253.836 15.8 253.769 15.5333 253.769 15.32C253.769 15.1067 253.809 14.9067 253.889 14.72C253.649 14.3467 253.529 13.8933 253.529 13.36C253.529 12.9867 253.583 12.7067 253.689 12.52C253.583 12.28 253.529 12.0267 253.529 11.76C253.529 11.4667 253.583 11.2267 253.689 11.04C253.423 10.64 253.289 10.32 253.289 10.08C253.289 9.81333 253.396 9.53333 253.609 9.24C253.449 8.92 253.369 8.62667 253.369 8.36C253.369 7.93333 253.529 7.58667 253.849 7.32C253.423 6.92 253.209 6.44 253.209 5.88C253.209 5.77333 253.236 5.56 253.289 5.24C252.969 5.02667 252.809 4.62667 252.809 4.04C252.809 3.61333 252.903 3.21333 253.089 2.84C253.276 2.46667 253.503 2.28 253.769 2.28C253.796 1.96 253.956 1.72 254.249 1.56C254.569 1.37333 254.929 1.28 255.329 1.28C255.703 1.28 256.036 1.36 256.329 1.52C256.649 1.65333 256.836 1.84 256.889 2.08C257.423 1.84 257.836 1.72 258.129 1.72C258.289 1.72 258.396 1.74667 258.449 1.8C258.529 1.77333 258.716 1.72 259.009 1.64C259.303 1.53333 259.569 1.48 259.809 1.48C260.156 1.48 260.503 1.58666 260.849 1.8C261.009 1.66667 261.236 1.56 261.529 1.48C261.823 1.4 262.129 1.36 262.449 1.36C262.743 1.36 262.983 1.4 263.169 1.48C263.276 1.45333 263.423 1.44 263.609 1.44C264.009 1.44 264.409 1.54667 264.809 1.76C265.209 1.97333 265.516 2.21333 265.729 2.48C266.209 2.45333 266.583 2.54667 266.849 2.76C267.143 2.94667 267.383 3.30667 267.569 3.84C267.863 3.92 268.143 4.08 268.409 4.32C268.703 4.56 268.809 4.8 268.729 5.04ZM256.729 12.52C256.889 12.3867 257.156 12.32 257.529 12.32C257.983 12.32 258.276 12.3867 258.409 12.52C258.596 12.3333 258.956 12.24 259.489 12.24C260.023 12.24 260.369 12.3333 260.529 12.52C260.716 12.3867 260.996 12.32 261.369 12.32C261.609 12.32 261.796 12.36 261.929 12.44C262.223 12.12 262.543 11.96 262.889 11.96C263.076 11.96 263.223 11.9733 263.329 12C263.383 11.7867 263.676 11.5467 264.209 11.28C264.743 10.9867 265.156 10.88 265.449 10.96C265.449 10.7467 265.529 10.4667 265.689 10.12C265.849 9.77333 266.009 9.54667 266.169 9.44C266.063 9.33333 266.009 9.12 266.009 8.8C266.009 8.42667 266.063 8.01333 266.169 7.56C266.303 7.08 266.436 6.77333 266.569 6.64C265.503 6.05333 264.956 5.50667 264.929 5C264.503 4.92 264.009 4.70667 263.449 4.36C262.703 4.73333 262.076 4.92 261.569 4.92C261.276 4.92 260.863 4.85333 260.329 4.72C259.796 5.06667 259.223 5.24 258.609 5.24C258.236 5.24 257.929 5.16 257.689 5C257.663 5.08 257.476 5.17333 257.129 5.28C256.809 5.38667 256.583 5.42667 256.449 5.4C256.476 5.66667 256.569 6 256.729 6.4C256.916 6.85333 257.009 7.25333 257.009 7.6C257.009 7.94667 256.889 8.28 256.649 8.6C256.756 8.81333 256.809 9.17333 256.809 9.68C256.809 10.1067 256.756 10.4133 256.649 10.6C256.889 10.84 257.009 11.1867 257.009 11.64C257.009 11.9333 256.916 12.2267 256.729 12.52ZM276.298 28.12C276.405 28.7067 276.285 29.1733 275.938 29.52C275.618 29.84 275.218 30 274.738 30C274.312 30 273.938 29.8667 273.618 29.6C273.298 29.3067 273.138 28.9067 273.138 28.4C273.138 28.08 273.218 27.72 273.378 27.32C273.218 26.9467 273.138 26.56 273.138 26.16C273.138 25.84 273.205 25.5733 273.338 25.36C273.178 25.2533 273.058 25.0933 272.978 24.88C272.898 24.6667 272.858 24.4267 272.858 24.16C272.858 23.8933 272.912 23.6 273.018 23.28C272.778 22.9867 272.658 22.64 272.658 22.24C272.658 21.7333 272.845 21.32 273.218 21C273.192 20.92 273.178 20.7867 273.178 20.6C273.178 20.3333 273.205 20.1467 273.258 20.04C272.965 19.6667 272.818 19.1333 272.818 18.44C272.818 17.96 272.912 17.5867 273.098 17.32C272.912 17.16 272.752 16.9467 272.618 16.68C272.485 16.3867 272.418 16.0933 272.418 15.8C272.418 15.48 272.512 15.1733 272.698 14.88C272.565 14.56 272.498 14.28 272.498 14.04C272.498 13.64 272.618 13.2667 272.858 12.92C272.538 12.6 272.378 12.2667 272.378 11.92C272.378 11.6533 272.472 11.2933 272.658 10.84C272.472 10.4667 272.378 10.0667 272.378 9.64C272.378 9.08 272.578 8.73333 272.978 8.6C273.005 8.22667 273.138 7.92 273.378 7.68C273.618 7.44 273.912 7.32 274.258 7.32C274.658 7.32 275.005 7.52 275.298 7.92C275.618 8.29333 275.778 8.84 275.778 9.56C275.778 9.85333 275.765 10.0933 275.738 10.28C275.845 10.2267 275.952 10.1467 276.058 10.04C276.165 9.90667 276.298 9.81333 276.458 9.76C276.618 9.70667 276.858 9.68 277.178 9.68C277.232 9.54667 277.405 9.41333 277.698 9.28C278.018 9.14667 278.325 9.08 278.618 9.08C278.832 9.08 278.978 9.10667 279.058 9.16C279.272 9.05333 279.485 9 279.698 9C280.018 9 280.365 9.22667 280.738 9.68C281.378 9.62667 281.845 9.77333 282.138 10.12C282.565 10.0933 282.938 10.1467 283.258 10.28C283.578 10.4133 283.832 10.6933 284.018 11.12C284.525 11.44 284.778 11.8667 284.778 12.4C284.778 12.8533 284.578 13.28 284.178 13.68C283.805 14.0533 283.392 14.24 282.938 14.24C282.432 14.24 282.005 13.9733 281.658 13.44C281.365 13.44 281.138 13.4133 280.978 13.36C280.818 13.3067 280.658 13.1867 280.498 13C280.338 13.0533 280.205 13.08 280.098 13.08C279.858 13.08 279.605 13.0133 279.338 12.88C278.965 13.12 278.565 13.2267 278.138 13.2C277.978 13.5733 277.565 13.76 276.898 13.76C276.925 13.84 276.938 13.9733 276.938 14.16C276.938 14.5067 276.858 14.8533 276.698 15.2C276.565 15.52 276.392 15.76 276.178 15.92C276.392 16.4267 276.498 16.9333 276.498 17.44C276.498 17.8933 276.392 18.24 276.178 18.48C276.258 18.5867 276.338 18.72 276.418 18.88C276.525 19.04 276.605 19.1867 276.658 19.32C276.712 19.5333 276.738 19.6933 276.738 19.8C276.738 19.9867 276.672 20.24 276.538 20.56C276.672 20.88 276.738 21.12 276.738 21.28C276.738 21.4933 276.645 21.7867 276.458 22.16C276.618 22.4267 276.698 22.72 276.698 23.04C276.698 23.4133 276.605 23.7333 276.418 24C276.605 24.4267 276.698 24.8667 276.698 25.32C276.698 25.6667 276.618 25.9867 276.458 26.28C276.592 26.5467 276.658 26.8133 276.658 27.08C276.658 27.4533 276.538 27.8 276.298 28.12ZM297.214 29.52C296.894 29.84 296.401 30 295.734 30C295.227 30 294.814 29.92 294.494 29.76C294.014 29.8667 293.587 29.92 293.214 29.92C292.174 29.92 291.427 29.6533 290.974 29.12C290.867 29.1467 290.721 29.16 290.534 29.16C289.921 29.16 289.454 28.88 289.134 28.32C288.867 28.3467 288.521 28.2133 288.094 27.92C287.694 27.6 287.521 27.2933 287.574 27C287.147 26.8933 286.787 26.64 286.494 26.24C286.227 25.8133 286.107 25.3333 286.134 24.8C285.841 24.6933 285.614 24.48 285.454 24.16C285.294 23.84 285.214 23.48 285.214 23.08C285.214 22.6533 285.281 22.3467 285.414 22.16C285.121 21.7067 284.974 21.1867 284.974 20.6C284.974 19.9867 285.161 19.4933 285.534 19.12C285.241 18.9067 285.094 18.5867 285.094 18.16C285.094 17.8933 285.161 17.6267 285.294 17.36C285.427 17.0933 285.601 16.9067 285.814 16.8C285.761 16.4267 285.801 16.08 285.934 15.76C286.094 15.4133 286.307 15.16 286.574 15C286.521 14.92 286.494 14.8 286.494 14.64C286.494 14.4 286.574 14.16 286.734 13.92C286.921 13.68 287.121 13.5333 287.334 13.48C287.307 13.4 287.294 13.2933 287.294 13.16C287.294 12.6 287.507 12.12 287.934 11.72C288.361 11.2933 288.774 11.1067 289.174 11.16C289.174 10.7867 289.334 10.48 289.654 10.24C290.001 9.97333 290.441 9.84 290.974 9.84C291.214 9.84 291.401 9.85333 291.534 9.88C291.721 9.48 292.041 9.16 292.494 8.92C292.947 8.65333 293.414 8.52 293.894 8.52C294.214 8.52 294.481 8.58667 294.694 8.72C295.067 8.4 295.534 8.24 296.094 8.24C296.547 8.24 296.947 8.34667 297.294 8.56C297.667 8.77333 297.894 9.06667 297.974 9.44C298.401 9.44 298.854 9.6 299.334 9.92C299.814 10.2133 300.094 10.52 300.174 10.84C300.814 11.0267 301.427 11.44 302.014 12.08C302.627 12.6933 302.934 13.32 302.934 13.96C302.934 14.0667 302.907 14.2267 302.854 14.44C304.001 14.68 304.521 15.84 304.414 17.92C304.654 18.32 304.774 18.7467 304.774 19.2C304.774 19.7333 304.601 20.2667 304.254 20.8C304.334 21.04 304.374 21.2667 304.374 21.48C304.374 21.8 304.307 22.1067 304.174 22.4C304.041 22.6933 303.867 22.92 303.654 23.08C303.681 23.5067 303.601 23.8533 303.414 24.12C303.254 24.3867 302.947 24.7467 302.494 25.2C302.521 25.3067 302.534 25.4667 302.534 25.68C302.534 26.48 302.081 27 301.174 27.24C301.094 27.6667 300.867 28.0133 300.494 28.28C300.147 28.5467 299.721 28.68 299.214 28.68C298.787 29.2667 298.267 29.56 297.654 29.56C297.467 29.56 297.321 29.5467 297.214 29.52ZM293.454 26.72C293.667 26.5333 294.027 26.44 294.534 26.44C294.907 26.44 295.107 26.4933 295.134 26.6C295.347 26.36 295.614 26.1733 295.934 26.04C296.254 25.9067 296.547 25.8533 296.814 25.88C297.267 25.4267 297.761 25.2 298.294 25.2C298.481 25.2 298.614 25.2133 298.694 25.24C298.667 25 298.734 24.7733 298.894 24.56C299.054 24.32 299.241 24.16 299.454 24.08C299.454 23.7333 299.534 23.44 299.694 23.2C299.881 22.9333 300.107 22.7333 300.374 22.6C300.374 22.0667 300.481 21.64 300.694 21.32C300.614 21.1067 300.574 20.8933 300.574 20.68C300.574 20.3867 300.641 20.1067 300.774 19.84C300.907 19.5467 301.094 19.3067 301.334 19.12C301.067 18.88 300.934 18.5867 300.934 18.24C300.934 17.92 301.027 17.6 301.214 17.28C300.681 16.96 300.321 16.6533 300.134 16.36C299.974 16.04 299.894 15.4667 299.894 14.64C299.654 14.6667 299.401 14.5333 299.134 14.24C298.894 13.9467 298.747 13.6133 298.694 13.24C298.401 13.32 298.041 13.24 297.614 13C297.214 12.7333 297.014 12.4 297.014 12C296.801 12.1067 296.547 12.16 296.254 12.16C295.694 12.16 295.241 11.96 294.894 11.56C294.601 11.8533 294.214 12.0933 293.734 12.28C293.281 12.44 292.881 12.4933 292.534 12.44C292.507 12.7067 292.267 13.0267 291.814 13.4C291.387 13.7467 291.001 13.9733 290.654 14.08C290.734 14.24 290.774 14.4267 290.774 14.64C290.774 14.9067 290.707 15.1733 290.574 15.44C290.441 15.7067 290.254 15.9333 290.014 16.12C290.041 16.4933 289.947 16.8533 289.734 17.2C289.547 17.5467 289.281 17.7867 288.934 17.92C288.987 18.1333 289.014 18.3067 289.014 18.44C289.014 18.8133 288.921 19.1067 288.734 19.32C288.814 19.5067 288.854 19.6933 288.854 19.88C288.854 20.1733 288.707 20.4933 288.414 20.84C289.081 21.2933 289.414 21.9467 289.414 22.8C289.414 23.2533 289.334 23.64 289.174 23.96C289.441 23.9867 289.627 24.0667 289.734 24.2C289.841 24.3333 289.934 24.5467 290.014 24.84C290.681 24.92 291.174 25.24 291.494 25.8C291.787 25.8 292.147 25.8933 292.574 26.08C293.027 26.2667 293.321 26.48 293.454 26.72ZM319.578 27.64C319.524 27.88 319.324 28.08 318.978 28.24C318.631 28.4 318.258 28.48 317.858 28.48C317.671 28.48 317.538 28.4667 317.458 28.44C317.324 28.6533 317.044 28.8667 316.618 29.08C316.191 29.2933 315.818 29.4 315.498 29.4C315.338 29.4 315.191 29.36 315.058 29.28C314.791 29.3333 314.564 29.36 314.378 29.36C314.004 29.36 313.631 29.2933 313.258 29.16C312.911 29.0267 312.644 28.8533 312.458 28.64C312.004 28.6933 311.578 28.64 311.178 28.48C310.804 28.2933 310.591 28.0533 310.538 27.76C310.244 27.8133 309.911 27.6933 309.538 27.4C309.191 27.1067 309.004 26.7067 308.978 26.2C308.578 25.9867 308.284 25.6667 308.098 25.24C307.911 24.8133 307.818 24.36 307.818 23.88C307.818 23.5333 307.858 23.2667 307.938 23.08C307.724 22.8933 307.551 22.5067 307.418 21.92C307.284 21.3067 307.218 20.6667 307.218 20C307.218 19.2 307.311 18.6133 307.498 18.24C307.364 17.9733 307.298 17.6667 307.298 17.32C307.298 17.0267 307.338 16.7467 307.418 16.48C307.524 16.2133 307.671 16 307.858 15.84C307.778 15.7067 307.738 15.5867 307.738 15.48C307.738 15.2933 307.804 15.0933 307.938 14.88C308.071 14.6667 308.218 14.5067 308.378 14.4C308.351 13.9733 308.458 13.5867 308.698 13.24C308.964 12.8667 309.231 12.64 309.498 12.56C309.471 12.2933 309.564 11.9733 309.778 11.6C309.991 11.2267 310.271 10.92 310.618 10.68C310.991 10.44 311.364 10.3333 311.738 10.36C312.271 9.61333 313.004 9.24 313.938 9.24C314.338 9.24 314.644 9.29333 314.858 9.4C315.151 9.26666 315.511 9.2 315.938 9.2C316.364 9.2 316.831 9.30667 317.338 9.52C317.498 9.44 317.698 9.4 317.938 9.4C318.204 9.4 318.458 9.45333 318.698 9.56C318.964 9.64 319.138 9.76 319.218 9.92C319.191 9.81333 319.178 9.65333 319.178 9.44C319.178 9.01333 319.284 8.64 319.498 8.32C319.311 8 319.218 7.68 319.218 7.36C319.218 7.2 319.231 7.08 319.258 7C319.231 6.86666 319.178 6.69333 319.098 6.48C319.018 6.24 318.978 6.04 318.978 5.88C318.978 5.66667 319.031 5.45333 319.138 5.24C319.004 4.97333 318.938 4.70667 318.938 4.44C318.938 4.14666 319.018 3.86667 319.178 3.6C318.991 3.22667 318.898 2.84 318.898 2.44C318.898 1.90667 319.044 1.42666 319.338 0.999999C319.658 0.573332 320.084 0.359998 320.618 0.359998C321.071 0.359998 321.458 0.533331 321.778 0.879998C322.124 1.2 322.298 1.57333 322.298 2C322.298 2.16 322.284 2.28 322.258 2.36C322.658 2.68 322.858 3.12 322.858 3.68C322.858 3.97333 322.764 4.28 322.578 4.6C322.658 4.78667 322.698 4.98667 322.698 5.2C322.698 5.49333 322.631 5.77333 322.498 6.04C322.631 6.30666 322.698 6.58667 322.698 6.88C322.698 7.25333 322.604 7.57333 322.418 7.84C322.684 8.16 322.818 8.46666 322.818 8.76C322.818 8.97333 322.738 9.2 322.578 9.44C322.658 9.6 322.698 9.8 322.698 10.04C322.698 10.2267 322.658 10.4267 322.578 10.64C322.791 10.9333 322.898 11.2533 322.898 11.6C322.898 11.8667 322.831 12.1333 322.698 12.4C322.858 12.6667 322.938 12.9867 322.938 13.36C322.938 13.9733 322.791 14.4 322.498 14.64C322.764 14.96 322.898 15.44 322.898 16.08C322.898 16.4533 322.844 16.8267 322.738 17.2C322.658 17.5733 322.578 17.84 322.498 18C322.764 18.4 322.898 18.9067 322.898 19.52C322.898 19.8133 322.831 20.0933 322.698 20.36C322.991 20.6533 323.138 21.0933 323.138 21.68C323.138 22.32 323.004 22.84 322.738 23.24C323.004 23.5867 323.138 24.08 323.138 24.72C323.138 25.1467 323.071 25.5333 322.938 25.88C322.831 26.2 322.684 26.4133 322.498 26.52C322.524 26.7067 322.591 26.9867 322.698 27.36C322.831 27.9467 322.898 28.32 322.898 28.48C322.898 28.9067 322.764 29.2533 322.498 29.52C322.178 29.84 321.804 30 321.378 30C321.031 30 320.711 29.88 320.418 29.64C320.151 29.3733 319.991 29.0267 319.938 28.6C319.804 28.4667 319.711 28.2933 319.658 28.08C319.604 27.84 319.578 27.6933 319.578 27.64ZM314.578 26.08C314.658 25.8933 314.898 25.8 315.298 25.8C315.484 25.8 315.644 25.8133 315.778 25.84C315.911 25.8667 316.018 25.88 316.098 25.88C316.124 25.6933 316.284 25.5333 316.578 25.4C316.898 25.24 317.204 25.16 317.498 25.16C317.684 25.16 317.844 25.2 317.978 25.28C317.951 25.0133 318.004 24.8 318.138 24.64C318.271 24.48 318.444 24.3333 318.658 24.2C318.898 24.04 319.071 23.92 319.178 23.84C319.124 23.7333 319.098 23.4933 319.098 23.12C319.098 22.32 319.191 21.8267 319.378 21.64C319.191 21.4533 319.098 21.08 319.098 20.52C319.098 19.88 319.191 19.32 319.378 18.84C319.218 18.4933 319.138 17.9067 319.138 17.08C319.138 16.28 319.191 15.7467 319.298 15.48C319.058 15 318.938 14.4533 318.938 13.84C318.938 13.36 318.991 13.0133 319.098 12.8C318.938 12.9067 318.698 12.92 318.378 12.84C318.084 12.7333 317.844 12.5867 317.658 12.4C317.551 12.56 317.338 12.64 317.018 12.64C316.804 12.64 316.591 12.6133 316.378 12.56C316.164 12.48 316.018 12.4 315.938 12.32C315.511 12.5067 315.098 12.6 314.698 12.6C314.591 12.6 314.431 12.5733 314.218 12.52C313.871 12.8933 313.604 13.16 313.418 13.32C313.231 13.48 312.978 13.5733 312.658 13.6C312.578 13.7867 312.498 14.0133 312.418 14.28C312.338 14.52 312.244 14.72 312.138 14.88C312.031 15.04 311.844 15.1733 311.578 15.28C311.524 15.6267 311.391 15.9067 311.178 16.12C311.204 16.2267 311.217 16.3733 311.217 16.56C311.217 16.8267 311.151 17.12 311.018 17.44C311.098 17.6267 311.138 18.04 311.138 18.68C311.138 19.9067 311.031 20.64 310.818 20.88C310.844 20.9867 310.938 21.24 311.098 21.64C311.258 22.04 311.338 22.4267 311.338 22.8C311.338 23.0933 311.284 23.36 311.178 23.6C311.711 23.8133 312.044 24.1867 312.178 24.72C312.444 24.8 312.698 24.9733 312.938 25.24C313.578 25.2133 314.124 25.4933 314.578 26.08ZM334.827 29.32C334.534 29.4267 334.254 29.48 333.987 29.48C333.614 29.48 333.307 29.3467 333.067 29.08C332.774 29.1067 332.44 28.9867 332.067 28.72C331.72 28.4267 331.507 28.1467 331.427 27.88C331.107 27.8 330.814 27.6267 330.547 27.36C330.307 27.0667 330.147 26.7067 330.067 26.28C329.747 26.2 329.48 25.9867 329.267 25.64C329.08 25.2667 328.987 24.84 328.987 24.36C328.987 24.0667 329.027 23.7867 329.107 23.52C328.92 23.2267 328.854 22.8533 328.907 22.4C328.534 22.08 328.347 21.7067 328.347 21.28C328.347 21.0667 328.387 20.8667 328.467 20.68C328.307 20.44 328.227 20.16 328.227 19.84C328.227 19.44 328.347 19.08 328.587 18.76C328.214 18.44 328.027 18.04 328.027 17.56C328.027 17.2667 328.107 17.0133 328.267 16.8C328.027 16.4533 327.907 16.04 327.907 15.56C327.907 15.1867 327.987 14.9067 328.147 14.72C327.88 14.5067 327.747 14.1867 327.747 13.76C327.747 13.4933 327.827 13.2 327.987 12.88C327.854 12.6667 327.787 12.36 327.787 11.96C327.787 11.3733 327.947 10.92 328.267 10.6C328.187 10.36 328.147 10.1333 328.147 9.92C328.147 9.44 328.307 9.06667 328.627 8.8C328.974 8.50667 329.374 8.36 329.827 8.36C330.28 8.36 330.667 8.50667 330.987 8.8C331.334 9.09333 331.507 9.52 331.507 10.08C331.507 10.5067 331.414 10.96 331.227 11.44C331.6 11.76 331.787 12.1733 331.787 12.68C331.787 13.0533 331.667 13.3867 331.427 13.68C331.587 13.9733 331.667 14.36 331.667 14.84C331.667 15.3467 331.587 15.76 331.427 16.08C331.667 16.4 331.787 16.8933 331.787 17.56C331.787 18.0133 331.76 18.32 331.707 18.48C331.92 18.72 332.027 19.0267 332.027 19.4C332.027 19.6133 331.974 19.8533 331.867 20.12C332.134 20.4133 332.267 20.8133 332.267 21.32C332.267 21.48 332.24 21.64 332.187 21.8C332.294 21.88 332.387 22.0267 332.467 22.24C332.547 22.4267 332.587 22.6267 332.587 22.84C332.587 23.1067 332.52 23.3333 332.387 23.52C332.6 23.5467 332.747 23.6933 332.827 23.96C332.907 24.2 332.92 24.44 332.867 24.68H332.907C333.094 24.68 333.254 24.7867 333.387 25C333.547 25.1867 333.6 25.36 333.547 25.52C333.627 25.4667 333.747 25.44 333.907 25.44C334.12 25.44 334.307 25.4933 334.467 25.6C334.654 25.68 334.787 25.7867 334.867 25.92C335.4 25.6267 335.907 25.48 336.387 25.48C336.627 25.48 336.84 25.52 337.027 25.6C337.267 25.4133 337.574 25.2533 337.947 25.12C338.347 24.96 338.694 24.88 338.987 24.88C339.12 24.88 339.24 24.9067 339.347 24.96C339.16 24.6667 339.067 24.2933 339.067 23.84C339.067 23.3333 339.227 23.0133 339.547 22.88C339.36 22.6667 339.267 22.2133 339.267 21.52C339.267 20.6933 339.44 20.1067 339.787 19.76C339.547 19.36 339.427 18.92 339.427 18.44C339.427 18.0133 339.507 17.72 339.667 17.56C339.507 17.3467 339.427 17.08 339.427 16.76C339.427 16.44 339.48 16.1067 339.587 15.76C339.72 15.3867 339.88 15.0933 340.067 14.88C339.72 14.64 339.547 14.12 339.547 13.32C339.547 12.8133 339.587 12.4 339.667 12.08C339.427 11.5467 339.307 11.0933 339.307 10.72C339.307 10.24 339.467 9.85333 339.787 9.56C340.107 9.26667 340.48 9.12 340.907 9.12C341.414 9.12 341.84 9.32 342.187 9.72C342.56 10.12 342.734 10.6933 342.707 11.44C342.84 11.5733 342.947 11.7867 343.027 12.08C343.134 12.3467 343.187 12.6267 343.187 12.92C343.187 13.5067 343.04 13.92 342.747 14.16C343.227 14.7467 343.467 15.32 343.467 15.88C343.467 16.2533 343.36 16.56 343.147 16.8C343.36 17.0933 343.467 17.4133 343.467 17.76C343.467 18.1067 343.374 18.4667 343.187 18.84C343.347 19.08 343.427 19.3467 343.427 19.64C343.427 20.12 343.227 20.5333 342.827 20.88C343.094 21.1733 343.227 21.52 343.227 21.92C343.227 22.3467 343.054 22.8267 342.707 23.36C342.974 23.52 343.107 23.8533 343.107 24.36C343.107 24.8667 343 25.3867 342.787 25.92C343 26.2133 343.107 26.6 343.107 27.08C343.107 27.3733 343.054 27.6133 342.947 27.8C343 28.0667 343.027 28.2667 343.027 28.4C343.027 28.9067 342.867 29.3067 342.547 29.6C342.254 29.8667 341.894 30 341.467 30C341.094 30 340.76 29.88 340.467 29.64C340.174 29.3733 340 29 339.947 28.52C339.92 28.4933 339.88 28.4533 339.827 28.4C339.8 28.32 339.774 28.2533 339.747 28.2C339.294 28.4667 338.88 28.6 338.507 28.6C338.374 28.6 338.267 28.5867 338.187 28.56C337.84 28.8 337.507 28.92 337.187 28.92C336.92 28.92 336.667 28.8667 336.427 28.76C336.32 28.9467 336.147 29.0933 335.907 29.2C335.694 29.3067 335.454 29.36 335.187 29.36C335.027 29.36 334.907 29.3467 334.827 29.32ZM359.584 29.12C359.344 29.4133 359.024 29.64 358.624 29.8C358.224 29.9333 357.811 30 357.384 30C356.851 30 356.477 29.9067 356.264 29.72C356.077 29.8 355.877 29.84 355.664 29.84C355.157 29.84 354.731 29.6667 354.384 29.32C354.064 29.4533 353.784 29.52 353.544 29.52C353.117 29.52 352.691 29.4133 352.264 29.2C351.864 28.96 351.584 28.68 351.424 28.36C350.917 28.4133 350.411 28.2667 349.904 27.92C349.424 27.5467 349.144 27.12 349.064 26.64C348.264 26.2933 347.717 25.36 347.424 23.84C347.264 23.7067 347.144 23.5067 347.064 23.24C346.984 22.9733 346.944 22.7067 346.944 22.44C346.944 22.2533 346.957 22.12 346.984 22.04C346.531 21.1333 346.304 20.2 346.304 19.24C346.304 18.36 346.491 17.64 346.864 17.08C346.811 16.8133 346.784 16.6133 346.784 16.48C346.784 16.0267 346.891 15.6 347.104 15.2C347.317 14.7733 347.584 14.4667 347.904 14.28C347.851 14.1467 347.824 13.96 347.824 13.72C347.824 13.2933 347.957 12.9067 348.224 12.56C348.517 12.1867 348.797 11.96 349.064 11.88C349.171 11.5067 349.424 11.16 349.824 10.84C350.251 10.4933 350.691 10.3333 351.144 10.36C351.677 9.56 352.211 9.2 352.744 9.28C352.984 8.96 353.304 8.73333 353.704 8.6C354.131 8.46667 354.517 8.41333 354.864 8.44C355.131 8.25333 355.424 8.16 355.744 8.16C356.064 8.16 356.384 8.24 356.704 8.4C356.917 8.24 357.211 8.16 357.584 8.16C357.851 8.16 358.104 8.2 358.344 8.28C358.584 8.36 358.744 8.45333 358.824 8.56C359.037 8.50667 359.264 8.56 359.504 8.72C359.744 8.85333 359.891 9.02667 359.944 9.24C360.397 9.24 360.784 9.38667 361.104 9.68C361.451 9.94667 361.704 10.2667 361.864 10.64C362.051 10.9867 362.131 11.2533 362.104 11.44C362.557 11.6533 362.877 12 363.064 12.48C363.251 12.9067 363.344 13.28 363.344 13.6C363.344 14.1333 363.144 14.5467 362.744 14.84C362.477 15.0267 362.197 15.12 361.904 15.12C361.424 15.12 360.957 14.92 360.504 14.52C360.077 14.12 359.797 13.6267 359.664 13.04C359.317 12.9867 358.984 12.8667 358.664 12.68C358.344 12.4667 358.091 12.24 357.904 12C357.824 12.0267 357.624 12.04 357.304 12.04C357.011 12.04 356.811 12.0267 356.704 12C356.464 12.24 356.197 12.36 355.904 12.36C355.611 12.36 355.331 12.2667 355.064 12.08C354.717 12.6133 354.211 12.88 353.544 12.88C353.197 13.36 352.891 13.7333 352.624 14C352.357 14.24 351.997 14.3333 351.544 14.28C351.571 14.36 351.584 14.48 351.584 14.64C351.584 14.96 351.504 15.24 351.344 15.48C351.184 15.72 350.997 15.9467 350.784 16.16C350.597 16.3467 350.451 16.4933 350.344 16.6C350.477 17 350.544 17.3733 350.544 17.72C350.544 18.3333 350.357 19.0667 349.984 19.92C350.117 20.1067 350.224 20.3733 350.304 20.72C350.411 21.04 350.464 21.36 350.464 21.68C350.464 21.8667 350.451 22 350.424 22.08C350.611 22.2133 350.771 22.44 350.904 22.76C351.064 23.08 351.144 23.3867 351.144 23.68C351.811 23.8933 352.357 24.2 352.784 24.6C353.237 25 353.464 25.3733 353.464 25.72C353.757 25.48 354.077 25.36 354.424 25.36C354.744 25.36 355.051 25.44 355.344 25.6C355.664 25.76 355.904 25.9733 356.064 26.24C356.197 26.2133 356.357 26.2 356.544 26.2C356.944 26.2 357.291 26.3333 357.584 26.6C357.691 26.3867 357.957 26.16 358.384 25.92C358.811 25.68 359.157 25.5733 359.424 25.6C359.584 25.3333 359.797 25.1333 360.064 25C360.357 24.8667 360.664 24.8 360.984 24.8C361.197 24.8 361.344 24.8133 361.424 24.84C361.771 24.4133 362.237 24.2 362.824 24.2C363.331 24.2 363.771 24.3733 364.144 24.72C364.517 25.0667 364.704 25.4933 364.704 26C364.704 26.5867 364.451 27.08 363.944 27.48C363.464 27.8533 362.917 28.04 362.304 28.04C362.064 28.04 361.891 28.0267 361.784 28C361.997 28.0533 361.971 28.1733 361.704 28.36C361.464 28.5467 361.117 28.7333 360.664 28.92C360.211 29.08 359.851 29.1467 359.584 29.12ZM379.577 26.56C379.603 26.4267 379.67 26.3333 379.777 26.28C379.91 26.2267 380.057 26.1867 380.217 26.16C380.323 26.1333 380.457 26.12 380.617 26.12C381.07 26.12 381.43 26.2933 381.697 26.64C381.99 26.96 382.137 27.3467 382.137 27.8C382.137 28.1467 382.043 28.4533 381.857 28.72C381.67 28.96 381.39 29.1333 381.017 29.24C380.457 29.72 379.79 29.92 379.017 29.84C378.803 30.0267 378.523 30.12 378.177 30.12C377.697 30.12 377.257 29.9467 376.857 29.6C376.59 29.5467 376.27 29.4133 375.897 29.2C375.523 28.96 375.337 28.7467 375.337 28.56C374.963 28.5067 374.577 28.2933 374.177 27.92C373.803 27.5467 373.67 27.0933 373.777 26.56C373.483 26.24 373.31 25.9067 373.257 25.56C372.937 25.4 372.697 25.16 372.537 24.84C372.403 24.52 372.363 24.1867 372.417 23.84C372.07 23.52 371.897 23.04 371.897 22.4C371.897 22.16 371.923 21.8533 371.977 21.48C371.603 21.1867 371.417 20.7867 371.417 20.28C371.417 19.8267 371.563 19.4533 371.857 19.16C371.537 18.84 371.377 18.4267 371.377 17.92C371.377 17.7333 371.43 17.5067 371.537 17.24C371.377 16.92 371.297 16.6 371.297 16.28C371.297 15.8533 371.417 15.52 371.657 15.28C371.497 14.96 371.417 14.6133 371.417 14.24C371.417 13.92 371.457 13.64 371.537 13.4C371.643 13.1333 371.763 12.9333 371.897 12.8C371.603 12.4533 371.457 12.08 371.457 11.68C371.457 11.4667 371.497 11.24 371.577 11C371.337 11.08 371.07 11.12 370.777 11.12C370.323 11.12 369.99 11.0267 369.777 10.84C369.457 10.92 369.177 10.96 368.937 10.96C368.457 10.96 367.963 10.8133 367.457 10.52C367.19 10.68 366.91 10.76 366.617 10.76C366.19 10.76 365.843 10.5867 365.577 10.24C365.283 9.86667 365.137 9.45333 365.137 9C365.137 8.6 365.27 8.26667 365.537 8C365.777 7.70667 366.137 7.54666 366.617 7.52C366.937 7.38667 367.23 7.32 367.497 7.32C368.03 7.32 368.497 7.45333 368.897 7.72C369.243 7.58667 369.63 7.52 370.057 7.52C370.43 7.52 370.723 7.58667 370.937 7.72C370.963 7.61333 371.07 7.52 371.257 7.44C371.47 7.33333 371.643 7.29333 371.777 7.32C371.67 7.08 371.617 6.76 371.617 6.36C371.617 5.88 371.723 5.62667 371.937 5.6C371.75 5.33333 371.657 4.94667 371.657 4.44C371.657 3.74667 371.83 3.26667 372.177 3C372.15 2.46667 372.257 2.06666 372.497 1.8C372.737 1.53333 373.043 1.4 373.417 1.4C373.79 1.4 374.137 1.53333 374.457 1.8C374.777 2.04 374.937 2.36 374.937 2.76C374.937 3.02667 374.83 3.33333 374.617 3.68C374.883 3.92 375.017 4.32 375.017 4.88C375.017 5.12 374.977 5.37333 374.897 5.64C374.843 5.88 374.763 6.06667 374.657 6.2C374.817 6.30667 374.897 6.52 374.897 6.84C374.897 7.10667 374.83 7.46667 374.697 7.92C374.937 7.84 375.19 7.8 375.457 7.8C375.857 7.8 376.163 7.89333 376.377 8.08C376.643 7.94667 376.857 7.88 377.017 7.88C377.283 7.88 377.497 7.98667 377.657 8.2C377.843 8.06667 378.07 8 378.337 8C378.71 8 379.003 8.14667 379.217 8.44C379.723 8.44 380.097 8.56 380.337 8.8C380.603 9.01333 380.737 9.29333 380.737 9.64C380.737 10.0667 380.563 10.48 380.217 10.88C379.897 11.2533 379.523 11.44 379.097 11.44C378.857 11.44 378.617 11.36 378.377 11.2C378.11 11.4133 377.763 11.52 377.337 11.52C376.937 11.52 376.603 11.4267 376.337 11.24C375.99 11.3733 375.737 11.44 375.577 11.44C375.363 11.44 375.11 11.3467 374.817 11.16C375.057 11.48 375.177 11.8267 375.177 12.2C375.177 12.6 375.017 12.96 374.697 13.28C374.937 13.6 375.057 14 375.057 14.48C375.057 14.9067 374.937 15.3067 374.697 15.68C375.017 15.8933 375.177 16.24 375.177 16.72C375.177 17.12 375.057 17.4667 374.817 17.76C375.083 18.0533 375.217 18.5733 375.217 19.32C375.217 19.64 375.177 19.9067 375.097 20.12C375.283 20.3867 375.377 20.6667 375.377 20.96C375.377 21.12 375.337 21.3333 375.257 21.6C375.203 21.84 375.163 22.04 375.137 22.2C375.457 22.5733 375.617 22.9333 375.617 23.28C376.07 23.6267 376.297 24.04 376.297 24.52C376.83 24.8133 377.097 25.3067 377.097 26C377.15 26.08 377.203 26.1333 377.257 26.16C377.31 26.1867 377.35 26.2133 377.377 26.24L377.657 26.2C378.057 26.2 378.377 26.32 378.617 26.56C378.83 26.5067 379.003 26.48 379.137 26.48C379.217 26.48 379.363 26.5067 379.577 26.56ZM398.429 25.28C398.509 25.5467 398.549 25.8133 398.549 26.08C398.549 26.6133 398.336 26.9733 397.909 27.16C397.963 27.56 397.803 27.96 397.429 28.36C397.056 28.76 396.709 28.96 396.389 28.96C396.256 29.2 395.856 29.4267 395.189 29.64C394.523 29.8533 393.909 29.96 393.349 29.96C392.949 29.96 392.643 29.88 392.429 29.72C392.056 29.9067 391.523 30 390.829 30C390.216 30 389.656 29.9067 389.149 29.72C388.669 29.5333 388.376 29.2533 388.269 28.88C387.736 28.96 387.136 28.8 386.469 28.4C385.829 28 385.416 27.5867 385.229 27.16C384.749 27.0267 384.349 26.7733 384.029 26.4C383.736 26.0267 383.576 25.5867 383.549 25.08C383.389 24.84 383.309 24.6 383.309 24.36C383.309 23.9867 383.429 23.6533 383.669 23.36C383.936 23.0667 384.243 22.92 384.589 22.92C384.936 22.92 385.269 23.1333 385.589 23.56C386.069 23.5067 386.496 23.6667 386.869 24.04C387.269 24.4133 387.469 24.7867 387.469 25.16C387.549 25.16 387.749 25.1867 388.069 25.24C388.416 25.2667 388.723 25.36 388.989 25.52C389.256 25.68 389.443 25.9067 389.549 26.2C390.029 26.2 390.496 26.2667 390.949 26.4C391.429 26.5067 391.709 26.64 391.789 26.8C392.003 26.6667 392.309 26.56 392.709 26.48C393.136 26.3733 393.496 26.32 393.789 26.32C393.869 26.2133 394.069 26.1067 394.389 26C394.709 25.8933 394.976 25.8267 395.189 25.8C395.056 25.6133 394.989 25.3333 394.989 24.96C394.989 24.4 395.163 24 395.509 23.76C395.189 23.6533 394.936 23.4933 394.749 23.28C394.563 23.04 394.483 22.7733 394.509 22.48C394.296 22.5333 394.136 22.56 394.029 22.56C393.523 22.56 393.109 22.36 392.789 21.96C392.256 22.0133 391.723 21.8933 391.189 21.6C390.683 21.3067 390.309 20.92 390.069 20.44C389.883 20.52 389.683 20.56 389.469 20.56C389.016 20.56 388.536 20.4267 388.029 20.16C387.549 19.8667 387.243 19.5867 387.109 19.32C386.736 19.4267 386.296 19.3067 385.789 18.96C385.283 18.6133 385.029 18.2267 385.029 17.8C384.709 17.64 384.456 17.3733 384.269 17C384.083 16.6 383.989 16.24 383.989 15.92C383.989 15.68 384.043 15.52 384.149 15.44C384.016 15.1733 383.949 14.9067 383.949 14.64C383.949 14.16 384.109 13.7467 384.429 13.4C384.349 13.1067 384.309 12.84 384.309 12.6C384.309 12.1467 384.403 11.7733 384.589 11.48C384.803 11.16 385.056 11.0267 385.349 11.08C385.296 10.6533 385.389 10.28 385.629 9.96C385.896 9.64 386.216 9.41333 386.589 9.28C386.989 9.12 387.336 9.06667 387.629 9.12C387.789 8.88 388.003 8.69333 388.269 8.56C388.536 8.42667 388.803 8.36 389.069 8.36C389.523 8.36 389.843 8.49333 390.029 8.76C390.056 8.62667 390.149 8.52 390.309 8.44C390.496 8.36 390.709 8.32 390.949 8.32C391.163 8.32 391.376 8.36 391.589 8.44C391.803 8.52 391.963 8.61333 392.069 8.72C392.229 8.56 392.509 8.48 392.909 8.48C393.229 8.48 393.549 8.54666 393.869 8.68C394.189 8.78666 394.403 8.94667 394.509 9.16C394.669 9.08 394.843 9.04 395.029 9.04C395.349 9.04 395.643 9.16 395.909 9.4C396.203 9.61333 396.403 9.89333 396.509 10.24C396.909 10.1867 397.323 10.32 397.749 10.64C398.176 10.96 398.336 11.28 398.229 11.6C398.949 12 399.309 12.5467 399.309 13.24C399.309 13.6667 399.163 14.04 398.869 14.36C398.576 14.68 398.203 14.84 397.749 14.84C397.349 14.8133 397.016 14.7067 396.749 14.52C396.483 14.3333 396.323 14.1067 396.269 13.84C395.923 13.7867 395.589 13.6533 395.269 13.44C394.976 13.2 394.816 12.8933 394.789 12.52C394.283 12.5733 393.896 12.52 393.629 12.36C393.389 12.2 393.176 11.9467 392.989 11.6C392.803 11.7333 392.563 11.8 392.269 11.8C391.976 11.8 391.656 11.72 391.309 11.56C391.123 11.72 390.883 11.8533 390.589 11.96C390.323 12.0667 390.056 12.12 389.789 12.12C389.496 12.12 389.243 12.0533 389.029 11.92C389.083 12.24 389.003 12.4933 388.789 12.68C388.576 12.8667 388.283 12.9333 387.909 12.88C387.989 13.0667 388.029 13.2667 388.029 13.48C388.029 13.96 387.816 14.36 387.389 14.68C387.683 14.8133 387.896 15.04 388.029 15.36C388.163 15.6533 388.216 15.9467 388.189 16.24L388.509 16.2C389.309 16.2 389.816 16.4533 390.029 16.96L390.349 16.92C390.776 16.92 391.176 17.0267 391.549 17.24C391.949 17.4533 392.243 17.8133 392.429 18.32C392.856 18.2933 393.269 18.3467 393.669 18.48C394.069 18.5867 394.349 18.8 394.509 19.12C394.723 19.04 394.923 19 395.109 19C395.563 19 395.963 19.1333 396.309 19.4C396.683 19.6667 396.883 19.9733 396.909 20.32C397.149 20.32 397.363 20.4533 397.549 20.72C397.763 20.9867 397.843 21.2933 397.789 21.64C397.976 21.6133 398.149 21.72 398.309 21.96C398.469 22.1733 398.549 22.4267 398.549 22.72C398.549 22.88 398.509 23.0267 398.429 23.16C398.803 23.4267 398.989 23.7867 398.989 24.24C398.989 24.48 398.936 24.6933 398.829 24.88C398.749 25.0667 398.616 25.2 398.429 25.28Z" fill="black"/>
</svg>
