<svg width="65" height="11" viewBox="0 0 65 11" fill="none" xmlns="http://www.w3.org/2000/svg">
<path d="M5.47852 7.48438H3.66943L4.53369 3.37549L5.47852 7.48438ZM2.22656 0.562988L2.43164 0.848633C2.69043 1.2002 2.78076 1.56885 2.70264 1.95459C2.12158 5.19678 1.50879 7.9043 0.864258 10.0771C0.795898 10.3213 0.654297 10.5215 0.439453 10.6777L0 11H2.75391L3.11279 9.49121H5.85205L6.10107 11H8.4375L6.1377 0.562988H2.22656ZM13.3008 8.96387C12.8906 8.96387 12.5342 8.94434 12.2314 8.90527V6.7666H14.5093C14.6313 7.02539 14.6924 7.3916 14.6924 7.86523C14.6924 8.34375 14.6289 8.67822 14.502 8.86865C14.1553 8.93213 13.7549 8.96387 13.3008 8.96387ZM14.5312 3.70508C14.5312 4.17383 14.4727 4.54248 14.3555 4.81104H12.2314V2.67969C12.6367 2.63086 12.9688 2.604 13.2275 2.59912H13.3008C13.5791 2.59912 13.9258 2.63086 14.3408 2.69434C14.4678 2.88965 14.5312 3.22656 14.5312 3.70508ZM16.7432 3.5293C16.7432 2.7041 16.5747 1.83984 16.2378 0.936523L16.1719 0.833984L16.0693 0.819336C15.127 0.648438 14.2383 0.562988 13.4033 0.562988H13.2715C12.4072 0.572754 11.2866 0.672852 9.90967 0.863281L9.54346 0.914551L9.81445 1.1709C10.1221 1.45898 10.2759 1.79346 10.2759 2.17432V9.38135C10.2759 9.78174 10.1245 10.1162 9.82178 10.3848L9.53613 10.6338L9.90967 10.6924C11.0327 10.8828 12.1533 10.9854 13.2715 11H13.396C14.2651 11 15.1978 10.917 16.1938 10.751L16.3037 10.729L16.333 10.6265C16.665 9.5083 16.8311 8.51709 16.8311 7.65283C16.8311 7.11572 16.6846 6.48828 16.3916 5.77051C16.626 5.02832 16.7432 4.28125 16.7432 3.5293ZM23.0493 8.80273C22.854 8.83691 22.4414 8.854 21.8115 8.854C21.1816 8.854 20.7617 8.83691 20.5518 8.80273L20.5664 2.78955L21.8115 2.74561C22.2705 2.73584 22.6831 2.75049 23.0493 2.78955V8.80273ZM25.686 10.48C25.5835 10.4556 25.481 10.3896 25.3784 10.2822C25.1782 10.0625 25.0757 9.74268 25.0708 9.32275L25.0635 1.50049V0.936523L24.917 0.899902C24.2627 0.685059 23.2275 0.577637 21.8115 0.577637C21.0449 0.577637 20.2271 0.643555 19.3579 0.775391C19.0894 0.819336 18.8306 0.865723 18.5815 0.914551C18.3716 0.958496 18.2715 0.980469 18.2812 0.980469L17.9297 1.06104C17.9395 1.0708 17.9492 1.08057 17.959 1.09033L17.9297 1.09766C18.3398 1.39062 18.5474 1.77881 18.5522 2.26221V10.6411L18.6841 10.6777C19.5337 10.8926 20.5762 11 21.8115 11C22.5732 11 23.3887 10.9316 24.2578 10.7949C24.5264 10.7559 24.7852 10.7119 25.0342 10.6631C25.2441 10.6191 25.3442 10.5972 25.3345 10.5972L25.686 10.5166C25.6714 10.5117 25.6543 10.5044 25.6348 10.4946L25.686 10.48ZM34.1968 10.5898C34.2065 10.5898 34.1064 10.6118 33.8965 10.6558C33.6426 10.7095 33.3813 10.7559 33.1128 10.7949C32.2437 10.9316 31.4258 11 30.6592 11C29.3604 11 28.3179 10.8926 27.5317 10.6777L27.4146 10.6338V1.83008C27.4146 1.3418 27.207 0.938965 26.792 0.621582H29.4141L29.3994 8.78076C29.6143 8.81494 30.0342 8.83203 30.6592 8.83203C31.2939 8.83203 31.7065 8.81494 31.897 8.78076V0.621582L33.9258 0.606934V9.33008C33.9258 9.75488 34.0259 10.0796 34.2261 10.3042C34.3286 10.4116 34.4312 10.48 34.5337 10.5093L34.1968 10.5898ZM35.6396 0.606934H43.1982V2.65039H40.459V9.78418C40.4736 10.165 40.6201 10.4653 40.8984 10.6851L41.2866 11H37.6392L37.9614 10.6997C38.2544 10.4214 38.4058 10.1162 38.4155 9.78418V2.65039H35.6396V0.606934ZM55.4224 10.5898C55.4321 10.5898 55.332 10.6118 55.1221 10.6558C54.8682 10.7095 54.6069 10.7559 54.3384 10.7949C53.4692 10.9316 52.6514 11 51.8848 11C50.5859 11 49.5435 10.8926 48.7573 10.6777L48.6401 10.6338V1.83008C48.6401 1.3418 48.4326 0.938965 48.0176 0.621582H50.6396L50.625 8.78076C50.8398 8.81494 51.2598 8.83203 51.8848 8.83203C52.5195 8.83203 52.9321 8.81494 53.1226 8.78076V0.621582L55.1514 0.606934V9.33008C55.1514 9.75488 55.2515 10.0796 55.4517 10.3042C55.5542 10.4116 55.6567 10.48 55.7593 10.5093L55.4224 10.5898ZM64.8633 10.4946L64.4531 10.5972C63.3252 10.8657 62.1216 11 60.8423 11C59.729 11 58.7012 10.8926 57.7588 10.6777L57.5903 10.6484V7.79199C57.981 8.16309 58.4229 8.42432 58.916 8.57568C59.4189 8.73193 59.9341 8.81982 60.4614 8.83936C61.0913 8.87354 61.6382 8.86621 62.1021 8.81738V7.85059L58.0298 5.104C57.7368 4.92822 57.5903 4.62793 57.5903 4.20312C57.6001 2.85059 57.605 2.1792 57.605 2.18896C57.5952 1.85693 57.4609 1.59082 57.2021 1.39062L56.8652 1.1123L57.2827 1.00244C58.4253 0.73877 59.5972 0.606934 60.7983 0.606934C61.4575 0.606934 62.1753 0.658203 62.9517 0.760742C63.1812 0.790039 63.418 0.82666 63.6621 0.870605C63.8574 0.899902 63.9551 0.914551 63.9551 0.914551L64.1162 0.958496V3.81494L63.7866 3.52197C63.606 3.36084 63.2764 3.19727 62.7979 3.03125C62.417 2.88477 61.8774 2.79199 61.1792 2.75293C60.4663 2.72363 59.9463 2.73584 59.6191 2.78955V3.78564L63.8013 6.57617C64.0112 6.67871 64.1162 6.89355 64.1162 7.2207L64.1235 9.41797C64.1382 9.74512 64.27 10.0112 64.519 10.2163L64.8633 10.4946Z" fill="black"/>
</svg>
