<?xml version="1.0" encoding="UTF-8"?>
<!DOCTYPE svg PUBLIC "-//W3C//DTD SVG 1.1//EN" "http://www.w3.org/Graphics/SVG/1.1/DTD/svg11.dtd">
<!-- Creator: CorelDRAW -->
<svg xmlns="http://www.w3.org/2000/svg" xml:space="preserve" width="10.2447mm" height="10.2447mm" version="1.1" style="shape-rendering:geometricPrecision; text-rendering:geometricPrecision; image-rendering:optimizeQuality; fill-rule:evenodd; clip-rule:evenodd"
viewBox="0 0 76.46 76.46"
 xmlns:xlink="http://www.w3.org/1999/xlink"
 xmlns:xodm="http://www.corel.com/coreldraw/odm/2003">
 <defs>
  <style type="text/css">
   <![CDATA[
    .fil0 {fill:#124C5F}
    .fil1 {fill:white}
    .fil2 {fill:#124C5F;fill-rule:nonzero}
   ]]>
  </style>
 </defs>
 <g id="Слой_x0020_1">
  <metadata id="CorelCorpID_0Corel-Layer"/>
  <g id="_2531478096384">
   <g id="Desktop">
    <g id="About-Us">
     <g id="Group-4">
      <circle id="Oval" class="fil0" cx="38.23" cy="38.23" r="38.23"/>
      <g id="Group-15">
       <path id="Fill-1" class="fil1" d="M45.73 22.52c-1.95,1.97 -3.91,3.94 -5.86,5.91 -0.16,0.16 -0.31,0.2 -0.51,0.17 -1.92,-0.25 -3.84,-0.49 -5.76,-0.74 -1.74,-0.22 -3.49,-0.45 -5.23,-0.67 -1.75,-0.22 -3.49,-0.44 -5.23,-0.66 -0.12,-0.01 -0.24,-0.04 -0.39,-0.06 0.09,-0.09 0.15,-0.17 0.21,-0.24 2.27,-2.38 4.54,-4.76 6.8,-7.14 0.12,-0.12 0.23,-0.15 0.39,-0.13 1.47,0.18 2.94,0.34 4.4,0.51 1.48,0.17 2.95,0.34 4.43,0.51 1.47,0.17 2.94,0.34 4.4,0.5 1.24,0.14 2.48,0.29 3.74,0.43 -0.01,0.09 -0.01,0.17 -0.03,0.24 -1.04,4.84 -2.08,9.67 -3.12,14.51 -0.03,0.15 -0.03,0.32 -0.03,0.48 -0,7.62 -0,15.24 -0,22.86l0 0.39c-0.28,-0.05 -0.53,-0.1 -0.79,-0.15 -4.3,-0.89 -8.6,-1.79 -12.91,-2.69 -2.06,-0.43 -4.11,-0.86 -6.17,-1.28 -0.2,-0.04 -0.22,-0.15 -0.22,-0.31 -0.01,-2.01 -0.03,-4.03 -0.04,-6.04 -0.04,-4.35 -0.07,-8.71 -0.11,-13.06 -0.01,-0.84 -0.02,-1.68 -0.02,-2.53 0,-0.13 0.04,-0.28 0.1,-0.4 0.86,-1.43 1.74,-2.85 2.6,-4.29 0.1,-0.16 0.2,-0.21 0.38,-0.19 1.54,0.23 3.08,0.44 4.62,0.67 1.67,0.24 3.34,0.48 5.01,0.72 1.31,0.19 2.63,0.37 3.94,0.57 0.3,0.05 0.48,0.01 0.66,-0.28 1.59,-2.52 3.2,-5.03 4.81,-7.54 0.06,-0.09 0.11,-0.19 0.17,-0.28 -0.03,-0.03 -0.06,-0.06 -0.09,-0.09 -0.06,0.1 -0.11,0.21 -0.18,0.29z"/>
       <path id="Fill-3" class="fil1" d="M45.25 59.19l0 -0.33c0,-7.65 -0.01,-15.31 0.01,-22.96 0,-0.64 0.19,-1.27 0.32,-1.9 0.84,-4.12 1.67,-8.24 2.51,-12.36 0.02,-0.09 0.04,-0.17 0.07,-0.31 0.05,0.12 0.09,0.19 0.12,0.27 1.56,3.94 3.12,7.88 4.68,11.81 0.07,0.16 0.1,0.34 0.1,0.52 0.01,7.2 0,14.4 0.01,21.6 0,0.25 -0.08,0.36 -0.31,0.46 -2.39,1.01 -4.77,2.03 -7.16,3.05 -0.1,0.04 -0.21,0.08 -0.36,0.14z"/>
      </g>
      <path id="__x0025_" class="fil2" d="M30 44.86c0.42,0 0.81,-0.08 1.16,-0.25 0.35,-0.16 0.65,-0.39 0.9,-0.68 0.25,-0.29 0.45,-0.62 0.59,-1.01 0.14,-0.38 0.21,-0.8 0.21,-1.24 0,-0.44 -0.07,-0.84 -0.2,-1.23 -0.13,-0.38 -0.33,-0.71 -0.58,-1 -0.25,-0.28 -0.55,-0.51 -0.89,-0.67 -0.35,-0.16 -0.73,-0.25 -1.15,-0.25 -0.42,0 -0.81,0.08 -1.16,0.25 -0.35,0.16 -0.65,0.39 -0.9,0.68 -0.25,0.29 -0.45,0.63 -0.59,1.01 -0.14,0.39 -0.21,0.8 -0.21,1.24 0,0.44 0.07,0.84 0.2,1.23 0.13,0.38 0.33,0.71 0.58,1 0.25,0.28 0.55,0.51 0.89,0.67 0.35,0.16 0.73,0.25 1.15,0.25zm0.47 5.69l8.71 -12.01 -2.03 0 -8.71 12.01 2.03 0zm-0.43 -6.95c-0.29,0 -0.53,-0.16 -0.7,-0.48 -0.17,-0.32 -0.26,-0.69 -0.26,-1.12 0,-0.42 0.08,-0.78 0.23,-1.09 0.16,-0.31 0.39,-0.47 0.7,-0.47 0.29,0 0.52,0.16 0.7,0.48 0.17,0.32 0.26,0.69 0.26,1.12 0,0.42 -0.08,0.78 -0.23,1.09 -0.16,0.31 -0.39,0.47 -0.7,0.47zm6.92 7.58c0.42,0 0.81,-0.08 1.16,-0.25 0.35,-0.16 0.65,-0.39 0.9,-0.68 0.25,-0.29 0.45,-0.62 0.59,-1.01 0.14,-0.38 0.21,-0.8 0.21,-1.24 0,-0.44 -0.07,-0.84 -0.2,-1.23 -0.13,-0.38 -0.33,-0.71 -0.58,-1 -0.25,-0.28 -0.55,-0.51 -0.89,-0.67 -0.35,-0.16 -0.73,-0.25 -1.15,-0.25 -0.42,0 -0.81,0.08 -1.16,0.25 -0.35,0.16 -0.65,0.39 -0.9,0.68 -0.25,0.29 -0.45,0.63 -0.59,1.01 -0.14,0.39 -0.21,0.8 -0.21,1.24 0,0.44 0.07,0.84 0.2,1.23 0.13,0.38 0.33,0.71 0.58,1 0.25,0.28 0.55,0.51 0.89,0.67 0.35,0.16 0.73,0.25 1.15,0.25zm0.03 -1.9c-0.29,0 -0.52,-0.16 -0.7,-0.48 -0.17,-0.32 -0.26,-0.69 -0.26,-1.12 0,-0.42 0.08,-0.78 0.23,-1.09 0.16,-0.31 0.39,-0.47 0.7,-0.47 0.29,0 0.52,0.16 0.7,0.48 0.18,0.32 0.26,0.69 0.26,1.12 0,0.42 -0.08,0.78 -0.23,1.09 -0.16,0.31 -0.39,0.47 -0.7,0.47z"/>
     </g>
    </g>
   </g>
  </g>
 </g>
</svg>
