<?xml version="1.0" encoding="UTF-8"?>
<!DOCTYPE svg PUBLIC "-//W3C//DTD SVG 1.1//EN" "http://www.w3.org/Graphics/SVG/1.1/DTD/svg11.dtd">
<!-- Creator: CorelDRAW -->
<svg xmlns="http://www.w3.org/2000/svg" xml:space="preserve" width="10.2447mm" height="10.2447mm" version="1.1" style="shape-rendering:geometricPrecision; text-rendering:geometricPrecision; image-rendering:optimizeQuality; fill-rule:evenodd; clip-rule:evenodd"
viewBox="0 0 169.87 169.87"
 xmlns:xlink="http://www.w3.org/1999/xlink"
 xmlns:xodm="http://www.corel.com/coreldraw/odm/2003">
 <defs>
  <style type="text/css">
   <![CDATA[
    .fil0 {fill:#124C5F}
    .fil1 {fill:white;fill-rule:nonzero}
   ]]>
  </style>
 </defs>
 <g id="Слой_x0020_1">
  <metadata id="CorelCorpID_0Corel-Layer"/>
  <g id="_2531477199600">
   <g id="Desktop">
    <g id="About-Us">
     <g id="Group-7">
      <circle id="Oval-Copy-12" class="fil0" cx="84.94" cy="84.94" r="84.94"/>
      <g id="noun-free-1684223">
       <path id="Shape" class="fil1" d="M78.89 118.68c-6.55,-0.73 -12.04,-2.85 -16.49,-5.84l-17.25 12.21c-0.17,0.12 -0.4,0.08 -0.51,-0.09l-5.25 -7.41c-0.12,-0.17 -0.08,-0.4 0.09,-0.52l85.26 -60.37c0.17,-0.12 0.4,-0.08 0.51,0.09l5.25 7.4c0.12,0.17 0.08,0.4 -0.09,0.52l-0 0 -26.22 18.56c4,3.18 6.67,7.66 6.67,14.4 0,9.67 -6.04,19.52 -22.14,21.09l0 7.24c0,0.2 -0.16,0.37 -0.37,0.37l-9.09 0c-0.2,0 -0.37,-0.17 -0.37,-0.37l-0 -7.3zm0 -74.34l0 -7.47c0,-0.2 0.17,-0.37 0.37,-0.37l9.09 0c0.2,0 0.37,0.17 0.37,0.37l0 7.48c8.58,1 15.41,4.46 20.5,9.81l-5.44 6.63c-5.44,-5.98 -13.06,-8.7 -21.01,-8.7 -8.71,0 -14.91,4.67 -14.91,11.52 0,7.42 8.89,9.53 18.59,12.17l-10.27 7.07c-9.34,-2.92 -17.68,-7.3 -17.68,-18.7 0,-10.65 8.46,-18.29 20.39,-19.83l-0 -0zm16.77 44.95l-25.5 18.06c4,2.14 8.78,3.57 14.25,3.57 12.95,0 17.09,-6.96 17.09,-12.5 0,-4.33 -2.3,-7.1 -5.84,-9.12l0 0z"/>
      </g>
     </g>
    </g>
   </g>
  </g>
 </g>
</svg>
