<?xml version="1.0" encoding="UTF-8"?>
<!DOCTYPE svg PUBLIC "-//W3C//DTD SVG 1.1//EN" "http://www.w3.org/Graphics/SVG/1.1/DTD/svg11.dtd">
<!-- Creator: CorelDRAW -->
<svg xmlns="http://www.w3.org/2000/svg" xml:space="preserve" width="10.2447mm" height="10.2447mm" version="1.1" style="shape-rendering:geometricPrecision; text-rendering:geometricPrecision; image-rendering:optimizeQuality; fill-rule:evenodd; clip-rule:evenodd"
viewBox="0 0 765.93 765.93"
 xmlns:xlink="http://www.w3.org/1999/xlink"
 xmlns:xodm="http://www.corel.com/coreldraw/odm/2003">
 <defs>
  <style type="text/css">
   <![CDATA[
    .fil0 {fill:#124C5F}
    .fil1 {fill:white}
   ]]>
  </style>
 </defs>
 <g id="Слой_x0020_1">
  <metadata id="CorelCorpID_0Corel-Layer"/>
  <circle id="Oval-Copy-9" class="fil0" cx="382.96" cy="382.97" r="382.97"/>
  <path id="Fill-1" class="fil1" d="M363.23 380.79c-38.88,19.17 -77.6,38.28 -116.84,57.61 1.8,0.96 3.15,1.74 4.58,2.39 9.7,4.31 19.76,7.11 30.43,7.62 11.24,0.55 22.49,0.49 33.64,-1.45 5.2,-0.9 10.02,-2.85 14.3,-6.06 2.94,-2.2 4.79,-5.02 4.47,-8.78 -0.49,-5.88 -1.26,-11.75 -1.85,-17.63 -0.52,-4.75 -0.93,-9.54 -1.37,-14.36 0.6,0 0.78,-0.05 0.85,0 8.91,6.95 15.95,15.34 18.5,26.62 1.23,5.37 1.16,11.01 1.7,16.55 0.28,2.77 0.4,5.56 0.98,8.25 0.75,3.36 2.36,6.17 5.5,8.07 4.12,2.5 5.98,6.52 6.07,11.26 0.18,9.82 0.25,19.62 0.31,29.44 0.02,4.17 -0.18,8.34 -0.14,12.52 0.01,1.88 0.13,3.92 1.87,5.15 5.82,4.08 7.15,10.29 7.54,16.77 0.4,6.5 0.46,13.02 -1.17,19.43 -2.02,7.84 -6.07,9.28 -13.67,9.1 -2.28,-0.05 -3.84,-1.79 -4.52,-4.17 -1.2,-4.35 -0.01,-8.16 2.77,-11.44 2.47,-2.89 2.57,-5.61 1.39,-9.26 -3.28,-10.14 -9.62,-17.17 -19.19,-21.46 -4.23,-1.91 -6.22,-5.64 -7.67,-9.87 -0.8,-2.42 -1.65,-4.96 -3.12,-6.95 -1.47,-1.96 -3.58,-3.55 -5.73,-4.81 -1.02,-0.6 -3.01,-0.55 -4.05,0.07 -5.42,3.21 -11.44,4.63 -17.38,6.12 -9.31,2.32 -18.56,4.8 -27.95,6.51 -5.97,1.08 -12.16,0.72 -18.22,1.32 -3.77,0.4 -7.54,1.23 -11.21,2.21 -2.44,0.66 -3.97,2.53 -4.45,5.19 -1.54,8.58 -2.95,17.16 -4.77,25.66 -1.05,5.06 -2.44,10.1 -4.27,14.92 -1.76,4.62 -7.57,6.97 -12.16,5.69 -2.09,-0.59 -3.47,-1.94 -4.31,-3.75 -1.07,-2.29 -2.95,-3.09 -5.21,-3.37 -2.44,-0.3 -4.91,-0.37 -7.33,-0.82 -2.62,-0.51 -2.94,-1.54 -1.05,-3.48 1.14,-1.19 2.5,-2.37 4.01,-2.95 6.3,-2.4 7.7,-7.53 7.84,-13.53 0.16,-7.78 0.28,-15.53 0.62,-23.28 0.28,-5.7 0,-11.31 -1.53,-16.78 -0.79,-2.83 -2.24,-5.5 -3.48,-8.19 -3.6,-7.75 -7.2,-15.47 -10.91,-23.16 -1.9,-4.01 -3.97,-7.94 -6.05,-11.87 -1.06,-2 -2.87,-2.67 -5.09,-2.77 -4.84,-0.2 -9.33,1.05 -13.68,2.97 -1.6,0.69 -3.21,1.4 -4.86,1.89 -5.36,1.58 -10.18,-0.56 -13.44,-5.88 -2.92,-4.72 -2.82,-9.52 1.41,-13.37 5.05,-4.61 8.49,-9.7 10.03,-16.55 1.13,-5.14 4.22,-9.67 8.18,-13.26 6.64,-6.02 14.34,-7 22.8,-4.84 7.72,1.94 14.5,5.41 20.19,11.05 6.38,6.31 12.78,12.58 19.12,18.92 1.21,1.18 2.15,1.14 3.62,0.42 39.97,-19.76 79.98,-39.49 119.99,-59.18 1.47,-0.73 2.12,-1.49 2.15,-3.25 0.1,-4.22 1.53,-7.8 5.32,-10.22 9.08,-5.77 18.12,-11.63 27.12,-17.52 4.44,-2.93 8.65,-6.23 13.13,-9.05 7.28,-4.58 10.7,-11.17 12,-19.6 1.37,-8.96 3.79,-17.72 5.52,-26.62 1.97,-10.09 14.66,-21 25.58,-21.83 11.7,-0.89 22.95,1.38 34.14,4.25 1.94,0.49 3.78,1.92 5.33,3.3 7.3,6.47 14.6,12.99 21.67,19.71 5.14,4.86 9.99,10.03 14.92,15.11 13.4,13.84 20.87,30.71 23.7,49.59 1.1,7.4 0.96,15.06 0.73,22.58 -0.29,9.35 -1.26,18.69 -1.89,28.02 -0.51,7.15 -5.4,10.6 -11.17,12.9 -3.66,1.44 -7.64,1.67 -11.54,0.34 -6.43,-2.24 -8.61,-7.39 -9.01,-13.65 -0.62,-9.64 -1.29,-19.29 -1.64,-28.94 -0.34,-9.38 -0.84,-18.71 -3.16,-27.86 -0.33,-1.28 -0.7,-2.56 -1.32,-3.69 -0.49,-0.87 -1.41,-1.47 -2.15,-2.2 -0.61,0.76 -1.56,1.41 -1.79,2.29 -0.74,2.95 -1.56,5.95 -1.8,8.99 -3.04,36.88 0.87,72.86 13.11,107.93 7.05,20.13 13.24,40.57 19.62,60.93 1.56,5 2.52,10.21 3.45,15.38 1.36,7.47 -1.7,13.63 -6.85,18.51 -6.05,5.78 -13.97,6.96 -21.93,6.6 -4.06,-0.18 -7.36,-2.83 -8.94,-6.79 -3.33,-8.36 -6.74,-16.68 -9.63,-25.19 -6.86,-20.21 -13.36,-40.51 -20.17,-60.74 -1.08,-3.21 -2.54,-6.42 -4.42,-9.23 -3.56,-5.29 -8.22,-5.28 -11.64,0.09 -1.93,3.03 -3.36,6.49 -4.47,9.92 -6.93,21.18 -13.61,42.44 -20.55,63.61 -1.64,5 -3.69,9.86 -5.8,14.68 -3.62,8.28 -10.29,12.07 -18.97,12.93 -6.35,0.65 -11.88,-1.29 -16.96,-4.9 -4.17,-2.95 -5.64,-7.51 -6.44,-12.26 -0.99,-5.69 0.39,-11.24 1.5,-16.74 3.1,-15.48 8.7,-30.19 13.49,-45.14 4.96,-15.51 10.49,-30.86 15.08,-46.48 4.67,-15.95 7.68,-32.32 8.4,-48.99 0.24,-5.07 -0.62,-10.19 -1.04,-15.28 -0.09,-0.93 -0.49,-1.83 -0.83,-2.72 -1.64,-4.19 -3.63,-4.64 -6.93,-1.69 -7.02,6.26 -14.13,12.44 -22.45,16.9 -3.67,1.96 -7.72,3.81 -11.75,4.33 -7.13,0.93 -13.16,-1.66 -16.71,-8.77z"/>
  <path id="Fill-3" class="fil1" d="M409.91 204.75c-0.04,-25.55 20.59,-46.4 45.99,-46.5 25.3,-0.1 46.06,20.75 46.11,46.32 0.04,25.82 -20.43,46.62 -45.93,46.65 -25.52,0.04 -46.11,-20.72 -46.17,-46.47z"/>
 </g>
</svg>
