<?xml version="1.0" encoding="UTF-8"?>
<!DOCTYPE svg PUBLIC "-//W3C//DTD SVG 1.1//EN" "http://www.w3.org/Graphics/SVG/1.1/DTD/svg11.dtd">
<!-- Creator: CorelDRAW -->
<svg xmlns="http://www.w3.org/2000/svg" xml:space="preserve" width="10.2447mm" height="10.2447mm" version="1.1" style="shape-rendering:geometricPrecision; text-rendering:geometricPrecision; image-rendering:optimizeQuality; fill-rule:evenodd; clip-rule:evenodd"
viewBox="0 0 117.68 117.68"
 xmlns:xlink="http://www.w3.org/1999/xlink"
 xmlns:xodm="http://www.corel.com/coreldraw/odm/2003">
 <defs>
  <style type="text/css">
   <![CDATA[
    .fil0 {fill:#124C5F}
    .fil1 {fill:white;fill-rule:nonzero}
   ]]>
  </style>
 </defs>
 <g id="Слой_x0020_1">
  <metadata id="CorelCorpID_0Corel-Layer"/>
  <g id="_2531482849280">
   <g id="Desktop">
    <g id="About-Us">
     <g id="Group-9">
      <circle id="Oval-Copy-3" class="fil0" cx="58.84" cy="58.84" r="58.84"/>
      <g id="noun-certificate-21898">
       <path id="Shape" class="fil1" d="M80.33 28.2l-46.3 0c0,0.69 0,1.45 0,2.3l0 57.64c0,0.85 0,1.61 0,2.3l48.63 0c0,-0.69 0,-1.45 0,-2.3l0 -59.94 -2.33 0zm-33.96 5.95c3.75,0 6.79,3 6.79,6.71 0,2.73 -1.65,5.07 -4.01,6.12l0 6.12 -2.78 -1.45 -2.78 1.45 0 -6.12c-2.36,-1.05 -4.01,-3.39 -4.01,-6.12 0,-3.71 3.04,-6.71 6.79,-6.71zm28.55 44.11l-33.15 0 0 -2.17 33.15 0 0 2.17zm0 -8.93l-33.15 0 0 -2.17 33.15 0 0 2.17zm0 -8.93l-33.15 0 0 -2.16 33.15 0 0 2.16zm0 -8.93l-17.94 0 0 -2.17 17.94 0 0 2.17zm0 -8.93l-17.94 0 0 -2.17 17.94 0 0 2.17z"/>
      </g>
     </g>
    </g>
   </g>
  </g>
 </g>
</svg>
