<?xml version="1.0" encoding="UTF-8"?>
<!DOCTYPE svg PUBLIC "-//W3C//DTD SVG 1.1//EN" "http://www.w3.org/Graphics/SVG/1.1/DTD/svg11.dtd">
<!-- Creator: CorelDRAW -->
<svg xmlns="http://www.w3.org/2000/svg" xml:space="preserve" width="10.2447mm" height="10.2447mm" version="1.1" style="shape-rendering:geometricPrecision; text-rendering:geometricPrecision; image-rendering:optimizeQuality; fill-rule:evenodd; clip-rule:evenodd"
viewBox="0 0 63.73 63.73"
 xmlns:xlink="http://www.w3.org/1999/xlink"
 xmlns:xodm="http://www.corel.com/coreldraw/odm/2003">
 <defs>
  <style type="text/css">
   <![CDATA[
    .fil0 {fill:#124C5F}
    .fil1 {fill:white;fill-rule:nonzero}
   ]]>
  </style>
 </defs>
 <g id="Слой_x0020_1">
  <metadata id="CorelCorpID_0Corel-Layer"/>
  <g id="_2531486729024">
   <g id="Desktop">
    <g id="About-Us">
     <g id="Group-11">
      <circle id="Oval-Copy-4" class="fil0" cx="31.87" cy="31.87" r="31.87"/>
      <g id="noun-excitement-56162">
       <path id="Shape" class="fil1" d="M32.13 14.75c-9.31,0 -16.85,7.55 -16.85,16.86 0,9.31 7.55,16.85 16.85,16.85 9.31,0 16.86,-7.55 16.86,-16.85 0,-9.31 -7.55,-16.86 -16.86,-16.86zm-11.42 11.31l3.17 -0.41 1.46 -2.85 1.37 2.89 3.16 0.51 -2.32 2.2 0.5 3.16 -2.81 -1.53 -2.85 1.45 0.58 -3.15 -2.26 -2.26zm11.42 16.41c-4.7,0 -8.51,-3.71 -8.73,-8.37l17.45 0c-0.21,4.65 -4.02,8.37 -8.73,8.37l0 0zm9.6 -10.92l-2.81 -1.53 -2.85 1.45 0.58 -3.15 -2.26 -2.26 3.17 -0.41 1.46 -2.85 1.37 2.89 3.16 0.51 -2.32 2.2 0.5 3.16z"/>
      </g>
     </g>
    </g>
   </g>
  </g>
 </g>
</svg>
