<?xml version="1.0" encoding="UTF-8"?>
<!DOCTYPE svg PUBLIC "-//W3C//DTD SVG 1.1//EN" "http://www.w3.org/Graphics/SVG/1.1/DTD/svg11.dtd">
<!-- Creator: CorelDRAW -->
<svg xmlns="http://www.w3.org/2000/svg" xml:space="preserve" width="10.2447mm" height="10.2447mm" version="1.1" style="shape-rendering:geometricPrecision; text-rendering:geometricPrecision; image-rendering:optimizeQuality; fill-rule:evenodd; clip-rule:evenodd"
viewBox="0 0 43.7 43.7"
 xmlns:xlink="http://www.w3.org/1999/xlink"
 xmlns:xodm="http://www.corel.com/coreldraw/odm/2003">
 <defs>
  <style type="text/css">
   <![CDATA[
    .fil0 {fill:#124C5F}
    .fil1 {fill:white;fill-rule:nonzero}
   ]]>
  </style>
 </defs>
 <g id="Слой_x0020_1">
  <metadata id="CorelCorpID_0Corel-Layer"/>
  <g id="_2531566168448">
   <g id="Desktop">
    <g id="About-Us">
     <g id="Group-12">
      <circle id="Oval-Copy-5" class="fil0" cx="21.85" cy="21.85" r="21.85"/>
      <g id="noun-dog-head-963949">
       <path id="Shape" class="fil1" d="M22.03 12.28c-14.47,0 -12.91,13.33 -12.23,13.54 0.69,0.21 2.01,-0.32 3.72,-4.85 1.4,12.83 5.28,11.25 7.38,9.98 0.3,-0.18 0.71,-0.58 0.71,-0.98l0 -1.13c0,-0.69 -0.9,-1.24 -1.48,-1.82 -0.36,-0.36 -0.58,-0.82 -0.58,-1.33 0,-1.15 1.11,-1.45 2.49,-1.45 1.37,0 2.49,0.3 2.49,1.45 0,0.51 -0.22,0.97 -0.58,1.33 -0.58,0.58 -1.48,1.12 -1.48,1.82l0 1.13c0,0.4 0.41,0.8 0.7,0.98 2.09,1.26 5.97,2.85 7.37,-9.98 1.71,4.53 3.03,5.06 3.72,4.85 0.69,-0.21 2.24,-13.54 -12.23,-13.54l0 -0zm-3.83 10.17c-0.92,0 -1.66,-0.75 -1.66,-1.69 0,-0.93 0.74,-1.69 1.66,-1.69 0.92,0 1.66,0.75 1.66,1.69 0,0.93 -0.74,1.69 -1.66,1.69zm7.67 0c-0.92,0 -1.66,-0.75 -1.66,-1.69 0,-0.93 0.74,-1.69 1.66,-1.69 0.92,0 1.66,0.75 1.66,1.69 0,0.93 -0.74,1.69 -1.66,1.69z"/>
      </g>
     </g>
    </g>
   </g>
  </g>
 </g>
</svg>
