<svg width="53" height="12" viewBox="0 0 53 12" fill="none" xmlns="http://www.w3.org/2000/svg">
<path d="M8.53125 11.4609L8.09375 11.5703C6.89062 11.8568 5.60677 12 4.24219 12C3.05469 12 1.95833 11.8854 0.953125 11.6562L0.773438 11.625V8.57812C1.1901 8.97396 1.66146 9.2526 2.1875 9.41406C2.72396 9.58073 3.27344 9.67448 3.83594 9.69531C4.50781 9.73177 5.09115 9.72396 5.58594 9.67188V8.64062L1.24219 5.71094C0.929688 5.52344 0.773438 5.20312 0.773438 4.75C0.783854 3.30729 0.789062 2.59115 0.789062 2.60156C0.778646 2.2474 0.635417 1.96354 0.359375 1.75L0 1.45312L0.445312 1.33594C1.66406 1.05469 2.91406 0.914062 4.19531 0.914062C4.89844 0.914062 5.66406 0.96875 6.49219 1.07812C6.73698 1.10938 6.98958 1.14844 7.25 1.19531C7.45833 1.22656 7.5625 1.24219 7.5625 1.24219L7.73438 1.28906V4.33594L7.38281 4.02344C7.1901 3.85156 6.83854 3.67708 6.32812 3.5C5.92188 3.34375 5.34635 3.24479 4.60156 3.20312C3.84115 3.17188 3.28646 3.1849 2.9375 3.24219V4.30469L7.39844 7.28125C7.6224 7.39062 7.73438 7.61979 7.73438 7.96875L7.74219 10.3125C7.75781 10.6615 7.89844 10.9453 8.16406 11.1641L8.53125 11.4609ZM12.6953 2.09375C12.6797 1.85417 12.7318 1.65625 12.8516 1.5C12.9297 1.39583 13.0208 1.29427 13.125 1.19531L13.4766 0.867188H9.70312L10.0859 1.20312C10.3828 1.45833 10.526 1.75781 10.5156 2.10156V10.7734C10.5312 10.9922 10.4766 11.1927 10.3516 11.375C10.3307 11.4062 10.2708 11.4714 10.1719 11.5703C10.1146 11.6224 10.0781 11.6589 10.0625 11.6797L9.75781 12H13.5234L13.1172 11.6641C12.8464 11.4349 12.7057 11.1328 12.6953 10.7578V2.09375ZM19.9219 6.57031C20.2083 6.79948 20.3464 7.09115 20.3359 7.44531V9.72656C20.0443 9.77865 19.7135 9.8099 19.3438 9.82031C18.5885 9.85677 18.026 9.84896 17.6562 9.79688C17.349 8.85938 17.1953 7.73698 17.1953 6.42969C17.1953 5.14323 17.349 4.02344 17.6562 3.07031C18.0208 3.01823 18.5833 3.01042 19.3438 3.04688C20.1146 3.08854 20.7188 3.1875 21.1562 3.34375C21.6094 3.51042 21.9427 3.66927 22.1562 3.82031L22.4609 4.03906V1.19531L22.3047 1.16406C21.1432 0.966146 20.0208 0.867188 18.9375 0.867188C17.4531 0.867188 16.1641 1.00521 15.0703 1.28125L14.7031 1.38281L15 1.61719C15.276 1.84115 15.4583 2.07812 15.5469 2.32812C15.5729 2.42188 15.5885 2.53385 15.5938 2.66406C15.5938 2.77344 15.5911 2.82812 15.5859 2.82812C15.237 3.75 15.0625 4.95052 15.0625 6.42969C15.0625 8.73177 15.4219 10.4948 16.1406 11.7188L16.1797 11.7969L16.2734 11.8125C17.1068 11.9375 17.9948 12 18.9375 12C20.0521 12 21.1745 11.8984 22.3047 11.6953L22.4609 11.6719L22.4453 7.4375C22.4401 7.20833 22.4974 7.00781 22.6172 6.83594C22.6536 6.78385 22.7396 6.6901 22.875 6.55469L23.2188 6.22656H19.5L19.9219 6.57031ZM32.6953 11.5781C32.4401 11.3698 32.2995 11.125 32.2734 10.8438V0.914062H30.1016V6.9375L27.1094 0.914062H24.3906L24.9219 1.33594L25.25 1.73438C25.3073 1.88021 25.3307 2.02865 25.3203 2.17969V12H27.4688V6.35938L30.1797 12L33.2031 11.9844L32.6953 11.5781ZM41.3359 2.09375C41.3203 1.85417 41.3724 1.65625 41.4922 1.5C41.5703 1.39583 41.6615 1.29427 41.7656 1.19531L42.1172 0.867188H38.3438L38.7266 1.20312C39.0234 1.45833 39.1667 1.75781 39.1562 2.10156V10.7734C39.1719 10.9922 39.1172 11.1927 38.9922 11.375C38.9714 11.4062 38.9115 11.4714 38.8125 11.5703C38.7552 11.6224 38.7188 11.6589 38.7031 11.6797L38.3984 12H42.1641L41.7578 11.6641C41.487 11.4349 41.3464 11.1328 41.3359 10.7578V2.09375ZM51.6484 11.5781C51.3932 11.3698 51.2526 11.125 51.2266 10.8438V0.914062H49.0547V6.9375L46.0625 0.914062H43.3438L43.875 1.33594L44.2031 1.73438C44.2604 1.88021 44.2839 2.02865 44.2734 2.17969V12H46.4219V6.35938L49.1328 12L52.1562 11.9844L51.6484 11.5781Z" fill="white"/>
</svg>
