<?xml version="1.0" encoding="UTF-8"?>
<!DOCTYPE svg PUBLIC "-//W3C//DTD SVG 1.1//EN" "http://www.w3.org/Graphics/SVG/1.1/DTD/svg11.dtd">
<!-- Creator: CorelDRAW -->
<svg xmlns="http://www.w3.org/2000/svg" xml:space="preserve" width="16.3244mm" height="15.8241mm" version="1.1" style="shape-rendering:geometricPrecision; text-rendering:geometricPrecision; image-rendering:optimizeQuality; fill-rule:evenodd; clip-rule:evenodd"
viewBox="0 0 32.97 31.96"
 xmlns:xlink="http://www.w3.org/1999/xlink"
 xmlns:xodm="http://www.corel.com/coreldraw/odm/2003">
 <defs>
  <style type="text/css">
   <![CDATA[
    .fil0 {fill:#FF6E9F;fill-rule:nonzero}
   ]]>
  </style>
 </defs>
 <g id="Слой_x0020_1">
  <metadata id="CorelCorpID_0Corel-Layer"/>
  <g id="_2855642183760">
   <path class="fil0" d="M17.23 16.06c-1.77,-3.01 -4.92,-2.13 -9.03,-3.45 -5.98,-1.89 -8.83,0.76 -8.07,3.67 0.68,2.84 4.64,3.41 5.99,6.19 1.54,2.69 -0.06,6.39 2.04,8.53 2.02,2.08 5.69,1.02 7.25,-5.25 1.02,-4.2 3.49,-6.53 1.83,-9.69z"/>
   <path class="fil0" d="M15.45 7.36c-1.33,3.05 -4,4.71 -5.9,3.86 -1.9,-0.85 -2.35,-4.13 -0.96,-7.12 1.33,-3.05 3.93,-4.77 5.91,-3.86 1.97,0.91 2.28,4.07 0.95,7.12z"/>
   <path class="fil0" d="M23.56 22.28c-3.21,-0.44 -5.97,1.02 -6.24,3.2 -0.26,2.18 2.16,4.22 5.36,4.52 3.21,0.44 5.97,-1.02 6.23,-3.2 0.26,-2.18 -2.16,-4.22 -5.35,-4.52z"/>
   <path class="fil0" d="M24.8 10.71c-2.62,2.21 -5.88,2.61 -7.33,0.89 -1.45,-1.73 -0.42,-5.02 2.21,-7.23 2.62,-2.21 5.88,-2.61 7.33,-0.89 1.45,1.73 0.41,5.02 -2.21,7.23z"/>
   <path class="fil0" d="M25.63 12.29c-3.26,1.16 -5.23,3.79 -4.49,5.94 0.75,2.14 3.92,2.93 7.18,1.77 3.26,-1.16 5.24,-3.79 4.49,-5.94 -0.75,-2.14 -3.92,-2.93 -7.18,-1.77z"/>
  </g>
 </g>
</svg>
