<?xml version="1.0" encoding="UTF-8"?>
<svg id="_Слой_1" data-name="Слой 1" xmlns="http://www.w3.org/2000/svg" viewBox="0 0 678.18 156.38">
  <defs>
    <style>
      .cls-1 {
        fill: #5e2d19;
      }

      .cls-1, .cls-2, .cls-3, .cls-4, .cls-5 {
        stroke-width: 0px;
      }

      .cls-2 {
        fill: #fceada;
      }

      .cls-3 {
        fill: #e2bd97;
      }

      .cls-4 {
        fill: #682a11;
      }

      .cls-5 {
        fill: #fef6e8;
      }
    </style>
  </defs>
  <path class="cls-1" d="m553.68,115.73c-11.72,4.79-29.43,1.13-41.57-.52-9.85-1.34-1.3,1.33-2.97,6.12-1.4,4.01-11.09,3.98-14.57,4.33-11.46,1.14-27.07,1.71-37.61-3.81-4.66-2.45-7.99-6.52-10.34-11.16-1.79-3.53-2.34-11.09-5.83-12.59-1.24-.53-6.29.49-7.16,1.67-1.85,2.52,1.93,5.16,3.28,6.83,3.94,4.85,3.68,8.83-3.27,8.58-6.81-.24-13.18-3.49-19.83-4.71-6.85-1.26-13.85-1.4-20.79-1.63-5.35-.17-11.34-.15-16.35-2.33-4.9-2.13-6-6.51-9.56-9.71-4.93-4.41-21.11-15.72-10.6-23.56-2.57,7.49-.55,12.2,4.8,17.7,2.46,2.53,6.61,3.12,8.79,5.85,1.63,2.03.57,3.96,3.25,4.34.04-1.13-.27-2.24.43-3.17l.02-.02c.44.03.84.14,1.07.57-3.73,2.94,7.59,6.71,9.2,6.92,6.49.86,13.19.68,19.72,1.28,6.78.63,13.55,1.56,20.16,3.2,3.08.76,16.84,5.66,10.96-1.8-1.46-2.14-3.26-4.01-4.33-6.45-1.38-3.13-.32-5.69,3.19-7-4.32,6.84,8.77,1.31,7.53-2.11.19-9.28-16.54-7.74-22.29-12.04-9.78-7.3-10.43-20.41-6.93-31.11.12-.12.24-.24.35-.37,2.64,1.3,4.17,3.71,5.92,5.9,2.01,4.99,5.67,16.45-3.42,15.54-1.75,2.65,6.55,8.75,8.35,9.62,1.7.82,16.6,4.8,16.95,3.82.7-.36,1.4-.72,2.11-1.08,1.08,3.31,1.02,6.83,1.85,10.19,1.81,7.37,3.33,14.85,7.99,21.14,5.13,8.37,18.11,9.18,26.8,9.59,2.86.13,30.47-.06,26.26-5.42-1.11-1.58-2.53-2.71-4.46-3.11-3.62-4.23-14.53-5.94-19.67-8.02-5.44-2.2-11.44-4.19-15.4-8.77-2.68-3.77-4.43-7.89-4.91-13.26,2.3,5.21,4.99,9.26,8.97,12.44-5.17-18.3-4.01-39.16-22.16-49.75,16.83,1.51,18.57,23.25,20.98,36.12,4.03-8.64,4.3-35.35-6.79-39.44.17,2.03,1.58,3.69,1.06,5.95-2.48-4.75-4.63-9.32-9.6-11.5-.69-.62-1.54-.84-2.43-1.03-8.68-1.86-17.27-.73-25.84.76-.85.16-1.7.33-2.55.49-.38.11-.75.22-1.13.33-1.26-.01-2.38.38-3.59.95.85,1.25,1.98,1.8,2.97,2.51h.01c2.24,3.25,5.98,5.67,5.88,10.93-2.35-3.16-12.48-16.3-17.3-12.15-3.96,3.4,1.86,11.55-.07,16-2.21,5.1-12.11,7.03-16.9,8.53-2.47.77-5.55.77-6.16,3.13-.64,2.45,2.71,7.56,2.44,10.68-2.14-2.76-2.09-7.43-3.81-10.6-1.8-3.31.77-1.54-2.19-2.86-1.63-.73-6.78-.14-8.58-.18,4.04-1.65,8.61-.38,12.86-1.42,5.12-1.25,12.26-2.31,16.81-5.07,8.4-5.09-2.88-16.59,5.52-21.26,2.21-1.23,4.92-.27,7.44-.54,2.69-.29,5.41-1.08,8.1-1.52,6.13-1.01,12.36-1.83,18.58-1.9,4.49-.05,8.74.5,12.53,3.09,2.08,1.42,3.4,4.01,5.63,5.1,2.34,1.14,5.2.45,7.65.33,4.96-.25,9.89.61,14.8-.39,5.5-1.12,10.62-4.27,16.26-4.64,6.04-.39,12.61,1.3,18.71,1.55,6.29.26,12.59.18,18.88-.19,23.74-1.4,47.53-9.93,71.32-5.57,11.37,2.08,23.99,3.03,31.62-7.62,5.6-7.82,4.83-18.39.2-26.43,10.26,3,14.98,15.15,15.04,24.97.08,13.3-8.44,20.64-18.29,28.03,5.27,4.44,8.6,10.44,11.11,16.75,2.35,5.9,3.38,12.97,7.57,17.94,1.81,2.15,4.02,3.79,6.64,4.84,2.07.83,5.01.72,6.64,2.37,1.93,1.95,1.48,6.54,1.95,9.08.67,3.65,1.58,7.27,2.97,10.72,2.12,5.26,6.16,11.61,1.42,16.79-4.57,5-13.44,5.74-19.67,4.78-5.1-.79-16.52-2.54-20.06-6.89-4.71-5.79,2.11-11.19,7.15-13.05,3.17-.83,6.41-.97,9.66-.97.55.18,1.11.36,1.66.53-.13.09-.16.2-.08.33-1.21.08-2.42.16-3.63.24-3.78.26-17.76,4.41-11.99,10.53,4.54,4.82,6.43-6.89,12.44-6.49-2.76,2.39-10.5,9.01-3.77,11.52,5.51,2.06,5.09-5.28,8.68-7.55h-.01c-.74,2.55-2.75,6.57-.55,8.92,2.45,2.62,8.63.85,11.36.07,12.38-4.03,7.61-9.96,4.27-19.65-1.56-4.54-1.05-10.36-2.91-14.56-1.74-3.91-5.28-3.09-8.72-4.6-9.53-4.18-10.63-15.33-13.53-23.86-3.53-10.38-12.11-17.15-19.64-24.61,1.08.4,2.15.8,3.23,1.21,5.93,3.97,9.33,2.86,14.59-2.19,4.47-4.29,8.06-10.58,8.15-16.9,1.92-7.3-1.44-19.12-6.45-22.21,1.6,4.94,1.06,9.79.22,14.64-7.05,15.46-20.01,20-36.29,16.35-18.82-4.21-35.77,1.01-54.47,3.36-18.08,1.8-35.25.57-53.28.01-3.6-.11-6.82.54-10.16,1.79-1.68.63-8.83,2.33-9.89,3.99-1.15,1.79.58,5.08,1,7.19.76,3.77.8,7.59,1.03,11.42,1.74-3.19,4.68-13.6,9.12-14.18v-.04c-.64,1.36-1.26,2.72-1.89,4.09-2.5,4.89-4.72,9.9-6.92,14.93-1.41,3.23-4.42,7.67-3.94,11.34.77,5.95,9.8,14.36,14.63,17.14,3.18,2.37,6.96,2.6,10.72,2.99-8.42,3.94-13.52-2.33-19.28-7.17-1.9-1.6-5.43-4.1-6.34.45-.61,3.03,3.32,6.25,4.9,8.4-2.03.04-3-2.04-4.67-2.17-2.4-.19-3.07.89-5.28,1.68,6.12,4.11,12.74,5.17,18.92,7.32,3.52,1.57,7.58,4.5,11.13,3.3,3.15-1.06,6.98-5.45,10-7.26,3.63-2.18,22.69-9.59,18.88-15.24-1.56-5.38-8.28-9.6-12.04-13.43-.81-.83-7.25-8.7-1.75-7.54-.25-.05,3.67,5.33,4.2,5.81,1.96,1.77,4.1,3.36,6.07,5.12,4.61,4.11,10.31,8.23,6.6,14.7-8.16,7.2-18.81,10.06-27.15,16.89,6.69,2.28,15.06,2.22,22.11,2.75,7.59.58,15.42,1.29,22.55-1.98-.58,1.34-.89,2.17-1.2,2.99Zm-75.78-69.13c.11-.56,0-1.33-.54-1.28-2.66.23-5.42-.55-7.99.66-.34.11-.68.21-1.02.32-.3-.39-.95-1.01-.74.02.17.85.55,2.08,1.79,2.36.12.22.25.44.37.66-.38,3.01,2.01,5.44,1.41,8.89,3.03-1.84,10.66-7.67,6.82-11.43l-.1-.2Zm-66.53,12.81c4.48,1.43,5.97,4.51,5.91,8.74,4.3-4.54.04-11.44-5.91-8.74Zm1.79-8.04c-2.25,4.99-2.1,5.22,4.77,6.91-1.51-2.56-2.64-5.01-4.77-6.91Z"/>
  <path class="cls-4" d="m273.33,156.37c-7.05-.16-38.98-6.13-24.26-17.27,11.71-8.86,29.35-12.06,43.66-12.36,3.61-.08,7.21.06,10.81.07,2.46.01,9.53-1.75,11.62-.62,2.98,1.61,5.41,13.75,3.45,16.41-1.64,2.21-8.46,3.78-11.18,4.89-3.75,1.54-7.55,2.98-11.4,4.25-7.24,2.4-15.01,4.85-22.7,4.63Z"/>
  <path class="cls-4" d="m68.5,141.03c-2.11.63-4.19,1.46-6.47,1.15-.45-.99.44-3.47-.85-3.56-2.31-.16-.4,3.79-1.78,4.49-.56.22-1.13.33-1.71.1-.89-.77-2.28-3.6-3.71-2.78-1.66.94,1.32,2.55,1.57,3.31-13.81,2.72-28.29,3.7-41.4-2.39-4.14-1.92-13.37-6.42-14.1-11.71-.8-5.72,8.93-7.73,13.07-8.72,14.5-3.46,28.6-3.26,43.15-.2,4.18.88,15.34,1,17.28,4.19,1.33,2.18,2.15,15.63-1.64,15.23-.75-1.25,3.14-3.08.35-3.82-.29-.08-8.02,5.07-5.57-.75,1.22.05.36,1.59,1.61,1.76.65.09,2.18-6.54-2.38-4.11-4.56,2.43.77,6.29,2.58,7.81Z"/>
  <path class="cls-4" d="m100.87,104.71c-2.75-.74-5.5-1.5-7.38-3.89,3.6-.28,9.19-6.5,3.36-7.88.1-.13.2-.25.3-.38.19-.19.37-.39.56-.58,8.48-8.63,21.1-12.22,32.91-12.56,7.44-.22,15,.56,22.37,1.51,4.35.56,11.74.05,13.58,4.11,1.19,2.62,1.14,12.81-.93,14.63-1.43,1.26-8.48,1.44-10.59,1.99-3.48.9-6.89,2.04-10.37,2.95-11.98,3.12-28.14,5.27-39.98.77-.64-1.25-3.68-5.56-5.42-5.14-1.91.45,1.78,3.2,1.59,4.47Zm1.71-7.01c-.02,1.73,2.68,5.74,4.66,5.46,2.49-.35-4.2-4.62-2.06-6.28,1.8-1.39,3.31,3.06,4.87,3.14,3.04.15-1.46-3.66-1.57-4.01-2.09-6.41,9.41,5,4.54-1.97-2.95-4.23-10.38-1.19-10.44,3.66Zm12.24-10.3c.84.34.55,1.85,1.63,1.76,1.33-.11.35-7.85-3.47-2.68-1.78,2.4.36,5.79,3.16,6.07,1.86.19,5.68-1.62,3.02-3.09-.33-.19-6.9,2.94-4.34-2.06Z"/>
  <path class="cls-4" d="m374.85,98.51c-.23-.43-.63-.54-1.07-.57-.08-.03-.15-.07-.23-.1.07.04.13.09.2.13-.7.94-.39,2.04-.43,3.17-2.68-.39-1.62-2.31-3.25-4.34-2.18-2.73-6.32-3.32-8.79-5.85-5.35-5.49-7.37-10.21-4.8-17.7,5.15-3.99,11.24-5.6,17.48-6.8,1.8.04,6.95-.55,8.58.18,2.95,1.32.39-.45,2.19,2.86,1.72,3.18,1.67,7.84,3.81,10.6l-.11.08c-.43-.24-1.08-.26-1,.26.4,2.78-1.41,5.2-1.2,7.93-1.64,3.3-4.56,5.43-7.17,7.85-1.39.77-2.8,1.53-4.21,2.3Zm1.95-29.61c-2.81.4-21.04,4.13-17.95,8.44,3.29,4.59,15.91-5.86,17.95-8.44Z"/>
  <path class="cls-4" d="m89.66,139.01c-6.15-.15-6.11-5.92-5.43-11.38,1.04-8.37,13.96-6.11,20.23-5.31,5.72.73,15.85,3.44,8.61,10.4-5.72,5.51-16.02,5.7-23.41,6.29Z"/>
  <path class="cls-4" d="m327.17,125.58c-.98-6.15,36.4-12.42,30.58.72-2.56,5.78-12.2,8.88-17.65,10.54-2.83.86-7.89,3.02-10.28.88-2.05-1.83-2.43-9.59-2.65-12.14Z"/>
  <path class="cls-3" d="m553.68,115.73c.31-.83.62-1.65,1.13-3.02-7.13,3.27-14.95,2.55-22.55,1.98-7.05-.54-15.42-.47-22.11-2.75,8.34-6.83,19-9.69,27.15-16.89.09.43.17.85.26,1.28-.31,5.18-15.39,8.18-8.58,12.21,5.97,3.54,18.26,3.06,24.69,1.84,1.06,1.26,2.07,1.63,3.8.8,1.87-.9,3.66-2.14,5.79-2.47.13.56-.67,1.22.17,1.71h0c-.21-.01-.48-.09-.62.01-.34.25-.13.54.05.8-2.83,1.96-5.78,3.68-9.18,4.5Z"/>
  <path class="cls-4" d="m181.49,99.35c-5.3.68-6.55-13.18-4.1-15.76,1.4-1.48,7.4-.83,9.31-.83,4.63.02,9.3.59,13.65,2.23.02.33.03.66.05,1l-.14.17c-.19.03-.3.14-.33.33l-.19.19c-.65-.02-.97.29-.95.94l-.12.12c-3.87,2.54-7.07,5.75-9.61,9.61l-.11.11c-1.71,1.15-3.5,1.91-5.65,1.59-.57-.08-1.2.19-1.81.3Z"/>
  <path class="cls-3" d="m653.02,115.32c-3.25,0-6.49.14-9.66.97.06-.41.11-.81.17-1.22.76-.03.57-.43.35-.86-1.17-2.37-2.7-4.43-5.01-5.82-9.79-5.91-20.33-10.12-31.15-13.73-4.37-1.46-9.13-1.91-13-4.74,1.34-1.67,12.67,2.49,14.98,2.91,5.78,1.04,11.42,2.28,16.96,4.26,8.5,3.03,23.56,8.37,26.36,18.23Z"/>
  <path class="cls-1" d="m594.72,89.92c3.88,2.83,8.63,3.29,13,4.74,10.81,3.61,21.35,7.81,31.15,13.73,2.31,1.39,3.83,3.45,5.01,5.82.22.43.41.84-.35.86-6.92-8.67-19.02-11.78-28.84-15.89-10.1-4.23-22.98.29-32.94,3.49-3.13-2.14,3.23-2.81,5.13-3.32,5.35-1.43,10.79-2.5,16.2-3.69v-.45c-3.87-1.04-7.74-2.08-11.6-3.12-.67-.49-1.35-.98-2.02-1.47-3.77-4.18-7.98-7.87-12.49-11.33,3.6-2.26,14.22,9.4,17.75,10.63Z"/>
  <path class="cls-4" d="m202.08,85.41c4.24,1.71,8.81,5.73,4.42,9.8-3.99,3.7-12.41,3.94-17.55,4.05-.56-.6.17-1.2,0-1.79l.11-.11c3.86-2.54,7.07-5.74,9.61-9.61l.12-.12c.65.02.97-.29.95-.95l.19-.19c.19-.03.3-.14.33-.33l.14-.17c.41-.13.47-.47.5-.84.43.11.85.22,1.28.32,0,.01-.1-.06-.1-.06Z"/>
  <path class="cls-3" d="m591.46,92.09c3.87,1.04,7.74,2.08,11.6,3.12v.45c-5.41,1.2-10.85,2.27-16.2,3.69-1.9.51-8.26,1.17-5.13,3.32-3.17,1.32-6.34,2.63-9.52,3.95-.15-1.12-1.3-.7-1.85-1.2,1.96-.92,3.86-2.04,5.91-2.7,1.72-.56,2.13-1.19,1.04-2.64.4-.17.8-.34,1.2-.52.22-.15.44-.31.66-.46,4.54-1.59,8.66-3.86,12.29-7.01Z"/>
  <path class="cls-1" d="m68.5,141.03c-1.81-1.52-7.13-5.39-2.59-7.82,4.55-2.44,3.02,4.2,2.38,4.11-1.24-.17-.39-1.71-1.61-1.76-2.45,5.82,5.28.68,5.57.75,2.79.74-1.1,2.57-.35,3.82-1.05.65-2.23.77-3.4.9Z"/>
  <path class="cls-1" d="m96.84,92.95c5.83,1.38.24,7.6-3.36,7.88v-.03c.03-.1.07-.19.11-.29-.06.04-.13.08-.19.12-.96-3.51,1.43-5.51,3.44-7.68Z"/>
  <path class="cls-1" d="m570.38,105.42c.55.5,1.7.08,1.85,1.2l-.75.39-.22-.04-.13.19c-2.69.77-4.77,3-7.68,3.25-.84-.49-.04-1.14-.17-1.71,2.36-1.09,4.73-2.18,7.1-3.28Z"/>
  <path class="cls-1" d="m100.87,104.71c.2-1.27-3.5-4.03-1.59-4.48,1.75-.42,4.78,3.9,5.42,5.14-1.3-.08-2.61-.14-3.83-.66Z"/>
  <path class="cls-1" d="m59.4,143.11c1.39-.7-.53-4.64,1.78-4.49,1.29.09.4,2.57.85,3.56-.82.49-1.64.95-2.63.93Z"/>
  <path class="cls-1" d="m55.54,143.74c-.25-.76-3.22-2.37-1.57-3.31,1.44-.82,2.82,2.01,3.71,2.78-.71.17-1.43.35-2.14.53Z"/>
  <path class="cls-1" d="m188.96,97.47c.16.6-.56,1.19,0,1.79-2.49.22-4.97.46-7.47.09.61-.11,1.24-.38,1.82-.29,2.15.32,3.94-.44,5.65-1.59Z"/>
  <path class="cls-1" d="m200.9,85.16c-.02.36-.09.71-.5.84-.02-.33-.03-.67-.05-1,.19.05.37.1.55.16Z"/>
  <path class="cls-1" d="m562.87,111.22c-.17-.26-.39-.56-.05-.8.14-.1.41-.02.62-.02.01.41-.19.68-.57.82Z"/>
  <polygon class="cls-3" points="571.12 107.16 571.25 106.97 571.48 107.01 571.34 107.19 571.12 107.16"/>
  <path class="cls-1" d="m202.08,85.41l.1.07-.1-.07Z"/>
  <path class="cls-4" d="m93.4,100.62c.06-.04.13-.08.19-.12-.04.1-.08.19-.12.29l-.07-.17Z"/>
  <path class="cls-1" d="m97.7,91.98c-.19.19-.37.39-.56.58.19-.19.38-.38.56-.58Z"/>
  <path class="cls-2" d="m594.72,89.92c-3.53-1.22-14.15-12.88-17.77-10.62,4.51,3.46,8.72,7.15,12.49,11.33-.31.65-8.69,3.19-10,3.67-4.78,1.76-10.38,2.99-15.48,3.09-6.16.12-22.08-7.1-26.4-1.06-.09-.43-.17-.85-.26-1.28,3.71-6.47-2-10.59-6.6-14.7-1.97-1.76-4.11-3.35-6.07-5.12-.53-.48-4.45-5.86-4.2-5.81-5.51-1.16.93,6.71,1.75,7.54,3.76,3.83,10.48,8.05,12.04,13.43-6.51,4.52-13.86,6.54-20.61,10.62-3.52,2.13-6.62,4.57-10.52,6.02-2.38.89-7.2.76-8.88,2.55-6.18-2.16-12.8-3.21-18.92-7.32,2.22-.79,2.88-1.87,5.28-1.68,1.67.13,2.64,2.22,4.67,2.17-1.58-2.15-5.5-5.37-4.9-8.4.91-4.55,4.44-2.05,6.34-.45,5.76,4.83,10.86,11.11,19.28,7.17-3.76-.39-7.54-.63-10.72-2.99,3.31-5.1-1.17-8.06.45-12.61,1.12-3.13,4.47-3.92,5-7.81,1.07-7.95-5.02-16.79-9.22-22.98.63-1.36,1.25-2.72,1.87-4.09-.04-.06-.08-.12-.12-.18.05.08.09.15.14.23-4.45.59-7.38,11-9.12,14.18-.23-3.83-.27-7.64-1.03-11.42-.42-2.11-2.15-5.4-1-7.19,1.07-1.66,8.21-3.36,9.89-3.99,3.35-1.25,6.56-1.9,10.16-1.79,18.02.55,35.19,1.79,53.28-.01,3.6.3,9.17,6.53,12.67,8.3,4.45,2.26,9.29,3.94,14.23,4.7,5.12.8,10.36.45,15.16-1.61,4.83-2.06,8.04-6.83,12.85-8.59,4.65-1.7,9.79.38,14.58.4,4.88.03,10.11-.78,14.43-3.19,3.8-2.13,6.7-5.47,7.97-9.66.45-1.47,1.97-10.06-1.13-10.07.84-4.85,1.37-9.69-.22-14.64,5.01,3.09,8.36,14.91,6.45,22.21-4.44,9.34-10.29,16.98-21.64,18.01-.58.05-.9.54-1.1,1.08-1.08-.4-2.15-.8-3.23-1.21,7.53,7.47,16.11,14.24,19.64,24.61,2.9,8.52,4,19.67,13.53,23.86,3.44,1.51,6.98.68,8.72,4.6,1.87,4.2,1.35,10.02,2.91,14.56,3.34,9.69,8.11,15.62-4.27,19.65.77-5.35-1.33-8.01-5.55-10.68-1.43-.91-10.62-4.58-10.61-6.31,1.21-.08,2.42-.16,3.62-.24.14-.03.29-.06.43-.1-.11-.08-.23-.16-.34-.24-.55-.18-1.11-.36-1.66-.53-2.8-9.85-17.86-15.19-26.36-18.23-5.54-1.98-11.18-3.22-16.96-4.26-2.27-.43-13.61-4.59-14.94-2.92Z"/>
  <path class="cls-2" d="m379.08,96.21c2.6-2.42,5.53-4.55,7.17-7.85,1.72-2.46,2.63-5.14,2.2-8.18,0,0,.11-.09.11-.08.27-3.11-3.08-8.23-2.44-10.67.62-2.37,3.69-2.36,6.16-3.13,4.79-1.49,14.68-3.43,16.9-8.53,1.93-4.45-3.89-12.6.07-16,4.83-4.14,14.95,8.99,17.3,12.15.1-5.27-3.65-7.68-5.88-10.92,1.49-2.06,5.13-1.18,7.19-1.18,3.35-.01,4.5-1.2,7.38-2.01,3.06-.86,17.57,2.13,17.99-.85,4.97,2.19,7.12,6.75,9.6,11.5.52-2.26-.89-3.92-1.06-5.95,11.09,4.1,10.82,30.81,6.79,39.44-2.41-12.87-4.15-34.61-20.98-36.12,18.14,10.6,16.99,31.45,22.16,49.75-3.98-3.18-6.67-7.23-8.97-12.44.49,5.38,2.23,9.5,4.91,13.26-1.03,7.73,4.64,16.01,11.84,18.63,3.59,1.31,21.84,3.29,23.24-1.84,1.93.4,3.36,1.52,4.46,3.11-2.22,3.15-11.06,2.65-14.5,2.83-4.56.23-9.1-.07-13.66-.24-4.85-.18-9.55-.1-14.23-1.59-2.94-.94-7.74-5.33-10.68-5.16-4.66-6.29-6.17-13.77-7.99-21.14-.83-3.36-.77-6.88-1.85-10.19.05-.71.1-1.42.15-2.14-.02-.73-.03-1.46-.05-2.19-.04-1.08-.08-2.15-.11-3.23.67-3.41-2.55-27.29-9.76-23.72,5.14,4.66,5.7,10.84,6.45,16.95-.32.12-.35,1.44-.9.42-2.66-4.87-7.3-7.31-11.89-9.75-2.63-1.4-4.87-3.54-7.87-4.24-1.76-2.18-3.29-4.6-5.92-5.9-.24-.26-.44-.69-.84-.19.27-.38-.25-.52-.48-.51.17.15.34.3.51.46-.14.43.12.55.46.62-3.5,10.71-2.85,23.81,6.93,31.11,5.76,4.3,22.48,2.76,22.29,12.04-2.73-.09-5.52-.38-7.53,2.11-3.51,1.31-4.56,3.87-3.19,7,1.07,2.44,2.87,4.31,4.33,6.45-.78,6.84-12.09-1.98-16.26-2.02l-.05-.05c-9.24-4.55-36.61,4.96-39.5-9.82Z"/>
  <path class="cls-3" d="m646.33,20.69c3.11.02,1.58,8.6,1.13,10.07-1.28,4.19-4.17,7.54-7.97,9.66-4.32,2.41-9.54,3.22-14.43,3.19-4.78-.03-9.93-2.1-14.58-.4-4.81,1.76-8.03,6.52-12.85,8.59-4.8,2.05-10.05,2.4-15.16,1.61-4.94-.77-9.78-2.45-14.23-4.7-3.5-1.78-9.07-8-12.67-8.3,18.7-2.35,35.65-7.57,54.47-3.36,16.28,3.64,29.24-.89,36.29-16.36Z"/>
  <path class="cls-3" d="m491.49,54.66c4.2,6.2,10.29,15.03,9.22,22.98-.52,3.9-3.88,4.68-5,7.81-1.62,4.55,2.86,7.51-.45,12.61-4.83-2.78-13.86-11.19-14.63-17.14-.48-3.67,2.53-8.12,3.94-11.34,2.2-5.01,4.42-10.03,6.92-14.92Z"/>
  <path class="cls-3" d="m418.33,54.93c3,.7,5.24,2.84,7.87,4.24,4.59,2.44,9.23,4.88,11.89,9.75.56,1.02.58-.3.9-.42.32,3.69.12,7.42.84,11.08.13,1.44.25,2.88.38,4.32-.35.98-15.25-3.01-16.95-3.82-1.8-.87-10.1-6.97-8.35-9.62,9.09.91,5.43-10.54,3.42-15.53Z"/>
  <path class="cls-3" d="m650.97,116.42c-.01,1.74,9.18,5.41,10.61,6.31,4.21,2.68,6.32,5.33,5.55,10.68-2.73.78-8.91,2.55-11.36-.07-2.2-2.36-.19-6.37.55-8.93.33.08.42-.03.24-.32-.07.11-.15.22-.22.33-3.58,2.27-3.17,9.61-8.68,7.55-6.73-2.51,1.01-9.13,3.77-11.52-6.01-.4-7.9,11.31-12.44,6.49-5.78-6.1,8.2-10.26,11.98-10.52Z"/>
  <path class="cls-3" d="m500.75,115.21c-1.4,5.12-19.65,3.14-23.24,1.84-7.19-2.62-12.87-10.9-11.84-18.63,3.96,4.58,9.96,6.57,15.4,8.77,5.16,2.08,16.06,3.79,19.68,8.02Z"/>
  <path class="cls-3" d="m494.21,109.58c1.69-1.8,6.5-1.67,8.88-2.55,3.9-1.46,7-3.89,10.52-6.02,6.75-4.08,14.11-6.1,20.61-10.62,3.81,5.65-15.25,13.06-18.88,15.24-3.02,1.81-6.85,6.2-10,7.26-3.55,1.19-7.61-1.74-11.13-3.31Z"/>
  <path class="cls-3" d="m379.08,96.21c2.89,14.78,30.26,5.27,39.51,9.83-.07.09-.14.18-.22.27.09-.07.18-.14.27-.22,4.17.04,15.48,8.87,16.26,2.02,5.88,7.46-7.89,2.57-10.96,1.8-6.62-1.64-13.38-2.57-20.16-3.2-6.53-.6-13.23-.43-19.72-1.28-1.61-.21-12.93-3.98-9.2-6.92,1.4-.77,2.81-1.53,4.22-2.3Z"/>
  <path class="cls-3" d="m452.15,114.15c2.93-.17,7.74,4.22,10.68,5.16,4.67,1.5,9.38,1.41,14.23,1.59,4.55.17,9.1.47,13.66.24,3.45-.18,12.28.32,14.5-2.83,4.2,5.36-23.4,5.56-26.26,5.42-8.7-.39-21.67-1.2-26.81-9.58Z"/>
  <path class="cls-3" d="m629.81,47.35c.2-.53.52-1.02,1.1-1.08,11.36-1.04,17.21-8.67,21.64-18.01-.09,6.32-3.68,12.61-8.15,16.9-5.26,5.06-8.65,6.16-14.59,2.19Z"/>
  <path class="cls-5" d="m453.23,38.96c-.43,2.98-14.94-.01-17.99.85-2.88.81-4.03,2-7.38,2.01-2.07,0-5.71-.88-7.19,1.18h-.01c-.31-1.26-.14-2.42.62-3.47.38-.11.75-.22,1.13-.33.97.47,1.95.98,2.55-.49,8.58-1.5,17.16-2.62,25.84-.76.89.17,1.74.39,2.43,1.01Z"/>
  <path class="cls-3" d="m478,46.81c3.84,3.76-3.79,9.58-6.82,11.43.6-3.45-1.79-5.88-1.41-8.89,2.61-.62,5.23-1.23,7.83-1.88.18-.04.27-.43.4-.66Z"/>
  <path class="cls-3" d="m433.75,94.67c2.01-2.49,4.8-2.2,7.53-2.11,1.24,3.42-11.85,8.95-7.53,2.11Z"/>
  <path class="cls-2" d="m411.37,59.41c5.95-2.7,10.21,4.2,5.91,8.74.06-4.23-1.43-7.31-5.91-8.74Z"/>
  <path class="cls-5" d="m478,46.81c-.13.23-.22.61-.39.66-2.6.65-5.22,1.26-7.83,1.88-.12-.22-.25-.44-.37-.66.02-.96-.49-1.68-1.05-2.38.34-.11.68-.21,1.02-.32,1.92.3,3.84.26,5.74-.14,1.09-.22,2.07-.27,2.8.75-.02,0,.08.21.08.21Z"/>
  <path class="cls-3" d="m413.16,51.37c2.14,1.9,3.26,4.35,4.77,6.91-6.87-1.69-7.02-1.92-4.77-6.91Z"/>
  <path class="cls-4" d="m440.21,83.91c-.13-1.44-.25-2.88-.38-4.32,1.34-.27.77-1.57,1.24-2.31.42-.66-.04-1.85,1.23-2,.04,1.08.08,2.15.11,3.23-1.91.77-.46,1.47.05,2.19-.05.71-.1,1.42-.15,2.14-.69.35-1.39.71-2.1,1.07Z"/>
  <path class="cls-3" d="m477.9,46.6c-.73-1.02-1.71-.97-2.8-.75-1.9.39-3.82.44-5.74.14,2.58-1.21,5.33-.43,8-.66.55-.05.66.71.54,1.27Z"/>
  <path class="cls-2" d="m421.28,39.52c-.76,1.05-.94,2.21-.62,3.46-.99-.71-2.12-1.26-2.97-2.51,1.21-.57,2.34-.96,3.59-.95Z"/>
  <path class="cls-3" d="m468.35,46.31c.56.7,1.07,1.43,1.05,2.38-1.25-.28-1.63-1.51-1.79-2.36-.21-1.03.43-.41.74-.02Z"/>
  <path class="cls-2" d="m424.96,38.7c-.6,1.47-1.58.96-2.55.49.85-.17,1.7-.33,2.55-.49Z"/>
  <path class="cls-3" d="m654.68,115.85c.11.08.23.16.34.24-.14.03-.29.06-.43.1-.07-.14-.04-.25.09-.34Z"/>
  <path class="cls-1" d="m102.58,97.7c.06-4.85,7.49-7.89,10.44-3.66,4.87,6.97-6.63-4.43-4.54,1.97.11.35,4.61,4.16,1.57,4.01-1.56-.08-3.07-4.53-4.87-3.14-2.14,1.66,4.55,5.93,2.06,6.28-1.97.28-4.68-3.73-4.66-5.46Z"/>
  <path class="cls-1" d="m114.82,87.4c-2.56,5.01,4.01,1.88,4.34,2.06,2.66,1.46-1.16,3.27-3.02,3.09-2.8-.28-4.93-3.67-3.16-6.07,3.82-5.17,4.8,2.57,3.47,2.68-1.08.08-.79-1.42-1.63-1.76Z"/>
  <path class="cls-5" d="m376.8,68.9c-2.04,2.58-14.66,13.03-17.95,8.44-3.08-4.31,15.14-8.04,17.95-8.44Z"/>
  <path class="cls-1" d="m388.45,80.18c.43,3.04-.48,5.72-2.2,8.18-.21-2.73,1.59-5.15,1.2-7.93-.08-.51.57-.49,1-.25Z"/>
  <path class="cls-1" d="m373.76,97.97c-.07-.04-.13-.09-.2-.13.08.03.15.07.23.1,0,0-.03.03-.03.03Z"/>
  <path class="cls-5" d="m537.56,96.33c4.32-6.04,20.24,1.17,26.4,1.06,5.1-.1,10.7-1.32,15.48-3.09,1.3-.48,9.68-3.02,10-3.67.67.49,1.35.98,2.02,1.47-3.63,3.15-7.76,5.42-12.28,7.01-.22.15-.44.31-.66.46-.4.17-.8.34-1.2.52-3.43.31-8.42,3.4-11.64,4.86-3.84,1.74-8.61,2.96-12.01,5.44-6.43,1.22-18.72,1.7-24.69-1.84-6.81-4.04,8.28-7.04,8.58-12.22Z"/>
  <path class="cls-2" d="m553.68,110.38c3.4-2.49,8.17-3.7,12.01-5.44,3.22-1.46,8.21-4.54,11.64-4.86,1.09,1.45.68,2.09-1.04,2.64-2.05.66-3.95,1.78-5.91,2.7-2.37,1.09-4.74,2.19-7.1,3.28-2.13.33-3.92,1.57-5.79,2.47-1.74.84-2.75.47-3.81-.79Z"/>
  <path class="cls-1" d="m198.68,87.75c-2.54,3.87-5.75,7.07-9.61,9.61,2.54-3.86,5.74-7.07,9.61-9.61Z"/>
  <path class="cls-1" d="m199.75,86.68c.02.65-.3.97-.95.95-.02-.65.3-.97.95-.95Z"/>
  <path class="cls-1" d="m200.27,86.16c-.03.19-.14.3-.33.33.03-.19.14-.3.33-.33Z"/>
  <path class="cls-2" d="m578.53,99.56c.22-.15.44-.31.66-.46-.22.16-.44.31-.66.46Z"/>
  <path class="cls-1" d="m493.38,50.62c-.05-.08-.09-.15-.14-.23.04.06.07.12.12.18.01.01.02.05.02.05Z"/>
  <path class="cls-1" d="m442.3,75.27c-1.27.15-.8,1.34-1.23,2-.48.74.1,2.05-1.24,2.31-.72-3.66-.53-7.39-.84-11.08-.75-6.11-1.31-12.3-6.45-16.95,7.21-3.58,10.44,20.31,9.76,23.72Z"/>
  <path class="cls-1" d="m442.47,80.69c-.51-.72-1.96-1.41-.05-2.19.02.73.03,1.46.05,2.19Z"/>
  <path class="cls-1" d="m411.6,48.79c-.17-.15-.34-.3-.51-.46.22-.01.74.13.48.51,0,0,.03-.05.03-.05Z"/>
  <path class="cls-1" d="m412.06,49.4c-.33-.07-.6-.19-.46-.62l-.04.05c.41-.49.61-.07.84.19-.1.14-.22.27-.34.38Z"/>
  <path class="cls-1" d="m656.32,124.43c.07-.11.15-.22.22-.33.18.3.1.4-.24.32.01,0,.02.01.02.01Z"/>
  <path class="cls-2" d="m418.64,106.09c-.09.07-.18.15-.27.22.07-.09.14-.18.22-.27,0,0,.05.05.05.05Z"/>
</svg>