<svg width="63" height="11" viewBox="0 0 63 11" fill="none" xmlns="http://www.w3.org/2000/svg">
<path d="M2.87109 5.19189V2.84814C3.35938 2.81396 3.69629 2.79688 3.88184 2.79688C4.41406 2.78223 4.8877 2.79932 5.30273 2.84814C5.31738 2.98975 5.32471 3.08984 5.32471 3.14844C5.36865 3.6416 5.39062 3.94189 5.39062 4.04932C5.39062 4.43018 5.36377 4.81104 5.31006 5.19189H2.87109ZM7.05322 0.892578L6.95068 0.863281C6.96045 0.863281 6.86768 0.848633 6.67236 0.819336C6.43311 0.785156 6.19385 0.753418 5.95459 0.724121C5.16846 0.63623 4.46533 0.597168 3.84521 0.606934C3.2251 0.616699 2.46338 0.67041 1.56006 0.768066C1.28174 0.802246 1.00342 0.836426 0.725098 0.870605C0.495605 0.904785 0.383301 0.921875 0.388184 0.921875L0.197754 0.951172L0 0.987793L0.314941 1.22949C0.500488 1.37598 0.634766 1.52002 0.717773 1.66162C0.820312 1.8374 0.871582 2.0376 0.871582 2.26221V11H2.87109V7.06689H7.06787L7.08252 6.979L7.08984 6.92773C7.11426 6.8252 7.14355 6.66406 7.17773 6.44434C7.31445 5.63867 7.38281 4.87695 7.38281 4.15918C7.38281 2.87988 7.28271 1.82764 7.08252 1.00244L7.05322 0.892578ZM15.3223 4.62061C15.2637 4.65479 15.1904 4.67676 15.1025 4.68652H11.1035V2.65771L11.1401 2.65039C11.521 2.5918 12.0752 2.57959 12.8027 2.61377C13.4814 2.65283 14.0356 2.74316 14.4653 2.88477C14.8608 3.03613 15.166 3.18506 15.3809 3.33154L15.6665 3.5293V0.87793L15.52 0.848633C14.4946 0.658203 13.4619 0.562988 12.4219 0.562988C11.0547 0.562988 9.85596 0.694824 8.82568 0.958496L8.48145 1.05371L8.75244 1.27344C9.01123 1.48828 9.14062 1.7666 9.14062 2.1084V9.46924C9.14062 9.78662 9.00879 10.0649 8.74512 10.3042L8.48877 10.5386L8.82568 10.6118C9.96338 10.8706 11.1621 11 12.4219 11C13.457 11 14.4873 10.9023 15.5127 10.707L15.6665 10.6851V8.02637L15.3809 8.22412C15.1709 8.37549 14.8608 8.52441 14.4507 8.6709C13.9966 8.83203 13.4473 8.9248 12.8027 8.94922C12.0703 8.9834 11.5112 8.96875 11.1255 8.90527L11.1035 6.75195H15.1392C15.1978 6.75195 15.2515 6.76172 15.3003 6.78125C15.3491 6.80078 15.3687 6.81055 15.3589 6.81055L15.6665 7.11084V4.73047L15.6812 4.30566L15.3809 4.58398L15.3223 4.62061ZM16.7871 0.606934H24.3457V2.65039H21.6064V9.78418C21.6211 10.165 21.7676 10.4653 22.0459 10.6851L22.4341 11H18.7866L19.1089 10.6997C19.4019 10.4214 19.5532 10.1162 19.563 9.78418V2.65039H16.7871V0.606934ZM33.0396 0.562988C31.6577 0.562988 30.4785 0.697266 29.502 0.96582L29.165 1.05371L29.4287 1.27344C29.707 1.54687 29.873 1.76416 29.9268 1.92529C29.9561 2.01807 29.9707 2.12549 29.9707 2.24756C29.9658 2.3501 29.9609 2.40137 29.9561 2.40137C29.6484 3.26074 29.4946 4.38623 29.4946 5.77783C29.4946 8.01904 29.8267 9.67676 30.4907 10.751L30.5347 10.8242L30.6152 10.8315C31.4844 10.9438 32.2925 11 33.0396 11C34.0259 11 35.0562 10.9023 36.1304 10.707L36.2769 10.6851V8.05566L35.9985 8.23877C35.7495 8.3999 35.4395 8.54883 35.0684 8.68555C34.6533 8.82715 34.104 8.91748 33.4204 8.95654C32.7026 8.98584 32.1826 8.97852 31.8604 8.93457C31.5869 8.0459 31.4502 6.99365 31.4502 5.77783C31.4502 4.56689 31.5869 3.51953 31.8604 2.63574C32.2119 2.58691 32.7319 2.57959 33.4204 2.61377C34.0649 2.63818 34.6143 2.73096 35.0684 2.89209C35.4053 3.00439 35.7153 3.15332 35.9985 3.33887L36.2769 3.51465V0.870605L35.9839 0.82666C34.8315 0.650879 33.8501 0.562988 33.0396 0.562988ZM42.8613 7.48438H41.0522L41.9165 3.37549L42.8613 7.48438ZM39.6094 0.562988L39.8145 0.848633C40.0732 1.2002 40.1636 1.56885 40.0854 1.95459C39.5044 5.19678 38.8916 7.9043 38.2471 10.0771C38.1787 10.3213 38.0371 10.5215 37.8223 10.6777L37.3828 11H40.1367L40.4956 9.49121H43.2349L43.4839 11H45.8203L43.5205 0.562988H39.6094ZM49.79 5.19189V2.84814C50.2832 2.81396 50.6177 2.79688 50.7935 2.79688C51.3257 2.78223 51.8018 2.79932 52.2217 2.84814C52.2217 2.89697 52.229 2.99707 52.2437 3.14844C52.2778 3.51465 52.2949 3.81494 52.2949 4.04932C52.2949 4.49854 52.2729 4.87939 52.229 5.19189H49.79ZM54.6387 11L53.0493 7.06689H53.9722L53.9941 6.92041C54.0479 6.68604 54.0967 6.41992 54.1406 6.12207C54.2432 5.43848 54.2944 4.78418 54.2944 4.15918C54.2944 3.57324 54.2676 2.9873 54.2139 2.40137C54.1602 1.85938 54.0869 1.39307 53.9941 1.00244L53.9722 0.892578L53.9355 0.885254L53.8696 0.863281C53.8794 0.863281 53.7842 0.848633 53.584 0.819336C53.3496 0.785156 53.1104 0.753418 52.8662 0.724121C52.0752 0.63623 51.3696 0.597168 50.7495 0.606934C50.1978 0.611816 49.5264 0.655762 48.7354 0.73877C48.5059 0.763184 48.3374 0.782715 48.23 0.797363C47.5513 0.880371 47.2412 0.921875 47.2998 0.921875L46.9189 0.987793L47.2266 1.22949C47.4658 1.4248 47.6245 1.63232 47.7026 1.85205C47.7515 1.98877 47.7759 2.12305 47.7759 2.25488V11H49.7754V7.06689H50.8667C50.896 7.14502 50.9985 7.38672 51.1743 7.79199C51.3647 8.23145 51.5186 8.6001 51.6357 8.89795C51.7188 9.10791 51.7944 9.30322 51.8628 9.48389C51.9409 9.69873 52.0044 9.87451 52.0532 10.0112C52.0776 10.0894 52.0947 10.1772 52.1045 10.2749C52.1045 10.2798 52.1045 10.2847 52.1045 10.2896C52.1094 10.2993 52.1118 10.3066 52.1118 10.3115C52.1167 10.4434 52.0898 10.5581 52.0312 10.6558C52.0215 10.6753 52.0093 10.6899 51.9946 10.6997L51.7383 11H54.6387ZM62.5781 4.62061C62.5195 4.65479 62.4463 4.67676 62.3584 4.68652H58.3594V2.65771L58.396 2.65039C58.7769 2.5918 59.3311 2.57959 60.0586 2.61377C60.7373 2.65283 61.2915 2.74316 61.7212 2.88477C62.1167 3.03613 62.4219 3.18506 62.6367 3.33154L62.9224 3.5293V0.87793L62.7759 0.848633C61.7505 0.658203 60.7178 0.562988 59.6777 0.562988C58.3105 0.562988 57.1118 0.694824 56.0815 0.958496L55.7373 1.05371L56.0083 1.27344C56.2671 1.48828 56.3965 1.7666 56.3965 2.1084V9.46924C56.3965 9.78662 56.2646 10.0649 56.001 10.3042L55.7446 10.5386L56.0815 10.6118C57.2192 10.8706 58.418 11 59.6777 11C60.7129 11 61.7432 10.9023 62.7686 10.707L62.9224 10.6851V8.02637L62.6367 8.22412C62.4268 8.37549 62.1167 8.52441 61.7065 8.6709C61.2524 8.83203 60.7031 8.9248 60.0586 8.94922C59.3262 8.9834 58.7671 8.96875 58.3813 8.90527L58.3594 6.75195H62.395C62.4536 6.75195 62.5073 6.76172 62.5562 6.78125C62.605 6.80078 62.6245 6.81055 62.6147 6.81055L62.9224 7.11084V4.73047L62.937 4.30566L62.6367 4.58398L62.5781 4.62061Z" fill="black"/>
</svg>
