<?xml version="1.0" encoding="UTF-8"?>
<!DOCTYPE svg PUBLIC "-//W3C//DTD SVG 1.1//EN" "http://www.w3.org/Graphics/SVG/1.1/DTD/svg11.dtd">
<!-- Creator: CorelDRAW -->
<svg xmlns="http://www.w3.org/2000/svg" xml:space="preserve" width="199.179mm" height="52.0602mm" version="1.1" style="shape-rendering:geometricPrecision; text-rendering:geometricPrecision; image-rendering:optimizeQuality; fill-rule:evenodd; clip-rule:evenodd"
viewBox="0 0 78751.55 20583.58"
 xmlns:xlink="http://www.w3.org/1999/xlink"
 xmlns:xodm="http://www.corel.com/coreldraw/odm/2003">
 <defs>
  <style type="text/css">
   <![CDATA[
    .fil3 {fill:#5E2D19;fill-rule:nonzero}
    .fil1 {fill:#682A11;fill-rule:nonzero}
    .fil0 {fill:#BAD8EB;fill-rule:nonzero}
    .fil2 {fill:#E2BD97;fill-rule:nonzero}
    .fil4 {fill:#FCEADA;fill-rule:nonzero}
    .fil5 {fill:#FEF6E8;fill-rule:nonzero}
   ]]>
  </style>
 </defs>
 <g id="Слой_x0020_1">
  <metadata id="CorelCorpID_0Corel-Layer"/>
  <g id="_2486105456864">
   <path class="fil0" d="M10.56 13391.53c-118.77,-2573.37 742.33,-5641.72 3662.13,-7027.29 2919.81,-1385.61 10936.89,-4948.82 15885.71,-3216.74 4948.82,1732.04 10887.43,-4899.28 9105.81,3216.74 -1781.54,8115.97 6037.58,2474.49 4008.56,8313.98 -2029.01,5839.53 -5871,7259.97 -11530.76,4651.89 -5659.71,-2608.05 -10887.39,593.86 -14549.52,0 -3662.13,-593.82 -6433.47,-2721.84 -6581.94,-5938.57z"/>
   <g>
    <path class="fil1" d="M36399.83 16357.99c-737.5,-16.72 -4077.76,-641.27 -2537.87,-1806.65 1225.01,-926.85 3070.33,-1261.62 4567.32,-1293.01 377.63,-8.38 754.23,6.29 1130.83,7.31 257.35,1.03 996.95,-183.06 1215.6,-64.84 311.76,168.43 565.95,1438.39 360.9,1716.66 -171.56,231.18 -885.02,395.42 -1169.54,511.54 -392.3,161.12 -789.81,311.76 -1192.59,444.61 -757.39,251.07 -1570.21,507.35 -2374.65,484.34l0 0.04z"/>
    <path class="fil1" d="M13097.65 15129.98c-1284.31,205.28 -2603.18,217.89 -3810.95,-343.19 -433.1,-200.85 -1398.66,-671.59 -1475.01,-1225.01 -83.7,-598.37 934.17,-808.63 1367.26,-912.22 1516.88,-361.97 2991.88,-341.02 4513.98,-20.92 437.29,92.04 1604.73,104.62 1807.68,438.32 102.13,167.4 175.51,969.91 50.57,1368.49 -45.27,144.47 -116.64,235.84 -222.12,224.73 -66.34,-110.59 214.53,-264.63 126.05,-356.32 85.16,91.81 -193.18,245.06 -127.11,355.21 -62.98,38.98 -130.44,59.74 -199.59,72.91 -694.29,131.82 -1308.71,282.7 -2030.75,397.99z"/>
    <path class="fil1" d="M17753.09 9921.44l482.52 -494.42c812.11,-832.12 2092.79,-1085.95 3235.2,-1118.85 778.31,-23.01 1569.19,58.6 2340.14,157.95 455.04,58.6 1228.13,5.22 1420.6,429.94 124.51,274.08 119.25,1340.06 -97.3,1530.48 -149.61,131.82 -887.11,150.64 -1107.82,208.17 -364.07,94.14 -720.78,213.43 -1084.81,308.59 -839.19,218.57 -4205.07,641.86 -5232.66,-267.63 -216.87,-191.84 -236.4,-466.75 44.12,-754.23zm11432.58 -866.59c346.95,211.81 598.76,556.77 222.99,905.14 -417.13,386.84 -1297.12,412.14 -1834.92,423.65l0.04 0.04c-144.59,12.77 -761.9,55.16 -923.25,-7.27 -433.3,-168.08 -519.89,-1386.84 -287.09,-1631.97 146.45,-154.83 774.12,-86.83 973.94,-86.83 437.84,1.9 879.13,50.85 1296.06,186.94 207.69,67.81 368.22,97.9 552.23,210.3z"/>
    <path class="fil1" d="M17185.92 14541.97c-643.36,-15.7 -639.17,-619.28 -568.04,-1190.49 108.81,-875.61 1460.38,-639.17 2116.27,-555.47 598.37,76.35 1658.07,359.88 900.72,1087.97 -598.37,576.43 -1675.86,596.27 -2448.95,657.99z"/>
    <path class="fil1" d="M42032.1 13137.03c-102.52,-643.36 3807.79,-1299.26 3198.98,75.32 -267.79,604.66 -1276.21,928.95 -1846.35,1102.6 -296.06,89.95 -825.4,315.91 -1075.4,92.04 -214.45,-191.44 -254.19,-1003.24 -277.2,-1269.96l-0.04 0z"/>
    <path class="fil2" d="M65727.48 12106.63c32.42,-86.83 63.5,-169.06 116.87,-312.35 -745.89,342.08 -1562.58,263.2 -2357.65,203.58 -737.5,-56.5 -1613.11,-49.19 -2312.94,-287.68 872.45,-714.49 1987.62,-1013.68 2840.18,-1766.88 9.41,44.99 17.79,88.92 27.2,133.92 -32.42,541.87 -1609.95,855.72 -897.55,1277.32 624.54,370.31 1910.2,320.1 2582.86,192.47 110.9,131.82 216.55,170.53 397.52,83.7 195.63,-94.14 382.89,-223.86 605.68,-258.38 13.6,58.6 -70.1,127.63 17.79,178.87l0 -0.08c-21.98,-1.03 -50.21,-9.41 -64.84,1.03 -35.58,26.13 -13.6,56.5 5.22,83.7 -296.06,205.04 -604.66,384.98 -960.34,470.74l0 0.04z"/>
    <path class="fil2" d="M76119.54 12063.73c-339.99,0 -678.91,14.63 -1010.55,101.45 6.29,-42.9 11.51,-84.73 17.79,-127.63 79.51,-3.12 59.62,-44.99 36.61,-89.95 -122.41,-247.94 -282.46,-463.43 -524.12,-608.85 -1024.15,-618.26 -2126.75,-1058.67 -3258.65,-1436.3 -457.14,-152.74 -955.08,-199.83 -1359.95,-495.85 140.16,-174.72 1325.43,260.48 1567.09,304.4 604.66,108.81 1194.64,238.53 1774.19,445.63 889.21,316.98 2464.64,875.61 2757.54,1907.08l0.04 0z"/>
    <path class="fil2" d="M69679.71 9633.6c404.83,108.81 809.7,217.58 1213.5,326.39l0 47.09c-565.95,125.53 -1135.02,237.47 -1694.72,386.01 -198.76,53.34 -864.1,122.41 -536.65,347.3 -331.61,138.11 -663.25,275.15 -995.88,413.21 -15.7,-117.15 -136.01,-73.22 -193.54,-125.53 205.04,-96.24 403.8,-213.43 618.26,-282.46 179.94,-58.6 222.84,-124.51 108.81,-276.17 41.83,-17.79 83.7,-35.58 125.53,-54.4 23.01,-15.7 46.02,-32.42 69.03,-48.12 474.93,-166.34 905.94,-403.8 1285.66,-733.31z"/>
    <path class="fil3" d="M66688.89 11634.82c-17.79,-27.2 -40.8,-58.6 -5.22,-83.7 14.63,-10.48 42.9,-2.1 64.84,-2.1 1.03,42.9 -19.89,71.13 -59.62,85.8z"/>
    <path class="fil4" d="M70020.72 9406.61c-369.29,-127.63 -1480.26,-1347.38 -1858.92,-1110.98 471.81,361.97 912.22,747.98 1306.57,1185.23 -32.42,68.01 -909.06,333.7 -1046.1,383.91 -500.04,184.13 -1085.87,312.79 -1619.4,323.26 -644.39,12.57 -2309.81,-742.72 -2761.73,-110.9 -9.41,-44.99 -17.79,-88.92 -27.2,-133.92 388.11,-676.85 -209.24,-1107.82 -690.45,-1537.79 -206.07,-184.13 -429.94,-350.47 -634.98,-535.62 -55.43,-50.21 -465.52,-613.04 -439.39,-607.78 -576.43,-121.34 97.3,701.96 183.06,788.78 393.32,400.68 1096.31,842.12 1259.52,1404.94 -681,472.84 -1449.9,684.17 -2156.05,1110.98 -368.22,222.84 -692.51,478.05 -1100.5,629.76 -248.97,93.11 -753.2,79.51 -928.95,266.76 -646.49,-225.96 -1339.03,-335.8 -1979.23,-765.77 232.25,-82.63 301.28,-195.63 552.35,-175.75 174.72,13.6 276.17,232.25 488.53,226.99 -165.27,-224.93 -575.36,-561.76 -512.61,-878.73 95.21,-476 464.49,-214.45 663.25,-47.09 602.56,505.26 1136.09,1162.22 2016.91,750.08 -393.32,-40.8 -788.78,-65.91 -1121.42,-312.79 346.27,-533.53 -122.41,-843.15 47.09,-1319.15 117.15,-327.41 467.62,-410.09 523.05,-817.01 111.93,-831.64 -525.14,-1756.44 -964.53,-2403.95 65.91,-142.26 130.75,-284.56 195.63,-427.84 -4.19,-6.29 -8.38,-12.57 -12.57,-18.82 5.22,8.38 9.41,15.7 14.63,24.08 -465.52,61.72 -772.02,1150.72 -954.05,1483.39 -24.08,-400.68 -28.23,-799.22 -107.74,-1194.64 -43.93,-220.74 -224.93,-564.92 -104.62,-752.17 111.93,-173.65 858.85,-351.49 1034.59,-417.4 350.47,-130.75 686.26,-198.76 1062.86,-187.25 1885.09,57.53 3681.27,187.25 5573.68,-1.03 376.6,31.39 959.27,683.1 1325.43,868.26 465.52,236.44 971.85,412.18 1488.61,491.66 535.62,83.7 1083.78,47.09 1585.91,-168.43 505.26,-215.48 841.09,-714.49 1344.25,-898.62 486.44,-177.84 1024.15,39.74 1525.22,41.83 510.52,3.12 1057.6,-81.61 1509.52,-333.7 397.52,-222.84 700.89,-572.23 833.74,-1010.55 47.09,-153.76 206.07,-1052.38 -118.22,-1053.45 87.89,-507.35 143.33,-1013.68 -23.01,-1531.51 524.12,323.26 874.54,1559.74 674.76,2323.41 -464.49,977.06 -1076.46,1776.29 -2263.79,1884.03 -60.69,5.22 -94.14,56.5 -115.06,113 -113,-41.83 -224.93,-83.7 -337.89,-126.56 787.72,781.43 1685.27,1489.67 2054.55,2574.48 303.38,891.31 418.43,2057.72 1415.38,2496.04 359.88,157.95 730.19,71.13 912.22,481.22 195.63,439.39 141.23,1048.19 304.4,1523.12 349.4,1013.68 848.41,1634.03 -446.7,2055.62 80.54,-559.66 -139.13,-837.93 -580.58,-1117.27 -149.61,-95.21 -1110.98,-479.12 -1109.91,-660.09 126.56,-8.38 253.16,-16.72 378.7,-25.11 14.63,-3.12 30.33,-6.29 44.99,-10.48 -11.51,-8.38 -24.08,-16.72 -35.58,-25.11 -57.53,-18.82 -116.12,-37.68 -173.65,-55.43 -292.9,-1030.4 -1868.37,-1589.03 -2757.54,-1907.08 -579.55,-207.14 -1169.54,-336.86 -1774.19,-445.63 -237.47,-44.99 -1423.76,-480.15 -1562.9,-305.47l0.04 0.04z"/>
    <path class="fil4" d="M47462.41 10064.61c271.98,-253.16 578.48,-476 750.08,-821.21 179.94,-257.35 275.15,-537.72 230.15,-855.72 0,0 11.51,-9.41 11.51,-8.38 28.23,-325.36 -322.2,-860.94 -255.26,-1116.2 64.84,-247.94 386.01,-246.88 644.39,-327.41 501.11,-155.86 1535.7,-358.81 1767.94,-892.33 201.88,-465.52 -406.93,-1318.12 7.31,-1673.76 505.26,-433.1 1563.93,940.45 1809.77,1271.03 10.48,-551.32 -381.82,-803.41 -615.13,-1142.37 155.86,-215.48 536.65,-123.44 752.17,-123.44 350.47,-1.03 470.74,-125.53 772.02,-210.26 320.1,-89.95 1838,222.84 1881.97,-88.92 519.93,229.08 744.82,706.11 1004.27,1203.02 54.4,-236.44 -93.11,-410.09 -110.9,-622.45 1160.13,428.91 1131.89,3223.06 710.3,4125.87 -252.09,-1346.35 -434.13,-3620.58 -2194.76,-3778.57 1897.63,1108.88 1777.35,3290 2318.19,5204.39 -416.34,-332.67 -697.77,-756.32 -938.36,-1301.36 51.24,562.82 233.27,993.79 513.64,1387.15 -107.74,808.63 485.41,1674.83 1238.61,1948.91 375.57,137.04 2284.71,344.18 2431.15,-192.47 201.88,41.83 351.49,159.02 466.55,325.36 -232.25,329.51 -1157,277.2 -1516.88,296.06 -477.03,24.08 -951.96,-7.31 -1428.98,-25.11 -507.35,-18.82 -999.05,-10.48 -1488.61,-166.34 -307.57,-98.33 -809.7,-557.57 -1117.27,-539.81 -487.5,-657.99 -645.46,-1440.49 -835.83,-2211.48 -86.83,-351.49 -80.54,-719.71 -193.54,-1065.99 5.22,-74.29 10.48,-148.54 15.7,-223.86 -2.1,-76.35 -3.12,-152.74 -5.22,-229.08 -4.19,-113 -8.38,-224.93 -11.51,-337.89 70.1,-356.71 -266.76,-2854.84 -1020.99,-2481.37 537.72,487.5 596.27,1133.99 674.76,1773.16 -33.49,12.57 -36.61,150.64 -94.14,43.93 -278.27,-509.45 -763.68,-764.71 -1243.83,-1019.96 -275.15,-146.45 -509.45,-370.31 -823.3,-443.54 -184.13,-228.06 -342.12,-479.28 -617.23,-615.25l-36.61 38.71c-366.12,1120.39 -300.25,2489.87 722.87,3253.55 602.56,449.82 2351.64,288.75 2331.8,1259.52 -285.58,-9.41 -577.45,-39.74 -787.72,220.74 -367.19,137.04 -477.03,404.83 -333.7,732.28 111.93,255.26 300.25,450.89 452.95,674.76 -81.61,715.56 -1264.74,-207.14 -1700.97,-211.33l-5.22 -5.22c-966.63,-476 -3829.81,518.86 -4132.12,-1027.28l-0.04 -0.08z"/>
    <path class="fil2" d="M75419.72 2164.39c325.36,2.1 165.27,899.65 118.22,1053.45 -133.92,438.32 -436.22,788.78 -833.74,1010.55 -451.92,252.09 -997.98,336.86 -1509.52,333.7 -500.04,-3.12 -1038.78,-219.67 -1525.22,-41.83 -503.16,184.13 -840.03,682.07 -1344.25,898.62 -502.13,214.45 -1051.36,251.07 -1585.91,168.43 -516.76,-80.54 -1023.09,-256.29 -1488.61,-491.66 -366.12,-186.22 -948.83,-836.9 -1325.43,-868.26 1956.22,-245.85 3729.39,-791.91 5698.18,-351.49 1703.06,380.79 3058.82,-93.11 3796.32,-1711.44l-0.04 -0.08z"/>
    <path class="fil2" d="M59221.74 5718.03c439.39,648.58 1076.46,1572.31 964.53,2403.95 -54.4,407.99 -405.9,489.6 -523.05,817.01 -169.46,476 299.18,785.62 -47.09,1319.15 -505.26,-290.8 -1449.9,-1170.6 -1530.48,-1793.05 -50.21,-383.91 264.67,-849.44 412.18,-1186.3 230.15,-524.12 462.4,-1049.26 723.9,-1560.8l0 0.04z"/>
    <path class="fil2" d="M51568.4 5746.26c313.85,73.22 548.16,297.09 823.3,443.54 480.15,255.26 965.56,510.52 1243.83,1019.96 58.6,106.71 60.69,-31.39 94.14,-43.93 33.49,386.01 12.57,776.21 87.89,1159.1 13.6,150.64 26.13,301.28 39.74,451.92 -36.61,102.52 -1595.32,-314.88 -1773.16,-399.61 -188.32,-91.02 -1056.58,-729.12 -873.51,-1006.36 950.93,95.21 568.04,-1102.6 357.78,-1624.62z"/>
    <path class="fil2" d="M75905.13 12178.78c-1.03,182.03 960.34,565.95 1109.91,660.09 440.41,280.36 661.16,557.57 580.58,1117.27 -285.58,81.61 -932.07,266.76 -1188.39,-7.31 -230.15,-246.88 -19.89,-666.37 57.53,-934.17 34.52,8.38 43.93,-3.12 25.11,-33.49 -7.31,11.51 -15.7,23.01 -23.01,34.52 -374.5,237.47 -331.61,1005.29 -908.03,789.81 -704.01,-262.57 105.65,-955.08 394.39,-1205.12 -628.69,-41.83 -826.42,1183.14 -1301.36,678.91 -604.66,-638.14 857.82,-1073.3 1253.24,-1100.5l0.04 0z"/>
    <path class="fil2" d="M60190.42 12052.22c-146.45,535.62 -2055.62,328.48 -2431.15,192.47 -752.17,-274.08 -1346.35,-1140.28 -1238.61,-1948.91 414.28,479.12 1041.95,687.29 1611.02,917.44 539.81,217.58 1680.05,396.49 2058.75,839z"/>
    <path class="fil2" d="M59506.29 11463.26c176.77,-188.32 679.98,-174.72 928.95,-266.76 407.99,-152.74 732.28,-406.93 1100.5,-629.76 706.11,-426.81 1476.07,-638.14 2156.05,-1110.98 398.58,591.05 -1595.32,1366.24 -1975.04,1594.29 -315.91,189.35 -716.59,648.58 -1046.1,759.49 -371.38,124.51 -796.1,-182.03 -1164.32,-346.27l-0.04 0z"/>
    <path class="fil2" d="M47462.41 10064.61c302.31,1546.14 3165.53,551.32 4133.19,1028.34 -7.31,9.41 -14.63,18.82 -23.01,28.23 9.41,-7.31 18.82,-14.63 28.23,-23.01 436.22,4.19 1619.4,927.92 1700.97,211.33 615.13,780.4 -825.4,268.86 -1146.52,188.32 -692.51,-171.56 -1399.69,-268.86 -2108.96,-334.77 -683.1,-62.79 -1383.99,-44.99 -2062.94,-133.92 -168.43,-21.98 -1352.64,-416.34 -962.43,-723.9 146.45,-80.54 293.97,-160.05 441.44,-240.59l0.04 -0.04z"/>
    <path class="fil2" d="M55106.34 11941.32c306.5,-17.79 809.7,441.44 1117.27,539.81 488.53,156.93 981.26,147.52 1488.61,166.34 476,17.79 951.96,49.19 1428.98,25.11 360.9,-18.82 1284.63,33.49 1516.88,-296.06 439.39,560.73 -2447.92,581.64 -2747.1,566.98 -910.13,-40.8 -2266.91,-125.53 -2804.63,-1002.17z"/>
    <path class="fil2" d="M73691.55 4953.29c20.92,-55.43 54.4,-106.71 115.06,-113 1188.39,-108.81 1800.36,-906.96 2263.79,-1884.03 -9.41,661.16 -384.98,1319.15 -852.6,1767.94 -550.25,529.34 -904.87,644.39 -1526.29,229.08l0.04 0z"/>
    <path class="fil5" d="M55219.3 4075.62c-44.99,311.76 -1562.9,-1.03 -1881.97,88.92 -301.28,84.73 -421.59,209.24 -772.02,210.26 -216.55,0 -597.34,-92.04 -752.17,123.44l-0.99 0c-32.42,-131.82 -14.63,-253.16 64.84,-363 39.74,-11.51 78.44,-23.01 118.22,-34.52 101.45,49.19 203.98,102.52 266.76,-51.24 897.55,-156.93 1795.15,-274.08 2703.14,-79.51 93.11,17.79 182.03,40.8 254.19,105.65z"/>
    <path class="fil2" d="M57810.54 4896.83c401.71,393.32 -396.49,1002.17 -713.46,1195.71 62.79,-360.9 -187.25,-615.13 -147.52,-929.97 273.05,-64.84 547.13,-128.66 819.11,-196.66 18.82,-4.19 28.23,-44.99 41.83,-69.03l0.04 -0.04z"/>
    <path class="fil2" d="M53181.51 9903.49c210.26,-260.48 502.13,-230.15 787.72,-220.74 129.72,357.78 -1239.64,936.26 -787.72,220.74z"/>
    <path class="fil4" d="M50840.3 6214.91c622.45,-282.46 1068.08,439.39 618.26,914.32 6.29,-442.51 -149.61,-764.71 -618.26,-914.32z"/>
    <path class="fil5" d="M57810.54 4896.83c-13.6,24.08 -23.01,63.81 -40.8,69.03 -271.98,68.01 -546.06,131.82 -819.11,196.66 -12.57,-23.01 -26.13,-46.02 -38.71,-69.03 2.1,-100.43 -51.24,-175.75 -109.84,-248.97 35.58,-11.51 71.13,-21.98 106.71,-33.49 200.85,31.39 401.71,27.2 600.46,-14.63 114.03,-23.01 216.55,-28.23 292.9,78.44 -2.1,0 8.38,21.98 8.38,21.98z"/>
    <path class="fil2" d="M51027.56 5373.85c223.86,198.76 341.02,455.04 499.01,722.87 -718.68,-176.77 -734.38,-200.85 -499.01,-722.87z"/>
    <path class="fil2" d="M57800.07 4874.84c-76.35,-106.71 -178.87,-101.45 -292.9,-78.44 -198.76,40.8 -399.61,46.02 -600.46,14.63 269.89,-126.56 557.57,-44.99 836.9,-69.03 57.53,-5.22 69.03,74.29 56.5,132.85l-0.04 0z"/>
    <path class="fil4" d="M51876.99 4134.22c-79.51,109.84 -98.33,231.18 -64.84,361.97 -103.55,-74.29 -221.77,-131.82 -310.69,-262.57 126.56,-59.62 244.78,-100.43 375.57,-99.4l-0.04 0z"/>
    <path class="fil2" d="M56801.02 4844.52c58.6,73.22 111.93,149.61 109.84,248.97 -130.75,-29.3 -170.53,-157.95 -187.25,-246.88 -21.98,-107.74 44.99,-42.9 77.42,-2.1z"/>
    <path class="fil4" d="M52261.97 4048.42c-62.79,153.76 -165.27,100.43 -266.76,51.24 88.92,-17.79 177.84,-34.52 266.76,-51.24z"/>
    <path class="fil2" d="M76293.23 12119.16c11.51,8.38 24.08,16.72 35.58,25.11 -14.63,3.12 -30.33,6.29 -44.99,10.48 -7.31,-14.63 -4.19,-26.13 9.41,-35.58z"/>
    <path class="fil5" d="M47223.88 7207.67c-213.43,269.89 -1533.6,1363.07 -1877.78,882.92 -322.2,-450.89 1583.81,-841.09 1877.78,-882.92z"/>
    <path class="fil3" d="M46905.87 10248.73c-7.31,-4.19 -13.6,-9.41 -20.92,-13.6 8.38,3.12 15.7,7.31 24.08,10.48 0,0 -3.12,3.12 -3.12,3.12l-0.04 0z"/>
    <path class="fil5" d="M64041.19 10077.14c451.92,-631.86 2117.34,122.41 2761.73,110.9 533.53,-10.48 1119.32,-138.11 1619.4,-323.26 136.01,-50.21 1012.65,-315.91 1046.1,-383.91 70.1,51.24 141.23,102.52 211.33,153.76 -379.72,329.51 -811.8,566.98 -1284.63,733.31 -23.01,15.7 -46.02,32.42 -69.03,48.12 -41.83,17.79 -83.7,35.58 -125.53,54.4 -358.81,32.42 -880.83,355.68 -1217.69,508.42 -401.71,182.03 -900.72,309.66 -1256.36,569.07 -672.66,127.63 -1958.32,177.84 -2582.86,-192.47 -712.4,-422.62 866.2,-736.48 897.55,-1278.34z"/>
    <path class="fil4" d="M65727.48 11546.93c355.68,-260.48 854.65,-387.08 1256.36,-569.07 336.86,-152.74 858.85,-474.93 1217.69,-508.42 114.03,151.67 71.13,218.65 -108.81,276.17 -214.45,69.03 -413.21,186.22 -618.26,282.46 -247.94,114.03 -495.85,229.08 -742.72,343.11 -222.84,34.52 -410.09,164.24 -605.68,258.38 -182.03,87.89 -287.68,49.19 -398.58,-82.63z"/>
    <path class="fil4" d="M68327.07 10415.03c23.01,-15.7 46.02,-32.42 69.03,-48.12 -23.01,16.72 -46.02,32.42 -69.03,48.12z"/>
    <path class="fil3" d="M59419.47 5295.37c-5.22,-8.38 -9.41,-15.7 -14.63,-24.08 4.19,6.29 7.31,12.57 12.57,18.82 1.03,1.03 2.1,5.22 2.1,5.22l-0.04 0.04z"/>
    <path class="fil3" d="M54075.9 7874.04l-0.12 0 0.16 1.03c4.19,112.8 8.38,224.58 11.51,337.34l1.03 -0.43c2.1,76.35 3.12,152.74 5.22,229.08l-1.07 -1.46 0.04 2.45c-5.22,74.29 -10.48,148.54 -15.7,223.86 10.75,118.69 -52.43,317.1 -96.63,339.67 -18.07,9.21 -149.53,-147.91 -123.04,-227.7 -13.6,-150.64 -26.13,-301.28 -39.74,-451.92 1.19,-0.24 2.29,-0.87 3.28,-1.74l-3.32 0.71c-75.32,-382.89 -55.43,-773.09 -87.89,-1159.1 -78.44,-639.17 -137.04,-1286.73 -674.76,-1773.16 754.23,-374.5 1092.16,2124.66 1020.99,2481.37l0.04 0z"/>
    <path class="fil3" d="M76464.79 13016.71c7.31,-11.51 15.7,-23.01 23.01,-34.52 18.82,31.39 10.48,41.83 -25.11,33.49 1.03,0 2.1,1.03 2.1,1.03z"/>
    <path class="fil4" d="M51600.82 11098.17c-9.41,7.31 -18.82,15.7 -28.23,23.01 7.31,-9.41 14.63,-18.82 23.01,-28.23 0,0 5.22,5.22 5.22,5.22z"/>
    <path class="fil3" d="M70020.72 9406.61c405.9,296.06 902.81,344.18 1359.95,495.85 1130.83,377.63 2233.46,817.01 3258.65,1436.3 241.66,145.42 400.68,360.9 524.12,608.85 23.01,44.99 42.9,87.89 -36.61,89.95 -723.9,-906.96 -1989.71,-1232.32 -3016.99,-1662.26 -1056.58,-442.51 -2403.95,30.33 -3445.9,365.09 -7.16,-4.9 -255.81,103.95 -515.81,218.21 -638.46,280.52 -1110.39,516.17 -1741.77,863.12 -235.77,129.61 -463.58,230.11 -678.87,284.91 -1226.04,501.11 -3078.71,118.22 -4348.67,-54.4 -1030.4,-140.16 -136.01,139.13 -310.69,640.24 -146.45,419.5 -1160.13,416.34 -1524.19,452.95 -1198.83,119.25 -2831.83,178.87 -3934.43,-398.58 -487.5,-256.29 -835.83,-682.07 -1081.68,-1167.48 -187.25,-369.29 -244.78,-1160.13 -609.87,-1317.05 -129.72,-55.43 -657.99,51.24 -749.01,174.72 -193.54,263.64 201.88,539.81 343.11,714.49 412.18,507.35 384.98,923.73 -342.08,897.55 -712.4,-25.11 -1378.77,-365.09 -2074.44,-492.72 -716.59,-131.82 -1448.87,-146.45 -2174.87,-170.53 -559.66,-17.79 -1186.3,-15.7 -1710.38,-243.75 -512.61,-222.84 -627.67,-681 -1000.08,-1015.77 -486.91,-435.55 -2022.73,-1514.54 -1267.51,-2323.97 106.87,-114.62 271.63,-229.6 403.09,-309.07 533.17,-322.51 1177.25,-470.23 1782.22,-598.05 371.02,-78.4 772.22,3.04 1149.33,-89.24 535.62,-130.75 1282.53,-241.66 1758.49,-530.36 878.73,-532.46 -301.28,-1735.48 577.45,-2224.01 231.18,-128.66 514.71,-28.23 778.31,-56.5 281.39,-30.33 565.95,-113 847.34,-159.02 641.27,-105.65 1293.01,-191.44 1943.69,-198.76 469.71,-5.22 914.32,52.31 1310.77,323.26 217.58,148.54 355.68,419.5 588.96,533.53 244.78,119.25 543.96,47.09 800.29,34.52 518.86,-26.13 1034.59,63.81 1548.23,-40.8 575.36,-117.15 1110.98,-446.7 1700.97,-485.41 631.86,-40.8 1319.15,136.01 1957.29,162.15 657.99,27.2 1317.05,18.82 1975.04,-19.89 2483.46,-146.45 4972.15,-1038.78 7460.87,-582.67 1189.42,217.58 2509.64,316.98 3307.79,-797.13 585.84,-818.04 505.26,-1923.8 20.92,-2764.86 1073.3,313.85 1567.09,1584.84 1573.34,2612.12 8.38,1391.34 -882.92,2159.17 -1913.32,2932.26 551.32,464.49 899.65,1092.16 1162.22,1752.25 245.85,617.19 353.59,1356.79 791.91,1876.71 189.35,224.93 420.53,396.49 694.6,506.32 216.55,86.83 524.12,75.32 694.6,247.94 201.88,203.98 154.83,684.17 203.98,949.86 70.1,381.82 165.27,760.51 310.69,1121.42 221.77,550.25 644.39,1214.53 148.54,1756.44 -478.05,523.05 -1405.97,600.46 -2057.72,500.04 -533.53,-82.63 -1728.17,-265.7 -2098.48,-720.78 -492.72,-605.68 220.74,-1170.6 747.98,-1365.17 331.61,-86.83 670.57,-101.45 1010.55,-101.45 57.53,18.82 116.12,37.68 173.65,55.43 -13.6,9.41 -16.72,20.92 -8.38,34.52 -126.56,8.38 -253.16,16.72 -379.72,25.11 -395.42,27.2 -1857.89,461.33 -1254.3,1101.57 474.93,504.23 672.66,-720.78 1301.36,-678.91 -288.75,250.04 -1098.41,942.55 -394.39,1205.12 576.43,215.48 532.46,-552.35 908.03,-789.81l-0.95 -0.08c-77.42,266.76 -287.68,687.29 -57.53,933.14 256.29,274.08 902.81,88.92 1188.39,7.31 1295.07,-421.59 796.1,-1041.95 446.7,-2055.62 -163.21,-474.93 -109.84,-1083.78 -304.4,-1523.12 -182.03,-409.02 -552.35,-323.26 -912.22,-481.22 -996.95,-437.29 -1112.01,-1603.7 -1415.38,-2496.04 -369.29,-1085.87 -1266.84,-1794.08 -2054.55,-2574.48 113,41.83 224.93,83.7 337.89,126.56 620.35,415.31 976.04,299.18 1526.29,-229.08 467.62,-448.8 843.15,-1106.79 852.6,-1767.94 200.85,-763.68 -150.64,-2000.15 -674.76,-2323.41 167.36,516.76 110.9,1024.15 23.01,1531.51 -737.5,1617.3 -2093.26,2092.23 -3796.32,1710.38 -1968.8,-440.41 -3741.92,105.65 -5698.18,351.49 -1891.38,188.32 -3687.55,59.62 -5573.68,1.03 -376.6,-11.51 -713.46,56.5 -1062.86,187.25 -175.75,65.91 -923.73,243.75 -1034.59,417.4 -120.31,187.25 60.69,531.43 104.62,752.17 79.51,394.39 83.7,794 107.74,1194.64 182.03,-333.7 489.6,-1422.7 954.05,-1483.39l0 -4.19c-66.94,142.26 -131.82,284.56 -197.73,427.84 -261.54,511.54 -493.75,1035.66 -723.9,1561.83 -147.52,337.89 -462.4,802.38 -412.18,1186.3 80.54,622.45 1025.18,1502.21 1530.48,1793.05 332.67,247.94 728.09,271.98 1121.42,312.79 -880.83,412.18 -1414.35,-243.75 -2016.91,-750.08 -198.76,-167.36 -568.04,-428.91 -663.25,47.09 -63.81,316.98 347.3,653.8 512.61,878.73 -212.36,4.19 -313.85,-213.43 -488.53,-226.99 -251.07,-19.89 -321.17,93.11 -552.35,175.75 640.24,429.94 1332.75,540.84 1979.23,765.77 368.22,164.24 792.94,470.74 1164.32,345.21 329.51,-110.9 730.19,-570.14 1046.1,-759.49 379.72,-228.06 2373.63,-1003.24 1975.04,-1594.29 -163.21,-562.82 -866.2,-1004.27 -1259.52,-1404.94 -84.73,-86.83 -758.42,-910.13 -183.06,-788.78 -26.13,-5.22 383.91,557.57 439.39,607.78 205.04,185.16 428.91,351.49 634.98,535.62 482.25,429.94 1078.56,860.94 690.45,1537.79 -853.63,753.2 -1967.73,1052.38 -2840.18,1766.88 699.86,238.53 1575.43,232.25 2312.94,287.68 740.19,56.58 1495.84,122.37 2199.11,-146.09 193.58,-73.82 365.21,-152.62 552.78,-245.81 244.82,-121.66 480.19,-235.17 726.99,-349 582,-268.42 1127.82,-537.52 1741.73,-750.99 247.35,-86 441.92,-104.02 485.92,-115.85 559.66,-149.61 1128.77,-261.54 1694.72,-386.01l0 -47.09c-404.83,-108.81 -809.7,-217.58 -1213.5,-326.39 -70.1,-51.24 -141.23,-102.52 -211.33,-153.76 -394.39,-437.29 -834.81,-823.3 -1306.57,-1185.23 376.6,-236.44 1487.58,983.35 1856.86,1112.01l-0.04 0zm-21570.29 -947.21c22.18,288.71 -71.68,546.18 -237.98,784l-0.32 -4.98 -1.82 4.94c-171.56,345.21 -477.03,568.04 -750.08,821.21 -144.87,80.22 -291.79,159.46 -438.75,239.68l0.51 0.91c-390.2,307.57 794,701.96 962.43,723.9 678.91,89.95 1379.84,71.13 2062.94,133.92 709.27,65.91 1417.48,163.21 2108.96,334.77 322.2,79.51 1761.66,592.08 1146.52,-188.32 -152.74,-223.86 -341.02,-419.5 -452.95,-674.76 -144.35,-327.41 -33.49,-595.25 333.7,-732.28 -451.92,715.56 917.44,137.04 787.72,-220.74 19.89,-970.78 -1730.26,-809.7 -2331.8,-1259.52 -1023.09,-763.68 -1091.09,-2135.09 -724.97,-3254.46 12.57,-12.57 25.11,-25.11 36.61,-38.71 276.17,136.01 436.22,388.11 619.28,617.19 210.26,522.02 593.15,1720.85 -357.78,1625.65 -183.06,277.2 685.19,915.35 873.51,1006.36 177.84,85.8 1736.55,502.13 1773.16,399.61 73.22,-37.68 146.45,-75.32 220.74,-113 113,346.27 106.71,714.49 193.54,1065.99 189.35,770.99 348.37,1553.49 835.83,2211.48 536.65,875.61 1894.5,960.34 2803.56,1003.24 299.18,13.6 3187.52,-6.29 2747.1,-566.98 -116.12,-165.27 -264.67,-283.49 -466.55,-325.36 -378.7,-442.51 -1520,-621.38 -2057.72,-839 -569.07,-230.15 -1196.74,-438.32 -1611.02,-917.44 -280.36,-394.39 -463.43,-825.4 -513.64,-1387.15 240.59,545.03 522.02,968.68 938.36,1301.36 -540.84,-1914.39 -419.5,-4096.58 -2318.19,-5204.39 1760.59,157.95 1942.62,2432.22 2194.76,3778.57 421.59,-903.84 449.82,-3697.99 -710.3,-4125.87 17.79,212.36 165.27,386.01 110.9,622.45 -259.45,-496.91 -484.34,-974.97 -1004.27,-1203.02 -72.2,-64.84 -161.12,-87.89 -254.19,-107.74 -908.03,-194.57 -1806.65,-76.35 -2703.14,79.51 -88.92,16.72 -177.84,34.52 -266.76,51.24 -39.74,11.51 -78.44,23.01 -118.22,34.52 -131.82,-1.03 -248.97,39.74 -375.57,99.4 88.92,130.75 207.14,188.32 310.69,262.57l1.03 0.12c234.34,339.99 625.57,593.15 615.13,1143.4 -245.85,-330.58 -1305.55,-1705.16 -1809.77,-1271.03 -414.28,355.68 194.57,1208.24 -7.31,1673.76 -231.18,533.53 -1266.84,735.41 -1767.94,892.33 -258.38,80.54 -580.58,80.54 -644.39,327.41 -61.48,235.45 229.28,705.83 255.06,1033.8 7.39,94.97 -16.57,32.46 -6.64,161.47zm-1226.55 -1251.73c-293.97,41.83 -2201,432.03 -1877.78,882.92 344.18,480.15 1664.35,-613.04 1877.78,-882.92zm10576.19 -2332.82c11.51,-58.6 0,-139.13 -56.5,-133.92 -278.27,24.08 -566.98,-57.53 -835.83,69.03 -35.58,11.51 -71.13,21.98 -106.71,33.49 -31.39,-40.8 -99.4,-105.65 -77.42,2.1 17.79,88.92 57.53,217.58 187.25,246.88 12.57,23.01 26.13,46.02 38.71,69.03 -39.74,314.88 210.26,569.07 147.52,929.97 316.98,-192.47 1115.17,-802.38 713.46,-1195.71l-10.48 -20.92 0 0.04zm-6959.76 1340.06c468.64,149.61 624.54,471.81 618.26,914.32 449.82,-474.93 4.19,-1196.74 -618.26,-914.32zm187.25 -841.05c-235.37,522.02 -219.67,546.06 499.01,722.87 -157.95,-267.79 -276.17,-524.12 -499.01,-722.87z"/>
   </g>
  </g>
 </g>
</svg>
