<?xml version="1.0" encoding="UTF-8"?>
<!DOCTYPE svg PUBLIC "-//W3C//DTD SVG 1.1//EN" "http://www.w3.org/Graphics/SVG/1.1/DTD/svg11.dtd">
<!-- Creator: CorelDRAW -->
<svg xmlns="http://www.w3.org/2000/svg" xml:space="preserve" width="18.7142mm" height="17.683mm" version="1.1" style="shape-rendering:geometricPrecision; text-rendering:geometricPrecision; image-rendering:optimizeQuality; fill-rule:evenodd; clip-rule:evenodd"
viewBox="0 0 34.1 32.22"
 xmlns:xlink="http://www.w3.org/1999/xlink"
 xmlns:xodm="http://www.corel.com/coreldraw/odm/2003">
 <defs>
  <style type="text/css">
   <![CDATA[
    .fil0 {fill:#124C5F}
   ]]>
  </style>
 </defs>
 <g id="Слой_x0020_1">
  <metadata id="CorelCorpID_0Corel-Layer"/>
  <g id="_2531687522784">
   <path class="fil0" d="M6.92 32.22l4.24 0c0,-0.16 -0.04,-0.38 -0.07,-0.52 -0.18,-1.08 -0.37,-2.57 -0.53,-3.68 -0.1,-0.67 -0.19,-1.42 -0.3,-2.1 -0.08,-0.45 -0.28,-1.78 -0.28,-2.19 0,-0.76 0.22,-1.35 0.6,-1.91 0.57,-0.84 1.61,-1.4 2.85,-1.4l7.03 0c1.32,0 2.24,0.56 2.8,1.34 0.81,1.12 0.6,2.11 0.39,3.36l-1.21 7.1 3.55 0c0.24,-1.01 0.59,-2.26 0.86,-3.32 0.09,-0.36 0.19,-0.76 0.29,-1.1 0.22,-0.73 0.36,-1.47 0.57,-2.21 0.28,-0.94 0.6,-2.33 0.86,-3.32l0.86 -3.32c0.04,-0.15 0.07,-0.15 0.01,-0.26l-2.39 -2.86c-0.09,-0.12 -0.21,-0.25 -0.32,-0.37 -0.11,-0.13 -0.2,-0.25 -0.31,-0.38l-1.59 -1.89c-0.49,-0.61 -1.11,-1.29 -1.59,-1.89 -0.11,-0.14 -0.21,-0.24 -0.32,-0.37l-1.27 -1.52c-0.11,-0.13 -0.2,-0.25 -0.32,-0.38l-3.81 -4.54c-0.9,-1.07 -0.61,-1.03 -2.32,1.08l-3 3.71c-0.11,0.14 -0.2,0.24 -0.31,0.39l-1.2 1.48c-0.2,0.25 -0.38,0.48 -0.59,0.73l-1.81 2.23c-0.11,0.13 -0.19,0.24 -0.29,0.37l-3.31 4.1c-0.21,0.25 -0.09,0.41 0.02,1.04l2.01 11.45c0.07,0.37 0.12,0.78 0.21,1.15z"/>
   <path class="fil0" d="M-0 20.04c0.06,0.08 0.26,0.22 0.36,0.3 0.17,0.15 0.97,0.83 1.14,0.84 0.04,-0.16 1.67,-2.1 1.88,-2.36l9.55 -11.84c0.32,-0.4 0.62,-0.78 0.95,-1.18l0.97 -1.19c0.28,-0.34 1.7,-2.21 1.92,-2.36 0.05,0.04 0.2,0.22 0.24,0.28 0.63,0.81 1.35,1.56 1.98,2.37l0.74 0.89c0.17,0.2 0.33,0.37 0.5,0.58 0.79,1.01 1.68,1.97 2.49,2.97 0.09,0.11 0.16,0.18 0.24,0.28 0.63,0.82 1.36,1.57 2,2.39 0.64,0.81 1.35,1.55 1.98,2.37 0.39,0.5 0.85,0.97 1.24,1.48l1 1.19c0.18,0.2 0.32,0.39 0.49,0.59 0.17,0.19 0.34,0.39 0.49,0.58l1 1.19c0.43,0.49 0.82,1.01 1.25,1.5l0.25 0.3c0.13,-0.09 0.23,-0.19 0.37,-0.29 0.13,-0.1 0.23,-0.2 0.36,-0.3 0.22,-0.18 0.55,-0.39 0.7,-0.62 -0.11,-0.21 -1.86,-2.27 -2.1,-2.53 -0.73,-0.82 -1.41,-1.69 -2.12,-2.54 -0.69,-0.82 -1.47,-1.7 -2.13,-2.54l-1.59 -1.89c-0.09,-0.11 -0.17,-0.22 -0.27,-0.33l-1.86 -2.21c-0.1,-0.11 -0.18,-0.21 -0.27,-0.33 -0.09,-0.11 -0.18,-0.21 -0.27,-0.32 -0.89,-1.05 -1.74,-2.13 -2.65,-3.16 -0.19,-0.22 -0.35,-0.43 -0.54,-0.64 -0.73,-0.82 -1.41,-1.7 -2.12,-2.54l-0.26 -0.3c-0.43,-0.49 -0.58,-0.69 -1.33,-0.69 -0.29,0 -0.59,0.21 -0.74,0.37 -0.32,0.32 -1.21,1.48 -1.55,1.9l-13.81 17.12c-0.15,0.19 -0.43,0.41 -0.49,0.66z"/>
   <path class="fil0" d="M14.82 28.81c-0.68,0.02 -1.01,0.86 -1.01,1.6 0,0.71 0.56,1.36 1.25,1.36 0.93,0 1.19,-0.24 1.88,-0.46 0.13,-0.04 0.21,0.04 0.35,0.11 0.69,0.35 1.98,0.62 2.58,-0.06 0.6,-0.68 0.46,-2.31 -0.57,-2.55 0,-0.26 0.04,-0.3 0.01,-0.53 -0.1,-0.75 -0.62,-1.47 -1.24,-1.79 -1.04,-0.55 -1.87,-0.3 -2.68,0.54 -0.31,0.32 -0.53,0.76 -0.59,1.22 -0.03,0.26 0,0.28 0,0.56z"/>
   <path class="fil0" d="M18.27 26.09c1.08,0 1.91,-1.23 1.91,-2.26 0,-1.16 -0.96,-1.56 -1.74,-1.11 -1.56,0.9 -1.57,3.37 -0.17,3.37z"/>
   <path class="fil0" d="M11.59 26.23c0,1.04 0.83,2.26 1.91,2.26 1.24,0 1.39,-1.96 0.27,-3.02 -1.05,-1.01 -2.19,-0.47 -2.19,0.76z"/>
   <path class="fil0" d="M13.64 23.8c0,1.94 2.24,3.12 2.83,1.62 0.42,-1.08 -0.49,-2.87 -1.79,-2.87 -0.65,0 -1.04,0.6 -1.04,1.25z"/>
   <path class="fil0" d="M19.31 27c0,0.42 -0.02,0.77 0.26,1.13 0.72,0.96 2.67,-0.07 2.67,-1.93 0,-1.15 -1.16,-1.84 -2.32,-0.58 -0.24,0.25 -0.6,0.92 -0.6,1.38z"/>
  </g>
 </g>
</svg>
