<?xml version="1.0" encoding="UTF-8"?>
<!DOCTYPE svg PUBLIC "-//W3C//DTD SVG 1.1//EN" "http://www.w3.org/Graphics/SVG/1.1/DTD/svg11.dtd">
<!-- Creator: CorelDRAW -->
<svg xmlns="http://www.w3.org/2000/svg" xml:space="preserve" width="19.5184mm" height="21.7388mm" version="1.1" style="shape-rendering:geometricPrecision; text-rendering:geometricPrecision; image-rendering:optimizeQuality; fill-rule:evenodd; clip-rule:evenodd"
viewBox="0 0 39.94 44.48"
 xmlns:xlink="http://www.w3.org/1999/xlink"
 xmlns:xodm="http://www.corel.com/coreldraw/odm/2003">
 <defs>
  <style type="text/css">
   <![CDATA[
    .fil0 {fill:#FFAA00;fill-rule:nonzero}
   ]]>
  </style>
 </defs>
 <g id="Слой_x0020_1">
  <metadata id="CorelCorpID_0Corel-Layer"/>
  <g id="_2855296169376">
   <path class="fil0" d="M18.85 22.75c2.71,3.97 6.42,2.25 11.67,3.61 7.66,1.85 10.54,-2.12 9.03,-6.12 -1.46,-3.83 -6.23,-4.1 -8.65,-7.63 -2.43,-3.53 -1.33,-8.89 -4.25,-11.55 -2.92,-2.65 -7.13,-0.59 -7.65,8.18 -0.3,6.01 -2.72,9.47 -0.15,13.49z"/>
   <path class="fil0" d="M22.88 34.55c0.98,-4.26 3.88,-7.16 6.3,-6.14 2.42,1.02 3.71,5.27 2.64,9.73 -0.98,4.26 -3.88,7.16 -6.3,6.14 -2.42,-1.02 -3.57,-5.31 -2.64,-9.73z"/>
   <path class="fil0" d="M9.93 15.21c3.98,0.16 7.03,-2.25 6.87,-5.25 -0.15,-3 -3.48,-5.52 -7.41,-5.52 -3.98,-0.16 -7.02,2.25 -6.87,5.25 0.1,2.84 3.43,5.35 7.41,5.52z"/>
   <path class="fil0" d="M10.84 31.23c2.75,-3.39 6.66,-4.46 8.69,-2.24 2.03,2.22 1.48,6.88 -1.28,10.27 -2.75,3.39 -6.66,4.46 -8.69,2.24 -1.89,-2.26 -1.43,-6.71 1.28,-10.27z"/>
   <path class="fil0" d="M9.46 29.16c3.61,-2.05 5.61,-5.92 4.26,-8.89 -1.3,-2.81 -5.29,-3.5 -9.04,-1.41 -3.61,2.05 -5.61,5.92 -4.26,8.89 1.3,2.81 5.43,3.46 9.04,1.41z"/>
  </g>
 </g>
</svg>
