<?xml version="1.0" encoding="UTF-8"?>
<!DOCTYPE svg PUBLIC "-//W3C//DTD SVG 1.1//EN" "http://www.w3.org/Graphics/SVG/1.1/DTD/svg11.dtd">
<!-- Creator: CorelDRAW -->
<svg xmlns="http://www.w3.org/2000/svg" xml:space="preserve" width="16.0633mm" height="16.1433mm" version="1.1" style="shape-rendering:geometricPrecision; text-rendering:geometricPrecision; image-rendering:optimizeQuality; fill-rule:evenodd; clip-rule:evenodd"
viewBox="0 0 24.58 24.7"
 xmlns:xlink="http://www.w3.org/1999/xlink"
 xmlns:xodm="http://www.corel.com/coreldraw/odm/2003">
 <defs>
  <style type="text/css">
   <![CDATA[
    .fil0 {fill:#D9A6FF;fill-rule:nonzero}
   ]]>
  </style>
 </defs>
 <g id="Слой_x0020_1">
  <metadata id="CorelCorpID_0Corel-Layer"/>
  <g id="_2855296135056">
   <path class="fil0" d="M12.77 12c-2.62,0.56 -2.82,3.1 -4.86,5.78 -2.93,3.93 -1.83,6.7 0.4,6.91 2.23,0.21 3.64,-2.56 6.01,-2.85 2.32,-0.44 4.53,1.69 6.54,0.68 2.04,-0.94 2.22,-3.98 -1.77,-6.69 -2.67,-1.77 -3.69,-4.14 -6.32,-3.83z"/>
   <path class="fil0" d="M5.63 10.91c1.75,1.96 2.34,4.5 1.33,5.67 -1.09,1.19 -3.38,0.57 -5.13,-1.39 -1.75,-1.96 -2.34,-4.5 -1.33,-5.67 1.09,-1.19 3.38,-0.57 5.13,1.39z"/>
   <path class="fil0" d="M18.7 8.73c-1.14,2.32 -0.87,4.76 0.53,5.5 1.4,0.74 3.49,-0.48 4.63,-2.81 1.14,-2.32 0.87,-4.76 -0.53,-5.5 -1.48,-0.71 -3.57,0.52 -4.63,2.81z"/>
   <path class="fil0" d="M10.85 4.97c0.96,2.65 0.38,5.29 -1.19,5.85 -1.57,0.56 -3.61,-1.17 -4.56,-3.82 -0.96,-2.65 -0.38,-5.29 1.19,-5.84 1.57,-0.56 3.61,1.17 4.56,3.82z"/>
   <path class="fil0" d="M12.23 4.65c-0.04,2.63 1.27,4.7 2.85,4.72 1.65,-0.01 2.99,-2.09 3.06,-4.64 0.04,-2.63 -1.27,-4.7 -2.85,-4.72 -1.61,-0.09 -3.01,2.01 -3.06,4.64z"/>
  </g>
 </g>
</svg>
