<svg width="76" height="13" viewBox="0 0 76 13" fill="none" xmlns="http://www.w3.org/2000/svg">
<path d="M4.72006 12C4.43206 12 4.23473 11.8613 4.12806 11.584L0.560061 1.296L0.528061 1.12C0.528061 1.03467 0.560061 0.96 0.624061 0.896C0.688061 0.831999 0.762728 0.799999 0.848061 0.799999H1.68006C1.88273 0.799999 2.02673 0.895999 2.11206 1.088L5.23206 10.16L8.36806 1.088C8.38939 1.024 8.43739 0.96 8.51206 0.896C8.58673 0.831999 8.67739 0.799999 8.78406 0.799999H9.61606C9.70139 0.799999 9.77606 0.831999 9.84006 0.896C9.91473 0.96 9.95206 1.03467 9.95206 1.12L9.92006 1.296L6.33606 11.584C6.22939 11.8613 6.03739 12 5.76006 12H4.72006ZM11.9084 2.128C11.8018 2.128 11.7111 2.096 11.6364 2.032C11.5724 1.95733 11.5404 1.86667 11.5404 1.76V0.896C11.5404 0.789333 11.5724 0.698666 11.6364 0.624C11.7111 0.549333 11.8018 0.511999 11.9084 0.511999H12.9164C13.0231 0.511999 13.1138 0.549333 13.1884 0.624C13.2631 0.698666 13.3004 0.789333 13.3004 0.896V1.76C13.3004 1.86667 13.2631 1.95733 13.1884 2.032C13.1138 2.096 13.0231 2.128 12.9164 2.128H11.9084ZM12.0364 12C11.9298 12 11.8391 11.968 11.7644 11.904C11.7004 11.8293 11.6684 11.7387 11.6684 11.632V4.048C11.6684 3.94133 11.7004 3.856 11.7644 3.792C11.8391 3.71733 11.9298 3.68 12.0364 3.68H12.8044C12.9111 3.68 12.9964 3.71733 13.0604 3.792C13.1351 3.856 13.1724 3.94133 13.1724 4.048V11.632C13.1724 11.7387 13.1351 11.8293 13.0604 11.904C12.9964 11.968 12.9111 12 12.8044 12H12.0364ZM18.8714 12.16C17.7728 12.16 16.8928 11.824 16.2314 11.152C15.5808 10.4693 15.2234 9.54133 15.1594 8.368L15.1434 7.824L15.1594 7.296C15.2341 6.144 15.5968 5.22667 16.2474 4.544C16.9088 3.86133 17.7781 3.52 18.8554 3.52C20.0394 3.52 20.9568 3.89867 21.6074 4.656C22.2581 5.40267 22.5834 6.416 22.5834 7.696V7.968C22.5834 8.07467 22.5461 8.16533 22.4714 8.24C22.4074 8.304 22.3221 8.336 22.2154 8.336H16.6794V8.48C16.7114 9.17333 16.9194 9.76533 17.3034 10.256C17.6981 10.736 18.2154 10.976 18.8554 10.976C19.3461 10.976 19.7461 10.88 20.0554 10.688C20.3754 10.4853 20.6101 10.2773 20.7594 10.064C20.8554 9.936 20.9248 9.86133 20.9674 9.84C21.0208 9.808 21.1114 9.792 21.2394 9.792H22.0234C22.1194 9.792 22.1994 9.81867 22.2634 9.872C22.3274 9.92533 22.3594 10 22.3594 10.096C22.3594 10.3307 22.2101 10.6133 21.9114 10.944C21.6234 11.2747 21.2128 11.5627 20.6794 11.808C20.1568 12.0427 19.5541 12.16 18.8714 12.16ZM21.0634 7.232V7.184C21.0634 6.448 20.8608 5.85067 20.4554 5.392C20.0608 4.92267 19.5274 4.688 18.8554 4.688C18.1834 4.688 17.6501 4.92267 17.2554 5.392C16.8714 5.85067 16.6794 6.448 16.6794 7.184V7.232H21.0634ZM26.4858 12C26.3471 12 26.2405 11.968 26.1658 11.904C26.0911 11.84 26.0271 11.7387 25.9738 11.6L23.7018 4.176L23.6698 4.016C23.6698 3.92 23.7018 3.84 23.7658 3.776C23.8405 3.712 23.9205 3.68 24.0058 3.68H24.7098C24.8165 3.68 24.9018 3.712 24.9658 3.776C25.0405 3.82933 25.0885 3.888 25.1098 3.952L26.8858 9.984L28.7898 4.016C28.8111 3.93067 28.8591 3.856 28.9338 3.792C29.0085 3.71733 29.1098 3.68 29.2378 3.68H29.7818C29.9098 3.68 30.0111 3.71733 30.0858 3.792C30.1605 3.856 30.2085 3.93067 30.2298 4.016L32.1338 9.984L33.9098 3.952C33.9205 3.89867 33.9578 3.84 34.0218 3.776C34.0965 3.712 34.1871 3.68 34.2938 3.68H35.0138C35.0991 3.68 35.1738 3.712 35.2378 3.776C35.3018 3.84 35.3338 3.92 35.3338 4.016L35.3018 4.176L33.0458 11.6C32.9925 11.7387 32.9285 11.84 32.8538 11.904C32.7791 11.968 32.6671 12 32.5178 12H31.8938C31.6058 12 31.4298 11.8667 31.3658 11.6L29.5098 5.872L27.6538 11.6C27.5685 11.8667 27.3871 12 27.1098 12H26.4858ZM41.2288 12C41.1221 12 41.0315 11.968 40.9568 11.904C40.8928 11.8293 40.8608 11.7387 40.8608 11.632V1.184C40.8608 1.06667 40.8928 0.976 40.9568 0.912C41.0315 0.837333 41.1221 0.799999 41.2288 0.799999H42.0288C42.1995 0.799999 42.3381 0.885333 42.4448 1.056L45.8208 7.52L49.2288 1.056C49.2501 0.991999 49.2928 0.933332 49.3568 0.879999C49.4315 0.826666 49.5221 0.799999 49.6288 0.799999H50.4128C50.5301 0.799999 50.6208 0.837333 50.6848 0.912C50.7595 0.976 50.7968 1.06667 50.7968 1.184V11.632C50.7968 11.7387 50.7595 11.8293 50.6848 11.904C50.6101 11.968 50.5195 12 50.4128 12H49.6288C49.5221 12 49.4315 11.968 49.3568 11.904C49.2928 11.8293 49.2608 11.7387 49.2608 11.632V3.76L46.5888 8.976C46.4821 9.2 46.3115 9.312 46.0768 9.312H45.5808C45.3461 9.312 45.1755 9.2 45.0688 8.976L42.3808 3.76V11.632C42.3808 11.7387 42.3435 11.8293 42.2688 11.904C42.2048 11.968 42.1195 12 42.0128 12H41.2288ZM56.7639 12.16C55.5906 12.16 54.6786 11.8293 54.0279 11.168C53.3879 10.5067 53.0466 9.62667 53.0039 8.528L52.9879 7.84L53.0039 7.152C53.0466 6.064 53.3933 5.18933 54.0439 4.528C54.6946 3.856 55.6013 3.52 56.7639 3.52C57.9266 3.52 58.8333 3.856 59.4839 4.528C60.1346 5.18933 60.4813 6.064 60.5239 7.152C60.5346 7.26933 60.5399 7.49867 60.5399 7.84C60.5399 8.18133 60.5346 8.41067 60.5239 8.528C60.4813 9.62667 60.1346 10.5067 59.4839 11.168C58.8439 11.8293 57.9373 12.16 56.7639 12.16ZM56.7639 10.928C57.4359 10.928 57.9639 10.7147 58.3479 10.288C58.7426 9.86133 58.9559 9.248 58.9879 8.448C58.9986 8.34133 59.0039 8.13867 59.0039 7.84C59.0039 7.54133 58.9986 7.33867 58.9879 7.232C58.9559 6.432 58.7426 5.81867 58.3479 5.392C57.9639 4.96533 57.4359 4.752 56.7639 4.752C56.0919 4.752 55.5586 4.96533 55.1639 5.392C54.7693 5.81867 54.5613 6.432 54.5399 7.232L54.5239 7.84L54.5399 8.448C54.5613 9.248 54.7693 9.86133 55.1639 10.288C55.5586 10.7147 56.0919 10.928 56.7639 10.928ZM62.9114 12C62.8048 12 62.7141 11.968 62.6394 11.904C62.5754 11.8293 62.5434 11.7387 62.5434 11.632V4.064C62.5434 3.95733 62.5754 3.86667 62.6394 3.792C62.7141 3.71733 62.8048 3.68 62.9114 3.68H63.6474C63.7541 3.68 63.8448 3.71733 63.9194 3.792C63.9941 3.86667 64.0314 3.95733 64.0314 4.064V4.768C64.4688 4.04267 65.2154 3.68 66.2714 3.68H66.8954C67.0021 3.68 67.0874 3.71733 67.1514 3.792C67.2261 3.856 67.2634 3.94133 67.2634 4.048V4.704C67.2634 4.81067 67.2261 4.896 67.1514 4.96C67.0874 5.024 67.0021 5.056 66.8954 5.056H65.9354C65.3594 5.056 64.9061 5.22667 64.5754 5.568C64.2448 5.89867 64.0794 6.352 64.0794 6.928V11.632C64.0794 11.7387 64.0421 11.8293 63.9674 11.904C63.8928 11.968 63.8021 12 63.6954 12H62.9114ZM71.7933 12.16C70.6946 12.16 69.8146 11.824 69.1533 11.152C68.5026 10.4693 68.1453 9.54133 68.0813 8.368L68.0653 7.824L68.0813 7.296C68.156 6.144 68.5186 5.22667 69.1693 4.544C69.8306 3.86133 70.7 3.52 71.7773 3.52C72.9613 3.52 73.8786 3.89867 74.5293 4.656C75.18 5.40267 75.5053 6.416 75.5053 7.696V7.968C75.5053 8.07467 75.468 8.16533 75.3933 8.24C75.3293 8.304 75.244 8.336 75.1373 8.336H69.6013V8.48C69.6333 9.17333 69.8413 9.76533 70.2253 10.256C70.62 10.736 71.1373 10.976 71.7773 10.976C72.268 10.976 72.668 10.88 72.9773 10.688C73.2973 10.4853 73.532 10.2773 73.6813 10.064C73.7773 9.936 73.8466 9.86133 73.8893 9.84C73.9426 9.808 74.0333 9.792 74.1613 9.792H74.9453C75.0413 9.792 75.1213 9.81867 75.1853 9.872C75.2493 9.92533 75.2813 10 75.2813 10.096C75.2813 10.3307 75.132 10.6133 74.8333 10.944C74.5453 11.2747 74.1346 11.5627 73.6013 11.808C73.0786 12.0427 72.476 12.16 71.7933 12.16ZM73.9853 7.232V7.184C73.9853 6.448 73.7826 5.85067 73.3773 5.392C72.9826 4.92267 72.4493 4.688 71.7773 4.688C71.1053 4.688 70.572 4.92267 70.1773 5.392C69.7933 5.85067 69.6013 6.448 69.6013 7.184V7.232H73.9853Z" fill="white"/>
</svg>
