<svg width="69" height="11" viewBox="0 0 69 11" fill="none" xmlns="http://www.w3.org/2000/svg">
<path d="M2.87109 5.19189V2.84814C3.35938 2.81396 3.69629 2.79688 3.88184 2.79688C4.41406 2.78223 4.8877 2.79932 5.30273 2.84814C5.31738 2.98975 5.32471 3.08984 5.32471 3.14844C5.36865 3.6416 5.39062 3.94189 5.39062 4.04932C5.39062 4.43018 5.36377 4.81104 5.31006 5.19189H2.87109ZM7.05322 0.892578L6.95068 0.863281C6.96045 0.863281 6.86768 0.848633 6.67236 0.819336C6.43311 0.785156 6.19385 0.753418 5.95459 0.724121C5.16846 0.63623 4.46533 0.597168 3.84521 0.606934C3.2251 0.616699 2.46338 0.67041 1.56006 0.768066C1.28174 0.802246 1.00342 0.836426 0.725098 0.870605C0.495605 0.904785 0.383301 0.921875 0.388184 0.921875L0.197754 0.951172L0 0.987793L0.314941 1.22949C0.500488 1.37598 0.634766 1.52002 0.717773 1.66162C0.820312 1.8374 0.871582 2.0376 0.871582 2.26221V11H2.87109V7.06689H7.06787L7.08252 6.979L7.08984 6.92773C7.11426 6.8252 7.14355 6.66406 7.17773 6.44434C7.31445 5.63867 7.38281 4.87695 7.38281 4.15918C7.38281 2.87988 7.28271 1.82764 7.08252 1.00244L7.05322 0.892578ZM11.3525 5.19189V2.84814C11.8457 2.81396 12.1802 2.79688 12.356 2.79688C12.8882 2.78223 13.3643 2.79932 13.7842 2.84814C13.7842 2.89697 13.7915 2.99707 13.8062 3.14844C13.8403 3.51465 13.8574 3.81494 13.8574 4.04932C13.8574 4.49854 13.8354 4.87939 13.7915 5.19189H11.3525ZM16.2012 11L14.6118 7.06689H15.5347L15.5566 6.92041C15.6104 6.68604 15.6592 6.41992 15.7031 6.12207C15.8057 5.43848 15.8569 4.78418 15.8569 4.15918C15.8569 3.57324 15.8301 2.9873 15.7764 2.40137C15.7227 1.85938 15.6494 1.39307 15.5566 1.00244L15.5347 0.892578L15.498 0.885254L15.4321 0.863281C15.4419 0.863281 15.3467 0.848633 15.1465 0.819336C14.9121 0.785156 14.6729 0.753418 14.4287 0.724121C13.6377 0.63623 12.9321 0.597168 12.312 0.606934C11.7603 0.611816 11.0889 0.655762 10.2979 0.73877C10.0684 0.763184 9.8999 0.782715 9.79248 0.797363C9.11377 0.880371 8.80371 0.921875 8.8623 0.921875L8.48145 0.987793L8.78906 1.22949C9.02832 1.4248 9.18701 1.63232 9.26514 1.85205C9.31396 1.98877 9.33838 2.12305 9.33838 2.25488V11H11.3379V7.06689H12.4292C12.4585 7.14502 12.561 7.38672 12.7368 7.79199C12.9272 8.23145 13.0811 8.6001 13.1982 8.89795C13.2812 9.10791 13.3569 9.30322 13.4253 9.48389C13.5034 9.69873 13.5669 9.87451 13.6157 10.0112C13.6401 10.0894 13.6572 10.1772 13.667 10.2749C13.667 10.2798 13.667 10.2847 13.667 10.2896C13.6719 10.2993 13.6743 10.3066 13.6743 10.3115C13.6792 10.4434 13.6523 10.5581 13.5938 10.6558C13.584 10.6753 13.5718 10.6899 13.5571 10.6997L13.3008 11H16.2012ZM22.4194 8.80273C22.2241 8.83691 21.8115 8.854 21.1816 8.854C20.5518 8.854 20.1318 8.83691 19.9219 8.80273L19.9365 2.78955L21.1816 2.74561C21.6406 2.73584 22.0532 2.75049 22.4194 2.78955V8.80273ZM25.0562 10.48C24.9536 10.4556 24.8511 10.3896 24.7485 10.2822C24.5483 10.0625 24.4458 9.74268 24.4409 9.32275L24.4336 1.50049V0.936523L24.2871 0.899902C23.6328 0.685059 22.5977 0.577637 21.1816 0.577637C20.415 0.577637 19.5972 0.643555 18.728 0.775391C18.4595 0.819336 18.2007 0.865723 17.9517 0.914551C17.7417 0.958496 17.6416 0.980469 17.6514 0.980469L17.2998 1.06104C17.3096 1.0708 17.3193 1.08057 17.3291 1.09033L17.2998 1.09766C17.71 1.39062 17.9175 1.77881 17.9224 2.26221V10.6411L18.0542 10.6777C18.9038 10.8926 19.9463 11 21.1816 11C21.9434 11 22.7588 10.9316 23.6279 10.7949C23.8965 10.7559 24.1553 10.7119 24.4043 10.6631C24.6143 10.6191 24.7144 10.5972 24.7046 10.5972L25.0562 10.5166C25.0415 10.5117 25.0244 10.5044 25.0049 10.4946L25.0562 10.48ZM31.7285 6.0708C31.6943 7.14014 31.582 8.0752 31.3916 8.87598L31.3843 8.91992H28.689V2.73828H31.2891L31.3184 2.8335C31.6162 3.87354 31.7529 4.95264 31.7285 6.0708ZM32.688 0.562988H26.1621L26.3525 0.841309C26.5918 1.19287 26.7114 1.49561 26.7114 1.74951V11H32.7979L32.8418 10.8901C33.3643 9.61084 33.6548 8.00928 33.7134 6.08545C33.7622 4.25928 33.4351 2.45508 32.7319 0.672852L32.688 0.562988ZM42.2974 10.5898C42.3071 10.5898 42.207 10.6118 41.9971 10.6558C41.7432 10.7095 41.4819 10.7559 41.2134 10.7949C40.3442 10.9316 39.5264 11 38.7598 11C37.4609 11 36.4185 10.8926 35.6323 10.6777L35.5151 10.6338V1.83008C35.5151 1.3418 35.3076 0.938965 34.8926 0.621582H37.5146L37.5 8.78076C37.7148 8.81494 38.1348 8.83203 38.7598 8.83203C39.3945 8.83203 39.8071 8.81494 39.9976 8.78076V0.621582L42.0264 0.606934V9.33008C42.0264 9.75488 42.1265 10.0796 42.3267 10.3042C42.4292 10.4116 42.5317 10.48 42.6343 10.5093L42.2974 10.5898ZM47.6147 0.562988C46.2329 0.562988 45.0537 0.697266 44.0771 0.96582L43.7402 1.05371L44.0039 1.27344C44.2822 1.54687 44.4482 1.76416 44.502 1.92529C44.5312 2.01807 44.5459 2.12549 44.5459 2.24756C44.541 2.3501 44.5361 2.40137 44.5312 2.40137C44.2236 3.26074 44.0698 4.38623 44.0698 5.77783C44.0698 8.01904 44.4019 9.67676 45.0659 10.751L45.1099 10.8242L45.1904 10.8315C46.0596 10.9438 46.8677 11 47.6147 11C48.6011 11 49.6313 10.9023 50.7056 10.707L50.8521 10.6851V8.05566L50.5737 8.23877C50.3247 8.3999 50.0146 8.54883 49.6436 8.68555C49.2285 8.82715 48.6792 8.91748 47.9956 8.95654C47.2778 8.98584 46.7578 8.97852 46.4355 8.93457C46.1621 8.0459 46.0254 6.99365 46.0254 5.77783C46.0254 4.56689 46.1621 3.51953 46.4355 2.63574C46.7871 2.58691 47.3071 2.57959 47.9956 2.61377C48.6401 2.63818 49.1895 2.73096 49.6436 2.89209C49.9805 3.00439 50.2905 3.15332 50.5737 3.33887L50.8521 3.51465V0.870605L50.5591 0.82666C49.4067 0.650879 48.4253 0.562988 47.6147 0.562988ZM51.958 0.606934H59.5166V2.65039H56.7773V9.78418C56.792 10.165 56.9385 10.4653 57.2168 10.6851L57.605 11H53.9575L54.2798 10.6997C54.5728 10.4214 54.7241 10.1162 54.7339 9.78418V2.65039H51.958V0.606934ZM68.6133 10.4946L68.2031 10.5972C67.0752 10.8657 65.8716 11 64.5923 11C63.479 11 62.4512 10.8926 61.5088 10.6777L61.3403 10.6484V7.79199C61.731 8.16309 62.1729 8.42432 62.666 8.57568C63.1689 8.73193 63.6841 8.81982 64.2114 8.83936C64.8413 8.87354 65.3882 8.86621 65.8521 8.81738V7.85059L61.7798 5.104C61.4868 4.92822 61.3403 4.62793 61.3403 4.20312C61.3501 2.85059 61.355 2.1792 61.355 2.18896C61.3452 1.85693 61.2109 1.59082 60.9521 1.39062L60.6152 1.1123L61.0327 1.00244C62.1753 0.73877 63.3472 0.606934 64.5483 0.606934C65.2075 0.606934 65.9253 0.658203 66.7017 0.760742C66.9312 0.790039 67.168 0.82666 67.4121 0.870605C67.6074 0.899902 67.7051 0.914551 67.7051 0.914551L67.8662 0.958496V3.81494L67.5366 3.52197C67.356 3.36084 67.0264 3.19727 66.5479 3.03125C66.167 2.88477 65.6274 2.79199 64.9292 2.75293C64.2163 2.72363 63.6963 2.73584 63.3691 2.78955V3.78564L67.5513 6.57617C67.7612 6.67871 67.8662 6.89355 67.8662 7.2207L67.8735 9.41797C67.8882 9.74512 68.02 10.0112 68.269 10.2163L68.6133 10.4946Z" fill="black"/>
</svg>
